<svg width="36" height="29" viewBox="0 0 36 29" fill="none" xmlns="http://www.w3.org/2000/svg">
<path d="M11.7483 13.5618C13.1469 14.1873 14.2378 15.1255 15.021 16.3765C15.8042 17.6275 16.1958 19.1059 16.1958 20.8118C16.1958 23.2569 15.4406 25.2471 13.9301 26.7823C12.4196 28.2608 10.4895 29 8.13986 29C5.79021 29 3.83217 28.2323 2.26573 26.6971C0.755245 25.1618 0 23.2 0 20.8118C0 19.6745 0.13986 18.5373 0.41958 17.4C0.699301 16.2627 1.31469 14.5569 2.26573 12.2823L7.13287 0H15.4406L11.7483 13.5618ZM31.5524 13.5618C32.951 14.1873 34.042 15.1255 34.8252 16.3765C35.6084 17.6275 36 19.1059 36 20.8118C36 23.2569 35.2448 25.2471 33.7343 26.7823C32.2238 28.2608 30.2937 29 27.9441 29C25.5944 29 23.6364 28.2323 22.0699 26.6971C20.5594 25.1618 19.8042 23.2 19.8042 20.8118C19.8042 19.6745 19.9441 18.5373 20.2238 17.4C20.5035 16.2627 21.1189 14.5569 22.0699 12.2823L26.9371 0H35.2448L31.5524 13.5618Z" fill="#3B72FF"/>
</svg>
