<svg width="38" height="38" viewBox="0 0 38 38" fill="none" xmlns="http://www.w3.org/2000/svg">
<rect width="32" height="31.9999" rx="8" fill="#003BD1"/>
<rect x="6" y="6" width="32" height="31.9999" rx="8" fill="#4791FF"/>
<path d="M25.459 16.5107C26.0819 16.5107 26.5869 17.0157 26.5869 17.6387C26.5275 19.1348 24.3902 19.1344 24.3311 17.6387C24.3311 17.0157 24.836 16.5107 25.459 16.5107ZM30.1211 21.8496V15.3828C30.1211 14.5536 29.4464 13.8789 28.6172 13.8789H15.3828C14.5536 13.8789 13.8789 14.5536 13.8789 15.3828V22.0533L16.6553 19.2769C17.5348 18.3974 18.9659 18.3974 19.8455 19.2769L23.8474 23.2787L24.691 22.4351C25.5706 21.5556 27.0017 21.5556 27.8813 22.4351L31.4048 25.9586C31.5458 26.0996 31.625 26.2909 31.625 26.4903V28.6172C31.625 30.2757 30.2757 31.625 28.6172 31.625H15.3828C13.7243 31.625 12.375 30.2757 12.375 28.6172V15.3828C12.375 13.7243 13.7243 12.375 15.3828 12.375H28.6172C30.2757 12.375 31.625 13.7243 31.625 15.3828V21.8496C31.5853 22.8473 30.1605 22.8465 30.1211 21.8496ZM13.8789 24.1801V28.6172C13.8789 29.4464 14.5536 30.1211 15.3828 30.1211H28.6172C29.4464 30.1211 30.1211 29.4464 30.1211 28.6172V26.8018L26.8178 23.4986C26.5247 23.2054 26.0476 23.2054 25.7545 23.4986L22.0328 27.2202C21.7392 27.5138 21.2631 27.5138 20.9694 27.2202C20.6757 26.9265 20.6758 26.4504 20.9694 26.1568L22.7839 24.3422L18.7821 20.3404C18.5022 20.0486 17.9986 20.0486 17.7187 20.3404L13.8789 24.1801Z" fill="white"/>
</svg>
