<svg width="38" height="38" viewBox="0 0 38 38" fill="none" xmlns="http://www.w3.org/2000/svg">
<rect width="32" height="31.9999" rx="8" fill="#07AE91"/>
<rect x="6" y="6" width="32" height="31.9999" rx="8" fill="#14D4B2"/>
<path d="M25.3667 13.6673C25.6291 13.3453 26.103 13.2968 26.4253 13.5591C27.83 14.7024 28.7389 16.4234 28.9187 18.2807C28.9587 18.694 28.6558 19.0615 28.2422 19.1015C27.8352 19.143 27.4593 18.8402 27.4208 18.4255C27.2795 16.9653 26.5703 15.6166 25.475 14.7253C25.1528 14.4629 25.1043 13.9893 25.3667 13.6673ZM15.7578 19.1015C16.1647 19.143 16.5407 18.84 16.5791 18.4255C16.7205 16.9653 17.4297 15.6166 18.525 14.7252C18.8472 14.463 18.8957 13.9893 18.6333 13.6673C18.3708 13.3453 17.8969 13.2969 17.5747 13.5591C16.1699 14.7024 15.2611 16.4234 15.0813 18.2807C15.0413 18.694 15.3441 19.0615 15.7578 19.1015ZM28.9598 22C28.9598 23.0146 28.7449 23.9936 28.3211 24.9097C28.1464 25.2905 27.691 25.4496 27.3225 25.2768C26.9453 25.1026 26.7808 24.6557 26.9552 24.2787C27.1809 23.7906 27.3309 23.2795 27.4037 22.752H25.8782C24.9763 26.9917 19.0218 26.9887 18.1217 22.752H16.5966C17.0717 26.5251 21.4757 28.6995 24.7758 26.6915C25.1331 26.4793 25.5948 26.597 25.807 26.954C26.0192 27.3111 25.9015 27.7725 25.5443 27.9845C24.6901 28.4915 23.737 28.8077 22.7523 28.9148V30.1211H25.0472C26.0455 30.1608 26.0447 31.5856 25.0472 31.625H19.0279C18.0296 31.5853 18.0304 30.1605 19.0279 30.1211H21.2476V28.9152C17.7624 28.5391 15.0402 25.5813 15.0402 22C15.0402 21.5847 15.377 21.2481 15.7926 21.2481H18.0498V18.9546C18.2674 13.7161 25.7344 13.7202 25.9501 18.9546V21.2481H28.2073C28.6229 21.248 28.9598 21.5847 28.9598 22ZM24.4453 18.9546C24.3106 15.7117 19.6881 15.7142 19.5546 18.9546V22C19.6893 25.2429 24.3118 25.2404 24.4453 22V18.9546ZM15.3623 12.5419C15.0389 12.281 14.5652 12.3315 14.3042 12.6547C13.4179 13.752 12.7781 14.9944 12.4026 16.3474C12.2915 16.7476 12.5261 17.162 12.9265 17.2729C13.3161 17.3842 13.7429 17.1529 13.8526 16.7493C14.1729 15.5956 14.7188 14.5358 15.4752 13.5993C15.7362 13.2761 15.6857 12.8027 15.3623 12.5419ZM31.5974 16.3474C31.2219 14.9944 30.5821 13.752 29.6957 12.6547C29.4347 12.3315 28.961 12.281 28.6376 12.5419C28.3143 12.8027 28.2638 13.2762 28.5248 13.5993C29.2812 14.5358 29.8271 15.5957 30.1473 16.7494C30.2571 17.153 30.6839 17.3843 31.0735 17.273C31.4739 17.162 31.7085 16.7476 31.5974 16.3474Z" fill="white"/>
</svg>
