<svg width="29" height="31" viewBox="0 0 29 31" fill="none" xmlns="http://www.w3.org/2000/svg">
<path d="M5.26014 21.6308L1.49951 22.9996L3.89462 29.5798L7.65525 28.211L5.26014 21.6308Z" fill="#D9CAFF"/>
<path d="M11.2398 26.37L11.5848 27.31L7.82484 28.68L7.65484 28.21L5.25984 21.63L5.08984 21.16L8.84484 19.795L9.18984 20.735L11.2398 26.37Z" fill="#D9CAFF"/>
<path d="M28.03 6.25004C28.2283 6.59496 28.2818 7.00444 28.1787 7.38872C28.0756 7.773 27.8243 8.10072 27.48 8.30005L25.75 9.30005L24.25 6.70004L25.98 5.70004C26.1507 5.60144 26.3391 5.53745 26.5346 5.51173C26.73 5.486 26.9286 5.49906 27.119 5.55014C27.3094 5.60122 27.4878 5.68932 27.6442 5.80942C27.8005 5.92951 27.9316 6.07924 28.03 6.25004Z" fill="#D9CAFF"/>
<path d="M19 13.5C19.3978 13.5 19.7794 13.658 20.0607 13.9393C20.342 14.2206 20.5 14.6022 20.5 15C20.5 15.3978 20.342 15.7794 20.0607 16.0607C19.7794 16.342 19.3978 16.5 19 16.5H17V13.5H19Z" fill="#D9CAFF"/>
<path d="M11 11H5C5 10.2044 5.31607 9.44129 5.87868 8.87868C6.44129 8.31607 7.20435 8 8 8C8.79565 8 9.55871 8.31607 10.1213 8.87868C10.6839 9.44129 11 10.2044 11 11Z" fill="#D9CAFF"/>
<path d="M25.8825 20.0705C25.6447 19.9586 25.3872 19.895 25.1247 19.8834C24.8622 19.8718 24.6001 19.9125 24.3535 20.003L21.236 21.1375C21.0952 20.8628 20.8928 20.6243 20.6445 20.4408C20.3963 20.2574 20.1089 20.1339 19.805 20.08L13.01 18.88C12.9238 18.8641 12.835 18.8719 12.753 18.9025L9.48745 20.0905L9.31645 19.621C9.27107 19.4964 9.17809 19.395 9.05795 19.339C8.99859 19.311 8.93425 19.295 8.86866 19.2921C8.80307 19.2892 8.73756 19.2993 8.67595 19.322L4.91695 20.6905C4.85519 20.7128 4.79843 20.7471 4.74993 20.7914C4.70142 20.8357 4.66211 20.8891 4.63425 20.9486C4.60639 21.0081 4.59053 21.0725 4.58756 21.1381C4.58459 21.2037 4.59458 21.2692 4.61695 21.331L1.32795 22.531C1.26619 22.5533 1.20943 22.5876 1.16092 22.6319C1.11242 22.6762 1.07311 22.7296 1.04525 22.7891C1.01739 22.8486 1.00153 22.913 0.998558 22.9786C0.995589 23.0442 1.00558 23.1098 1.02795 23.1715L3.42445 29.75C3.45952 29.8464 3.52338 29.9296 3.60737 29.9885C3.69135 30.0473 3.7914 30.0789 3.89395 30.079C3.95231 30.0791 4.01021 30.0688 4.06495 30.0485L7.35395 28.85C7.3763 28.9118 7.41059 28.9685 7.45487 29.017C7.49916 29.0655 7.55257 29.1048 7.61205 29.1327C7.67153 29.1606 7.73591 29.1764 7.80153 29.1794C7.86714 29.1824 7.9327 29.1724 7.99445 29.15L11.7535 27.7815C11.8152 27.7592 11.872 27.7249 11.9205 27.6806C11.969 27.6363 12.0083 27.5829 12.0361 27.5234C12.064 27.4639 12.0799 27.3995 12.0828 27.3339C12.0858 27.2683 12.0758 27.2028 12.0535 27.141L11.8825 26.671L12.188 26.56L15.055 27.5285C15.1628 27.5645 15.2795 27.5631 15.3864 27.5245L16.7955 27.0115L25.7225 23.7615C26.0939 23.6261 26.4168 23.3836 26.6505 23.0647C26.8842 22.7459 27.0182 22.3649 27.0355 21.9699C27.0527 21.575 26.9526 21.1837 26.7476 20.8457C26.5427 20.5076 26.2421 20.2378 25.884 20.0705H25.8825ZM4.19295 28.937L2.14045 23.3L4.95995 22.2735L5.98595 25.093L7.01195 27.912L4.19295 28.937ZM8.12245 28.037L5.72845 21.461L8.54995 20.435L8.72045 20.9045L9.31095 22.5265L10.944 27.0125L8.12245 28.037ZM25.3794 22.822L15.2075 26.5245L12.3405 25.556C12.2329 25.5193 12.116 25.5207 12.0094 25.56L11.5395 25.731L9.82945 21.031L12.969 19.8885L19.6315 21.0635C19.805 21.0943 19.9675 21.1702 20.1024 21.2837C20.2373 21.3972 20.3399 21.5442 20.4 21.71C20.4157 21.7491 20.4269 21.7899 20.4335 21.8315C20.4335 21.849 20.4384 21.867 20.4419 21.8845C20.4644 21.9961 20.4657 22.1109 20.4459 22.223C20.3984 22.4838 20.25 22.7153 20.033 22.8676C19.8161 23.0198 19.5478 23.0805 19.2865 23.0365L13.656 22.0435L13.4825 23.0285L19.1119 24.021C19.6353 24.1122 20.1734 23.9918 20.608 23.6863C21.0426 23.3808 21.338 22.9153 21.4295 22.392C21.4427 22.3031 21.4499 22.2134 21.451 22.1235L24.6959 20.9425C24.9445 20.8546 25.2178 20.8684 25.4563 20.9809C25.6948 21.0935 25.8791 21.2957 25.9692 21.5435C26.0594 21.7913 26.048 22.0647 25.9375 22.3041C25.827 22.5436 25.6265 22.7297 25.3794 22.822Z" fill="#521FD1"/>
<path d="M8 14.5C8.69223 14.5 9.36892 14.2947 9.9445 13.9101C10.5201 13.5256 10.9687 12.9789 11.2336 12.3394C11.4985 11.6999 11.5678 10.9961 11.4327 10.3172C11.2977 9.63825 10.9644 9.01461 10.4749 8.52513C9.98539 8.03564 9.36175 7.7023 8.68282 7.56725C8.00388 7.4322 7.30015 7.50152 6.66061 7.76642C6.02107 8.03133 5.47444 8.47993 5.08986 9.05551C4.70527 9.63108 4.5 10.3078 4.5 11C4.50106 11.9279 4.87015 12.8176 5.5263 13.4737C6.18244 14.1299 7.07207 14.4989 8 14.5ZM8 13.5C7.4239 13.4993 6.86566 13.3 6.41937 12.9356C5.97309 12.5713 5.66605 12.0643 5.55 11.5H10.45C10.334 12.0643 10.0269 12.5713 9.58063 12.9356C9.13434 13.3 8.5761 13.4993 8 13.5ZM8 8.5C8.5761 8.50073 9.13434 8.70005 9.58063 9.06436C10.0269 9.42867 10.334 9.93571 10.45 10.5H5.55C5.66605 9.93571 5.97309 9.42867 6.41937 9.06436C6.86566 8.70005 7.4239 8.50073 8 8.5Z" fill="#521FD1"/>
<path d="M15 17H19C19.5304 17 20.0391 16.7893 20.4142 16.4142C20.7893 16.0391 21 15.5304 21 15C21 14.4696 20.7893 13.9609 20.4142 13.5858C20.0391 13.2107 19.5304 13 19 13H15C14.4696 13 13.9609 13.2107 13.5858 13.5858C13.2107 13.9609 13 14.4696 13 15C13 15.5304 13.2107 16.0391 13.5858 16.4142C13.9609 16.7893 14.4696 17 15 17ZM20 15C20 15.2652 19.8946 15.5196 19.7071 15.7071C19.5196 15.8946 19.2652 16 19 16H17.5V14H19C19.2652 14 19.5196 14.1054 19.7071 14.2929C19.8946 14.4804 20 14.7348 20 15ZM15 14H16.5V16H15C14.7348 16 14.4804 15.8946 14.2929 15.7071C14.1054 15.5196 14 15.2652 14 15C14 14.7348 14.1054 14.4804 14.2929 14.2929C14.4804 14.1054 14.7348 14 15 14Z" fill="#521FD1"/>
<path d="M28.4648 6.00004C28.1988 5.54137 27.7619 5.2068 27.2498 5.0696C26.7376 4.9324 26.1919 5.00376 25.7323 5.26804L22.2683 7.26804C21.8127 7.53515 21.4812 7.97162 21.3462 8.48221C21.2112 8.9928 21.2837 9.53606 21.5478 9.99343C21.8118 10.4508 22.2461 10.7852 22.7558 10.9235C23.2655 11.0619 23.8092 10.9931 24.2683 10.732L27.7323 8.73204C28.1912 8.46643 28.5261 8.02965 28.6634 7.51749C28.8007 7.00533 28.7293 6.45962 28.4648 6.00004ZM23.7683 9.86604C23.6545 9.93274 23.5287 9.97628 23.398 9.99414C23.2674 10.012 23.1345 10.0039 23.007 9.97014C22.8795 9.93643 22.7599 9.87784 22.6551 9.79773C22.5504 9.71762 22.4625 9.61758 22.3965 9.50337C22.3306 9.38916 22.2879 9.26303 22.2709 9.13226C22.2539 9.00148 22.2629 8.86862 22.2975 8.74135C22.332 8.61408 22.3914 8.4949 22.4722 8.39067C22.553 8.28644 22.6537 8.19923 22.7683 8.13404L24.0683 7.38404L25.0683 9.11604L23.7683 9.86604ZM27.2323 7.86604L25.9323 8.61604L24.9323 6.88404L26.2323 6.13404C26.4619 6.00353 26.7337 5.96911 26.9886 6.0383C27.2434 6.10748 27.4605 6.27466 27.5926 6.50335C27.7246 6.73204 27.7608 7.00367 27.6933 7.25896C27.6258 7.51426 27.4601 7.73249 27.2323 7.86604Z" fill="#521FD1"/>
<path d="M8.5 3.5H7.5V6.5H8.5V3.5Z" fill="#521FD1"/>
<path d="M8.5 1.5H7.5V2.5H8.5V1.5Z" fill="#521FD1"/>
<path d="M11 2H10V5H11V2Z" fill="#521FD1"/>
<path d="M11 0H10V1H11V0Z" fill="#521FD1"/>
<path d="M6 1H5V4H6V1Z" fill="#521FD1"/>
<path d="M6 5H5V6H6V5Z" fill="#521FD1"/>
<path d="M17 8H16V11H17V8Z" fill="#521FD1"/>
<path d="M17 6H16V7H17V6Z" fill="#521FD1"/>
<path d="M14.5 5H13.5V9H14.5V5Z" fill="#521FD1"/>
<path d="M19.5 3.5H18.5V7.5H19.5V3.5Z" fill="#521FD1"/>
<path d="M19.5 1.5H18.5V2.5H19.5V1.5Z" fill="#521FD1"/>
<path d="M27.5 2H26.5V4H27.5V2Z" fill="#521FD1"/>
<path d="M25 1H24V3H25V1Z" fill="#521FD1"/>
<path d="M22.5 1.5H21.5V4.5H22.5V1.5Z" fill="#521FD1"/>
<path d="M27.5 0H26.5V1H27.5V0Z" fill="#521FD1"/>
</svg>
