<svg width="168" height="38" viewBox="0 0 168 38" fill="none" xmlns="http://www.w3.org/2000/svg">
<path d="M15.5784 32.7368C15.6065 33.0732 11.2909 32.4074 11.0754 32.3531C6.92445 31.2895 4.24187 29.0047 2.8997 24.3666C1.16154 18.3514 4.9147 11.0116 9.27762 7.28294C11.4273 5.45426 13.8335 3.95067 16.4195 2.82015C26.0197 -1.20986 33.4068 0.978611 37.8906 3.38785C42.7477 5.99859 45.3689 9.61859 45.3952 9.65363L45.3216 9.9112C45.6475 9.88141 42.4025 6.50497 37.6401 3.95381C33.2596 1.60239 26.0477 -0.205858 16.628 3.7488C16.4843 3.80312 3.20633 8.81609 2.88744 21.9048C2.92372 23.5392 3.41986 25.1302 4.31897 26.4955C6.31469 29.5794 8.15973 31.5488 12.8906 31.9133L15.5784 32.7368Z" fill="#201818"/>
<path d="M44.8065 37.9951C43.3866 37.9718 41.9794 37.7222 40.6381 37.2557C37.8967 36.3359 35.2922 35.0498 32.8952 33.4324C30.5543 31.8555 28.2011 30.8234 25.3293 31.64C22.2858 32.516 19.2195 33.4622 16.0218 33.4622C12.1092 33.4622 8.20532 32.276 5.31248 30.2067C1.97108 27.815 0.143564 24.463 0.0261682 20.5119C-0.0386623 18.2779 0.506262 16.0491 1.64518 13.8852C2.75606 11.7826 6.29545 6.42616 15.1369 2.32081C25.0805 -2.29793 37.1442 0.132342 44.4718 8.2309C49.0275 13.2702 51.7399 19.7602 52.3023 26.9967C52.7684 32.9926 51.0302 36.5163 47.2771 37.6517C46.4748 37.8864 45.6424 38.0021 44.8065 37.9951ZM29.1315 30.3171C29.5524 30.3138 29.9695 30.3955 30.3581 30.5571C31.4689 31.0214 32.3888 31.7836 33.2789 32.5195C33.8559 33.0215 34.4665 33.4834 35.1065 33.902C36.919 35.0043 38.8505 35.8977 40.8641 36.5653C42.4831 37.1102 44.8713 37.6166 47.0721 36.9526C51.3561 35.6559 51.8941 30.9636 51.5892 27.0493C51.039 19.9757 48.3967 13.6364 43.9444 8.718C36.8236 0.848981 25.1015 -1.42885 15.4383 3.06373C9.4406 5.84969 4.5205 9.97256 2.27771 14.2303C1.19837 16.2804 0.68148 18.3883 0.744558 20.4944C0.88298 25.1867 3.53052 28.0462 5.72775 29.6179C8.50144 31.6014 12.2528 32.7403 16.0218 32.7403C19.4806 32.7403 22.6573 31.7013 26.477 30.883L26.6014 30.8497C26.7766 30.8042 26.9518 30.7534 27.1271 30.7025C27.7754 30.5098 28.4482 30.3171 29.1315 30.3171Z" fill="#2764AB"/>
<path d="M41.9681 34.1525C39.6903 32.1568 37.9942 29.6915 37.5299 26.7671C37.5299 26.7671 37.2863 25.658 37.7699 25.015C37.7927 25.2182 38.8405 22.9632 37.0445 22.5146C35.9932 22.2518 35.9091 21.1129 35.7672 20.228C34.2655 10.8258 26.3457 5.08396 16.877 6.05817C8.24574 6.94477 3.13465 12.8443 2.75267 20.6748C2.68434 22.0625 2.82802 23.4888 3.35717 24.7837C5.73663 30.6219 13.3358 30.7113 18.6011 29.9351C22.2071 29.4094 25.7254 28.3336 29.1807 27.2017C30.7735 26.676 32.2243 25.9629 33.7592 25.3636C34.5897 25.0395 35.7917 24.7241 36.3699 25.6335C36.6923 26.1434 36.7414 26.8898 36.9236 27.461C37.8225 30.282 39.7148 33.117 42.0487 34.9953C43.5188 36.1781 45.1921 36.9893 47.0512 36.6634C45.2464 36.6827 43.2928 35.3125 41.9681 34.1525ZM35.0277 23.3171C34.7404 23.7779 34.0413 24.4175 33.5752 24.6085C29.4929 26.2803 25.2851 27.6278 20.9911 28.6385C17.329 29.4848 13.3218 30.0297 9.61594 29.0415C7.21196 28.4002 4.8255 26.846 3.97043 24.4437C3.25575 22.3325 3.19954 20.0538 3.80923 17.9099C4.44002 15.76 5.23901 13.4015 6.71259 11.7773C12.6419 5.25217 25.5555 4.64417 31.0678 11.7773C32.3767 13.4681 33.3807 14.7893 34.2217 16.7535C34.7562 18.0045 35.8723 21.9749 35.0347 23.3171H35.0277Z" fill="#201818"/>
<path d="M45.3761 37.2311C44.3145 37.218 43.2573 37.0923 42.2222 36.8561C39.2082 36.2056 36.3135 35.0908 33.6418 33.5515C33.1266 33.2554 32.636 32.9295 32.1629 32.6159C30.7086 31.6522 29.3349 30.7411 27.4846 30.8111C25.8446 30.8742 24.2238 31.2912 22.6574 31.6872C21.6499 31.9448 20.6073 32.2129 19.5578 32.3881C16.7175 32.8647 13.4707 33.1696 9.92082 32.078C3.97393 30.2469 -0.54668 25.1201 0.189233 19.0488C0.699116 14.8436 4.17368 11.1938 10.1171 7.77705C15.1598 4.89472 20.0922 3.22139 24.7968 2.81664C34.1219 2.01064 43.8342 7.40208 48.9593 16.2295C51.323 20.3016 52.5039 24.7731 52.3708 29.1588C52.2744 32.3531 51.365 34.6361 49.6707 35.9433C48.5528 36.8053 47.1353 37.2311 45.3761 37.2311ZM27.6791 30.077C29.6556 30.077 31.1326 31.0582 32.5642 32.0044C33.0285 32.3128 33.5086 32.6317 34.0045 32.9173C36.6081 34.417 39.4288 35.5034 42.3658 36.1378C45.4357 36.8001 47.6749 36.546 49.2098 35.3615C50.7447 34.1771 51.5367 32.0972 51.6261 29.1308C51.754 24.8818 50.6081 20.5451 48.3127 16.5905C43.326 8.00483 33.8993 2.76057 24.8529 3.54029C20.2569 3.93628 15.4226 5.57807 10.485 8.41659C4.74314 11.7194 1.612 15.2396 0.916388 19.182C-0.0613261 24.7434 3.9459 29.872 9.78064 31.3245C12.9418 32.0944 16.2265 32.2136 19.4351 31.675C20.4531 31.4997 21.4799 31.2404 22.4716 30.9846C24.0784 30.5728 25.7377 30.1453 27.4548 30.0805L27.6791 30.077Z" fill="url(#paint0_linear)"/>
<path d="M45.3743 37.3539C44.3028 37.3403 43.2357 37.214 42.1906 36.9771C39.1662 36.3238 36.2615 35.2048 33.5804 33.6603C33.0548 33.3606 32.5694 33.0347 32.0963 32.7193C30.6595 31.7662 29.3069 30.8691 27.4881 30.9356C25.8638 30.9987 24.2501 31.4122 22.6889 31.8117C21.6761 32.0728 20.6318 32.3374 19.577 32.5126C16.8033 32.9787 13.483 33.3063 9.89101 32.199C3.40796 30.2032 -0.622044 24.7925 0.0788259 19.0401C0.571187 14.9733 3.83724 11.257 10.0662 7.67726C15.1142 4.77391 20.0676 3.09707 24.7845 2.68882C34.1569 1.87931 43.913 7.29353 49.0626 16.163C51.4386 20.2544 52.6231 24.7487 52.4899 29.1554C52.3918 32.3882 51.4684 34.7011 49.7425 36.0327C48.5966 36.9176 47.1685 37.3468 45.3761 37.3468L45.3743 37.3539ZM27.6896 30.6956C29.4751 30.6956 30.8137 31.5839 32.2295 32.5231C32.7008 32.8367 33.1879 33.1609 33.7013 33.457C36.3611 34.9876 39.242 36.0971 42.2414 36.7458C43.2698 36.9792 44.3199 37.1037 45.3743 37.1173C47.1107 37.1173 48.4914 36.7038 49.5935 35.854C51.2581 34.5679 52.15 32.3163 52.2463 29.1607C52.3778 24.796 51.2038 20.349 48.8506 16.2962C43.7483 7.5073 34.0868 2.14214 24.8038 2.94113C20.1185 3.34588 15.1983 5.01395 10.1801 7.89979C4.02473 11.4392 0.79722 15.096 0.313619 19.0804C-0.369729 24.7154 3.5972 30.0192 9.95934 31.9799C13.5057 33.0733 16.7928 32.7474 19.535 32.2866C20.5863 32.1113 21.6201 31.8433 22.6241 31.5857C24.201 31.1809 25.827 30.7639 27.4776 30.6991L27.6896 30.6956ZM45.3743 36.6285C44.3551 36.6151 43.3401 36.4935 42.3465 36.2658C39.3971 35.6264 36.5646 34.5335 33.9501 33.026C33.4543 32.7386 32.9724 32.4197 32.5081 32.1113C31.0345 31.1336 29.5119 30.1261 27.4601 30.2032C25.757 30.2681 24.1029 30.6921 22.5049 31.1038C21.5079 31.3597 20.4794 31.6295 19.4544 31.796C16.2297 32.3411 12.9277 32.2219 9.75084 31.4455C3.67955 29.9264 -0.16823 24.6488 0.802475 19.1698C1.50335 15.1906 4.65726 11.6354 10.4307 8.32031C15.3841 5.47302 20.2429 3.82773 24.8493 3.42823C33.9431 2.64501 43.4224 7.9138 48.4248 16.5398C50.7325 20.5119 51.8819 24.8714 51.754 29.1432C51.6629 32.1464 50.8341 34.2735 49.2904 35.465C48.2864 36.2377 46.9933 36.6232 45.3743 36.6232V36.6285ZM27.6861 29.9702C29.6976 29.9702 31.1905 30.9619 32.6377 31.9221C33.1038 32.2305 33.5804 32.5476 34.071 32.8297C36.6637 34.3232 39.4727 35.4049 42.3974 36.0362C45.4304 36.6915 48.1305 36.4725 49.6373 35.3091C51.1442 34.1456 51.9152 32.1008 52.0063 29.1765C52.1342 24.9485 50.4994 20.6066 48.2146 16.6729C43.2524 8.12757 33.8713 2.90784 24.8704 3.6823C20.2919 4.07654 15.4734 5.71307 10.5516 8.54283C4.84124 11.8264 1.73113 15.3202 1.03902 19.2311C0.0928453 24.584 3.86353 29.7442 9.80866 31.23C12.9532 31.9996 16.2218 32.1188 19.4141 31.5804C20.4286 31.4052 21.4519 31.1459 22.4418 30.8918C24.0556 30.4783 25.7219 30.0508 27.4513 29.9842L27.6861 29.9702Z" fill="#31A83E"/>
<path d="M73.4205 22.8264H78.2754C76.937 25.27 73.2052 27.0461 69.6313 25.4852C68.7583 25.1043 67.9722 24.5491 67.3211 23.8538C66.67 23.1584 66.1677 22.3375 65.8449 21.4413C65.5221 20.5451 65.3856 19.5925 65.4438 18.6417C65.5019 17.6909 65.7534 16.762 66.183 15.9118C66.5827 15.0736 67.1525 14.3278 67.8562 13.7218C68.5598 13.1158 69.3818 12.6628 70.27 12.3918C73.1406 11.4947 75.5914 12.2985 77.7192 14.3617C78.2287 13.723 78.7096 13.1094 79.2047 12.4851C78.0676 11.315 76.6466 10.4597 75.0803 10.0027C73.514 9.54574 71.856 9.50264 70.2681 9.87764C68.6801 10.2526 67.2166 11.0329 66.0202 12.1424C64.8239 13.2518 63.9356 14.6524 63.4421 16.2076C62.9485 17.7628 62.8667 19.4193 63.2044 21.0156C63.5422 22.6118 64.288 24.0932 65.3691 25.3152C66.4502 26.5372 67.8297 27.4581 69.3729 27.9878C70.9161 28.5176 72.5703 28.6382 74.174 28.3379C78.8387 27.4444 81.4617 23.5476 81.7596 20.4079H81.3505C79.621 20.4079 77.8914 20.433 76.1619 20.4079H74.7266L73.4205 22.8264Z" fill="#201818"/>
<path d="M86.2772 15.8902L86.3992 9.65747H84.0166L77.1738 18.2118H83.8946V22.916L86.3346 20.2284V18.2118H87.9206L89.7542 15.8902H86.2772ZM83.8946 15.8292H82.0682L83.9018 13.6297L83.8946 15.8292Z" fill="#E00824"/>
<path d="M89.3916 9.65747V11.6741H93.1916C93.1916 11.6741 95.1472 12.1011 93.9846 13.6297L88.2434 21.0214H96.6004V18.8218L93.0122 18.7608L95.6998 15.3412C95.6998 15.3412 97.5334 12.7147 95.8218 10.7591C95.8218 10.7591 94.9068 9.65747 92.9512 9.65747H89.3916Z" fill="#E00824"/>
<path d="M106.529 19.3134C107.117 19.3134 107.634 19.2417 108.079 19.0981C108.531 18.9546 108.908 18.7537 109.209 18.4953C109.511 18.2298 109.737 17.9176 109.888 17.5588C110.038 17.1928 110.114 16.7909 110.114 16.3531C110.114 15.4633 109.819 14.7923 109.231 14.3401C108.65 13.888 107.774 13.662 106.604 13.662H104.441V19.3134H106.529ZM113.741 27.3224H111.696C111.287 27.3224 110.989 27.1609 110.803 26.838L106.981 21.4771C106.859 21.2977 106.726 21.1721 106.583 21.1004C106.439 21.0214 106.224 20.982 105.937 20.982H104.441V27.3224H102.148V11.8643H106.604C107.602 11.8643 108.459 11.9683 109.177 12.1764C109.902 12.3774 110.498 12.668 110.964 13.0484C111.438 13.4215 111.786 13.8737 112.008 14.4047C112.238 14.9358 112.353 15.5314 112.353 16.1917C112.353 16.7299 112.27 17.2358 112.105 17.7095C111.94 18.1831 111.696 18.6101 111.373 18.9905C111.057 19.3637 110.67 19.6866 110.21 19.9593C109.751 20.232 109.231 20.4401 108.65 20.5837C108.937 20.7559 109.184 20.9963 109.392 21.3049L113.741 27.3224Z" fill="#201818"/>
<path d="M129.965 19.5933C129.965 20.7487 129.778 21.8108 129.405 22.7797C129.039 23.7413 128.519 24.5738 127.844 25.2771C127.169 25.9732 126.362 26.515 125.422 26.9026C124.482 27.2901 123.438 27.4839 122.289 27.4839C121.148 27.4839 120.104 27.2901 119.157 26.9026C118.217 26.515 117.409 25.9732 116.735 25.2771C116.067 24.5738 115.547 23.7413 115.174 22.7797C114.801 21.8108 114.614 20.7487 114.614 19.5933C114.614 18.4451 114.801 17.3865 115.174 16.4177C115.547 15.4489 116.067 14.6164 116.735 13.9203C117.409 13.217 118.217 12.6716 119.157 12.2841C120.104 11.8894 121.148 11.692 122.289 11.692C123.438 11.692 124.482 11.8894 125.422 12.2841C126.362 12.6716 127.169 13.217 127.844 13.9203C128.519 14.6164 129.039 15.4489 129.405 16.4177C129.778 17.3865 129.965 18.4451 129.965 19.5933ZM127.618 19.5933C127.618 18.6747 127.492 17.8494 127.241 17.1174C126.99 16.3854 126.631 15.7647 126.165 15.2551C125.705 14.7456 125.146 14.3545 124.485 14.0818C123.832 13.8091 123.1 13.6727 122.289 13.6727C121.479 13.6727 120.743 13.8091 120.083 14.0818C119.43 14.3545 118.87 14.7456 118.403 15.2551C117.937 15.7647 117.578 16.3854 117.327 17.1174C117.076 17.8494 116.95 18.6747 116.95 19.5933C116.95 20.5191 117.076 21.348 117.327 22.08C117.578 22.8048 117.937 23.422 118.403 23.9315C118.87 24.441 119.43 24.8321 120.083 25.1048C120.743 25.3704 121.479 25.5031 122.289 25.5031C123.1 25.5031 123.832 25.3704 124.485 25.1048C125.146 24.8321 125.705 24.441 126.165 23.9315C126.631 23.422 126.99 22.8048 127.241 22.08C127.492 21.348 127.618 20.5191 127.618 19.5933Z" fill="#201818"/>
<path d="M146.332 19.5933C146.332 20.7487 146.146 21.8001 145.772 22.7474C145.406 23.6947 144.886 24.5092 144.211 25.191C143.537 25.8656 142.73 26.3894 141.789 26.7626C140.849 27.1358 139.805 27.3224 138.657 27.3224H132.844V11.8643H138.657C139.805 11.8643 140.849 12.0508 141.789 12.424C142.73 12.7972 143.537 13.3247 144.211 14.0064C144.886 14.681 145.406 15.4955 145.772 16.45C146.146 17.3973 146.332 18.4451 146.332 19.5933ZM143.985 19.5933C143.985 18.6747 143.86 17.853 143.609 17.1282C143.357 16.3962 142.999 15.779 142.532 15.2767C142.073 14.7671 141.513 14.3796 140.853 14.1141C140.2 13.8485 139.468 13.7158 138.657 13.7158H135.148V25.4708H138.657C139.468 25.4708 140.2 25.3381 140.853 25.0726C141.513 24.807 142.073 24.4231 142.532 23.9207C142.999 23.4112 143.357 22.794 143.609 22.0692C143.86 21.3444 143.985 20.5191 143.985 19.5933Z" fill="#201818"/>
<path d="M151.526 27.3224H149.222V11.8643H151.526V27.3224Z" fill="#201818"/>
<path d="M168 11.8643V27.3224H166.837C166.658 27.3224 166.507 27.2901 166.385 27.2255C166.27 27.1609 166.152 27.0569 166.03 26.9133L157.3 15.6211C157.314 15.8149 157.325 16.0051 157.332 16.1917C157.346 16.3783 157.354 16.5541 157.354 16.7191V27.3224H155.341V11.8643H156.525C156.726 11.8643 156.876 11.8894 156.977 11.9396C157.077 11.9827 157.188 12.0867 157.31 12.2518L166.062 23.5547C166.041 23.3466 166.023 23.1457 166.008 22.9519C166.001 22.751 165.998 22.5644 165.998 22.3921V11.8643H168Z" fill="#201818"/>
<defs>
<linearGradient id="paint0_linear" x1="0.117394" y1="19.9844" x2="52.3795" y2="19.9844" gradientUnits="userSpaceOnUse">
<stop stop-color="#34A936"/>
<stop offset="1" stop-color="#5BAF5A"/>
</linearGradient>
</defs>
</svg>
