<svg width="96" height="96" viewBox="0 0 96 96" fill="none" xmlns="http://www.w3.org/2000/svg">
<rect width="84" height="84" rx="16" fill="#734F15"/>
<rect x="12" y="12" width="84" height="84" rx="16" fill="#FC9C0D"/>
<path d="M39.8243 62.2V79H35.9123L28.4963 70.048V79H23.8403V62.2H27.7523L35.1683 71.152V62.2H39.8243Z" fill="white"/>
<path d="M43.1763 62.2H47.9283V75.232H55.9443V79H43.1763V62.2Z" fill="white"/>
<path d="M65.5047 62.2C67.0247 62.2 68.3447 62.456 69.4647 62.968C70.5847 63.464 71.4487 64.184 72.0567 65.128C72.6647 66.056 72.9687 67.152 72.9687 68.416C72.9687 69.68 72.6647 70.776 72.0567 71.704C71.4487 72.632 70.5847 73.352 69.4647 73.864C68.3447 74.36 67.0247 74.608 65.5047 74.608H62.5767V79H57.8247V62.2H65.5047ZM65.2167 70.864C66.1927 70.864 66.9287 70.656 67.4247 70.24C67.9207 69.808 68.1687 69.2 68.1687 68.416C68.1687 67.632 67.9207 67.024 67.4247 66.592C66.9287 66.16 66.1927 65.944 65.2167 65.944H62.5767V70.864H65.2167Z" fill="white"/>
<g clip-path="url(#clip0)">
<path d="M41.7006 35.8284C42.3479 35.8284 42.8725 36.3531 42.8725 37.0003C42.8108 38.5548 40.5902 38.5543 40.5287 37.0003C40.5287 36.3531 41.0534 35.8284 41.7006 35.8284ZM47.6147 26.3936C38.1873 16.9862 22.0205 23.6892 22.0079 37.0003V49.0676C21.9875 51.4219 24.7224 52.8354 26.631 51.4584L29.0708 49.7302C33.7268 52.7079 40.0646 52.7464 44.7695 49.8387C46.0674 48.9802 44.9159 47.0815 43.5552 47.834C39.3772 50.4177 33.7109 50.2298 29.7245 47.3516C29.3188 47.0656 28.777 47.0661 28.3719 47.3531L25.2763 49.5458C25.0136 49.7318 24.7636 49.6374 24.6684 49.5881C24.5731 49.5388 24.3516 49.3895 24.3516 49.0676V37.0003C24.3516 30.0215 30.0292 24.3439 37.0079 24.3439C47.002 24.2622 53.1732 35.7654 47.5181 44.0249C47.1586 44.5629 47.3031 45.2907 47.8411 45.6504C48.3792 46.0102 49.1069 45.8655 49.4666 45.3275C53.4499 39.552 52.6421 31.2714 47.6147 26.3936ZM35.8412 37.0003C35.8412 37.6475 36.3659 38.1722 37.0131 38.1722C38.5676 38.1105 38.5671 35.8899 37.0131 35.8284C36.3659 35.8284 35.8412 36.3531 35.8412 37.0003ZM31.1537 37.0003C31.1537 37.6475 31.6783 38.1722 32.3255 38.1722C33.8801 38.1105 33.8796 35.8899 32.3255 35.8284C31.6783 35.8284 31.1537 36.3531 31.1537 37.0003Z" fill="white"/>
</g>
<defs>
<clipPath id="clip0">
<rect width="30" height="30" fill="white" transform="translate(22 22)"/>
</clipPath>
</defs>
</svg>
