<svg width="38" height="38" viewBox="0 0 38 38" fill="none" xmlns="http://www.w3.org/2000/svg">
<rect width="32" height="31.9999" rx="8" fill="#734F15"/>
<rect x="5" y="5" width="32" height="31.9999" rx="8" fill="#FC9C0D"/>
<path d="M24.0174 20.2483C24.433 20.2483 24.7698 20.5849 24.7698 21.0002C24.7302 21.9977 23.3046 21.9974 23.2651 21.0002C23.2651 20.585 23.6019 20.2483 24.0174 20.2483ZM27.8142 14.1943C21.762 8.15782 11.3831 12.4589 11.3751 21.0002V28.7434C11.362 30.2541 13.1177 31.1611 14.343 30.2775L15.9093 29.1686C18.8984 31.0793 22.9671 31.104 25.9876 29.2382C26.8208 28.6873 26.0816 27.469 25.208 27.9519C22.5259 29.6097 18.8882 29.4891 16.329 27.6423C16.0686 27.4588 15.7207 27.4591 15.4606 27.6433L13.4733 29.0503C13.3046 29.1696 13.1442 29.109 13.083 29.0774C13.0219 29.0458 12.8797 28.95 12.8797 28.7434V21.0002C12.8797 16.5222 16.5246 12.8791 21.0048 12.8791C27.4208 12.8266 31.3827 20.2078 27.7522 25.5077C27.5214 25.8529 27.6142 26.3199 27.9595 26.5507C28.305 26.7816 28.7722 26.6887 29.0031 26.3435C31.5603 22.6376 31.0417 17.3242 27.8142 14.1943ZM20.2558 21.0002C20.2558 21.4155 20.5926 21.7522 21.0081 21.7522C22.0061 21.7126 22.0058 20.2877 21.0081 20.2483C20.5926 20.2483 20.2558 20.585 20.2558 21.0002ZM17.2465 21.0002C17.2465 21.4155 17.5833 21.7522 17.9988 21.7522C18.9968 21.7126 18.9965 20.2877 17.9988 20.2483C17.5833 20.2483 17.2465 20.585 17.2465 21.0002Z" fill="white"/>
</svg>
