<svg width="38" height="38" viewBox="0 0 38 38" fill="none" xmlns="http://www.w3.org/2000/svg">
<rect width="32" height="31.9999" rx="8" fill="#C37CFF"/>
<rect x="6" y="6" width="32" height="31.9999" rx="8" fill="#521FD1"/>
<path d="M27.8242 16.2287C26.4855 16.0976 24.3885 15.9414 21.9999 15.9414C19.6113 15.9414 17.5142 16.0976 16.1756 16.2287C15.1316 16.3309 14.3 17.1266 14.1531 18.1637C13.971 19.4497 13.8786 20.726 13.8786 21.9572C13.8786 23.1884 13.971 24.4646 14.1531 25.7506C14.3 26.7878 15.1316 27.5834 16.1756 27.6856C17.5142 27.8167 19.6113 27.9729 21.9999 27.9729C24.3885 27.9729 26.4856 27.8167 27.8242 27.6856C28.8681 27.5834 29.6998 26.7878 29.8466 25.7506C29.9049 25.3394 30.2854 25.0532 30.6966 25.1115C31.1078 25.1697 31.3939 25.5503 31.3357 25.9615C31.0912 27.6879 29.7075 29.0124 27.9707 29.1824C26.5987 29.3167 24.4492 29.4768 21.9998 29.4768C19.5505 29.4768 17.401 29.3167 16.029 29.1824C14.2922 29.0124 12.9085 27.6879 12.664 25.9615C12.2787 23.227 12.2787 20.6874 12.664 17.9528C12.9085 16.2264 14.2922 14.9019 16.029 14.7319C17.4009 14.5976 19.5505 14.4375 21.9998 14.4375C24.4492 14.4375 26.5987 14.5976 27.9707 14.7319C29.7075 14.9019 31.0912 16.2264 31.3357 17.9529C31.5277 19.3085 31.625 20.6557 31.625 21.9572C31.5857 22.9539 30.1608 22.9551 30.1211 21.9572C30.1211 20.726 30.0287 19.4497 29.8466 18.1638C29.6998 17.1266 28.8681 16.3309 27.8242 16.2287ZM24.914 20.7491C25.886 21.2918 25.8858 22.7542 24.914 23.2968L21.6861 25.1699C21.2268 25.4364 20.6779 25.4374 20.2179 25.1723C19.7563 24.9066 19.4808 24.4294 19.4808 23.8961V20.1498C19.4808 19.6164 19.7563 19.1393 20.2179 18.8735C20.6779 18.6085 21.2268 18.6095 21.6861 18.8759L24.914 20.7491ZM24.1128 22.023L20.9847 20.2078V23.8382L24.1128 22.023Z" fill="white"/>
</svg>
