<svg width="96" height="96" viewBox="0 0 96 96" fill="none" xmlns="http://www.w3.org/2000/svg">
<rect width="84" height="84" rx="16" fill="#003BD1"/>
<rect x="12" y="12" width="84" height="84" rx="16" fill="#4791FF"/>
<path d="M35.0025 75.736H27.8985L26.5785 79H21.7305L29.1465 62.2H33.8265L41.2665 79H36.3225L35.0025 75.736ZM33.6105 72.232L31.4505 66.856L29.2905 72.232H33.6105Z" fill="white"/>
<path d="M42.6137 62.2H47.3657V79H42.6137V62.2Z" fill="white"/>
<path d="M58.4985 79.336C56.0025 79.336 54.0585 78.656 52.6665 77.296C51.2905 75.936 50.6025 74.008 50.6025 71.512V62.2H55.3545V71.368C55.3545 74.056 56.4185 75.4 58.5465 75.4C60.6585 75.4 61.7145 74.056 61.7145 71.368V62.2H66.3945V71.512C66.3945 74.008 65.6985 75.936 64.3065 77.296C62.9305 78.656 60.9945 79.336 58.4985 79.336Z" fill="white"/>
<path d="M42.3906 28.4453C43.3614 28.4453 44.1484 29.2323 44.1484 30.2031C44.0559 32.5348 40.725 32.5342 40.6328 30.2031C40.6328 29.2323 41.4198 28.4453 42.3906 28.4453ZM49.6562 36.7656V26.6875C49.6562 25.3952 48.6048 24.3438 47.3125 24.3438H26.6875C25.3952 24.3438 24.3438 25.3952 24.3438 26.6875V37.083L28.6705 32.7562C30.0412 31.3855 32.2716 31.3855 33.6424 32.7562L39.879 38.9928L41.1937 37.6781C42.5645 36.3074 44.7948 36.3074 46.1656 37.6781L51.6568 43.1693C51.8765 43.389 52 43.6871 52 43.9979V47.3125C52 49.8972 49.8972 52 47.3125 52H26.6875C24.1028 52 22 49.8972 22 47.3125V26.6875C22 24.1028 24.1028 22 26.6875 22H47.3125C49.8972 22 52 24.1028 52 26.6875V36.7656C51.9381 38.3205 49.7176 38.3193 49.6562 36.7656ZM24.3438 40.3976V47.3125C24.3438 48.6048 25.3952 49.6562 26.6875 49.6562H47.3125C48.6048 49.6562 49.6562 48.6048 49.6562 47.3125V44.4834L44.5083 39.3354C44.0515 38.8785 43.308 38.8785 42.8511 39.3354L37.0512 45.1353C36.5936 45.593 35.8516 45.593 35.3939 45.1353C34.9362 44.6777 34.9363 43.9357 35.3939 43.4781L38.2217 40.6502L31.985 34.4136C31.5488 33.9589 30.764 33.9589 30.3278 34.4136L24.3438 40.3976Z" fill="white"/>
</svg>
