<svg width="96" height="96" viewBox="0 0 96 96" fill="none" xmlns="http://www.w3.org/2000/svg">
<rect width="84" height="84" rx="16" fill="#07AE91"/>
<rect x="12" y="12" width="84" height="84" rx="16" fill="#14D5B2"/>
<path d="M35.2993 75.736H28.1953L26.8753 79H22.0273L29.4433 62.2H34.1233L41.5633 79H36.6193L35.2993 75.736ZM33.9073 72.232L31.7473 66.856L29.5873 72.232H33.9073Z" fill="white"/>
<path d="M48.8145 79.336C47.4545 79.336 46.1345 79.168 44.8545 78.832C43.5745 78.496 42.5345 78.048 41.7345 77.488L43.2945 73.984C44.0465 74.48 44.9185 74.88 45.9105 75.184C46.9025 75.488 47.8785 75.64 48.8385 75.64C50.6625 75.64 51.5745 75.184 51.5745 74.272C51.5745 73.792 51.3105 73.44 50.7825 73.216C50.2705 72.976 49.4385 72.728 48.2865 72.472C47.0225 72.2 45.9665 71.912 45.1185 71.608C44.2705 71.288 43.5425 70.784 42.9345 70.096C42.3265 69.408 42.0225 68.48 42.0225 67.312C42.0225 66.288 42.3025 65.368 42.8625 64.552C43.4225 63.72 44.2545 63.064 45.3585 62.584C46.4785 62.104 47.8465 61.864 49.4625 61.864C50.5665 61.864 51.6545 61.992 52.7265 62.248C53.7985 62.488 54.7425 62.848 55.5585 63.328L54.0945 66.856C52.4945 65.992 50.9425 65.56 49.4385 65.56C48.4945 65.56 47.8065 65.704 47.3745 65.992C46.9425 66.264 46.7265 66.624 46.7265 67.072C46.7265 67.52 46.9825 67.856 47.4945 68.08C48.0065 68.304 48.8305 68.536 49.9665 68.776C51.2465 69.048 52.3025 69.344 53.1345 69.664C53.9825 69.968 54.7105 70.464 55.3185 71.152C55.9425 71.824 56.2545 72.744 56.2545 73.912C56.2545 74.92 55.9745 75.832 55.4145 76.648C54.8545 77.464 54.0145 78.12 52.8945 78.616C51.7745 79.096 50.4145 79.336 48.8145 79.336Z" fill="white"/>
<path d="M69.7056 75.736H62.6016L61.2816 79H56.4336L63.8496 62.2H68.5296L75.9696 79H71.0256L69.7056 75.736ZM68.3136 72.232L66.1536 66.856L63.9936 72.232H68.3136Z" fill="white"/>
<g clip-path="url(#clip0)">
<path d="M42.2442 24.0139C42.653 23.5121 43.3911 23.4365 43.8929 23.8452C46.0809 25.6271 47.4964 28.3091 47.7764 31.2036C47.8387 31.8478 47.367 32.4205 46.7228 32.4829C46.089 32.5474 45.5034 32.0756 45.4436 31.4293C45.2234 29.1537 44.1188 27.0518 42.413 25.6627C41.9111 25.2539 41.8356 24.5157 42.2442 24.0139ZM27.2784 32.4828C27.9122 32.5475 28.4979 32.0754 28.5577 31.4292C28.7778 29.1536 29.8824 27.0518 31.5883 25.6626C32.0901 25.2539 32.1657 24.5158 31.757 24.0139C31.3482 23.5121 30.6101 23.4366 30.1083 23.8452C27.9203 25.6271 26.5048 28.3091 26.2248 31.2036C26.1625 31.8477 26.6342 32.4205 27.2784 32.4828ZM47.8404 37C47.8404 38.5812 47.5058 40.1068 46.8458 41.5346C46.5735 42.1281 45.8643 42.3759 45.2903 42.1067C44.7029 41.8352 44.4468 41.1387 44.7183 40.5513C45.0699 39.7906 45.3035 38.994 45.4168 38.1719H43.0409C41.6363 44.7793 32.3621 44.7746 30.9602 38.1719H28.5849C29.3249 44.0521 36.1841 47.4407 41.324 44.3113C41.8805 43.9808 42.5995 44.1641 42.93 44.7205C43.2605 45.277 43.0773 45.996 42.5208 46.3265C41.1904 47.1166 39.706 47.6095 38.1724 47.7763V49.6563H41.7466C43.3014 49.7181 43.3003 51.9387 41.7466 52H32.3717C30.8168 51.9381 30.818 49.7176 32.3717 49.6563H35.8287V47.7769C30.4006 47.1908 26.1607 42.5812 26.1607 37C26.1607 36.3528 26.6854 35.8282 27.3326 35.8282H30.8482V32.2539C31.1872 24.09 42.817 24.0964 43.1529 32.2539V35.8282H46.6685C47.3157 35.8281 47.8404 36.3527 47.8404 37ZM40.8092 32.2539C40.5994 27.2 33.3999 27.2039 33.192 32.2539V37C33.4017 42.0538 40.6013 42.0499 40.8092 37V32.2539ZM26.6624 22.26C26.1588 21.8535 25.421 21.9322 25.0145 22.4358C23.6341 24.1459 22.6376 26.0822 22.0527 28.1907C21.8797 28.8143 22.2451 29.4601 22.8687 29.6331C23.4755 29.8065 24.1403 29.4461 24.3112 28.8171C24.8099 27.0191 25.6602 25.3674 26.8383 23.9079C27.2448 23.4043 27.1661 22.6665 26.6624 22.26ZM51.9485 28.1907C51.3636 26.0822 50.3671 24.1459 48.9867 22.4358C48.5801 21.9322 47.8423 21.8535 47.3387 22.26C46.8351 22.6666 46.7564 23.4044 47.1629 23.908C48.341 25.3675 49.1913 27.0192 49.69 28.8172C49.8609 29.4462 50.5257 29.8066 51.1325 29.6332C51.7561 29.4601 52.1215 28.8143 51.9485 28.1907Z" fill="white"/>
</g>
<defs>
<clipPath id="clip0">
<rect width="30" height="30" fill="white" transform="translate(22 22)"/>
</clipPath>
</defs>
</svg>
