<svg width="39" height="42" viewBox="0 0 39 42" fill="none" xmlns="http://www.w3.org/2000/svg">
<path d="M36.0938 13.7812C35.5103 13.7833 34.9441 13.9797 34.4846 14.3394C34.0252 14.6991 33.6987 15.2017 33.5568 15.7677C33.5279 15.7598 33.4985 15.7539 33.4688 15.75H31.5001C31.3581 15.75 31.2199 15.796 31.1063 15.8812L26.9063 19.0312V14.0529L28.8147 12.1445C29.206 12.6193 29.7525 12.9406 30.3576 13.0516C30.9627 13.1627 31.5877 13.0564 32.122 12.7515C32.6564 12.4466 33.0659 11.9627 33.2783 11.3853C33.4906 10.8078 33.4921 10.1739 33.2825 9.5955C33.0729 9.01706 32.6657 8.53125 32.1328 8.22383C31.5998 7.91642 30.9754 7.80716 30.3698 7.91535C29.7641 8.02353 29.2161 8.3422 28.8226 8.81511C28.429 9.28802 28.2152 9.88475 28.2188 10.5C28.2226 10.617 28.2345 10.7337 28.2543 10.8491L25.7861 13.3173C25.663 13.4403 25.5939 13.6072 25.5938 13.7812V18.7595L24.2813 20.072V4.59373C24.2813 4.41969 24.2122 4.25277 24.0891 4.1297C23.966 4.00663 23.7991 3.93748 23.6251 3.93748C23.451 3.93748 23.2841 4.00663 23.161 4.1297C23.038 4.25277 22.9688 4.41969 22.9688 4.59373V21.3845L22.6971 21.6562H21.6563V2.13936C21.6564 2.03435 21.6313 1.93086 21.5831 1.83756C21.535 1.74427 21.4651 1.6639 21.3794 1.6032C20.5008 0.982719 19.4506 0.651693 18.3751 0.656235C17.3264 0.656453 16.3017 0.97075 15.4333 1.55862C14.5648 2.14649 13.8923 2.98098 13.5024 3.95455C13.379 3.94339 13.2563 3.93748 13.1251 3.93748C12.0811 3.93853 11.0802 4.3537 10.342 5.0919C9.6038 5.8301 9.18862 6.83102 9.18758 7.87499C8.40907 7.87194 7.64005 8.04585 6.93861 8.38358C5.6996 8.97046 4.73972 10.0193 4.26464 11.3053C3.78955 12.5913 3.83705 14.0123 4.39695 15.2637C3.76844 15.6639 3.23243 16.1935 2.82463 16.8171C2.41684 17.4408 2.14663 18.1441 2.03201 18.8804C1.91738 19.6166 1.96097 20.3689 2.15987 21.087C2.35877 21.805 2.70842 22.4725 3.18551 23.0449C1.9701 23.9904 1.12609 25.3334 0.801341 26.8387C0.476588 28.3439 0.691789 29.9155 1.40925 31.278C2.12671 32.6406 3.30069 33.7072 4.72556 34.2912C6.15042 34.8752 7.73533 34.9392 9.20267 34.4721C9.29061 35.4521 9.74177 36.3638 10.4675 37.0281C11.1933 37.6924 12.1412 38.0613 13.1251 38.0625C13.2563 38.0625 13.379 38.0566 13.5024 38.0454C13.8923 39.019 14.5648 39.8535 15.4333 40.4413C16.3017 41.0292 17.3264 41.3435 18.3751 41.3437C19.4506 41.3483 20.5008 41.0173 21.3794 40.3968C21.4651 40.3361 21.535 40.2557 21.5831 40.1624C21.6313 40.0691 21.6564 39.9656 21.6563 39.8606V22.9687H22.9688V36.75C22.9688 36.924 23.038 37.091 23.161 37.214C23.2841 37.3371 23.451 37.4062 23.6251 37.4062C23.7991 37.4062 23.966 37.3371 24.0891 37.214C24.2122 37.091 24.2813 36.924 24.2813 36.75V21.9279L25.5938 20.6154V30.8437C25.5939 31.0178 25.663 31.1847 25.7861 31.3077L28.2543 33.7759C28.2345 33.8913 28.2226 34.0079 28.2188 34.125C28.2111 34.7529 28.426 35.3633 28.8254 35.848C29.2248 36.3326 29.7829 36.6602 30.4007 36.7726C31.0186 36.885 31.6563 36.775 32.2008 36.4621C32.7453 36.1491 33.1614 35.6535 33.3753 35.0631C33.5892 34.4727 33.5872 33.8255 33.3695 33.2365C33.1518 32.6474 32.7326 32.1544 32.1861 31.845C31.6397 31.5355 31.0013 31.4295 30.3842 31.5459C29.767 31.6622 29.211 31.9933 28.8147 32.4804L26.9063 30.572V23.8967L29.0674 26.0577C29.1904 26.1808 29.3573 26.2499 29.5313 26.25H30.8438C30.8735 26.246 30.9029 26.2401 30.9318 26.2323C31.0876 26.8535 31.4651 27.3964 31.9933 27.7586C32.5215 28.1208 33.164 28.2774 33.7996 28.1989C34.4353 28.1205 35.0203 27.8123 35.4445 27.3324C35.8688 26.8526 36.1029 26.2342 36.1029 25.5937C36.1029 24.9533 35.8688 24.3349 35.4445 23.855C35.0203 23.3752 34.4353 23.067 33.7996 22.9885C33.164 22.91 32.5215 23.0666 31.9933 23.4289C31.4651 23.7911 31.0876 24.334 30.9318 24.9552C30.9029 24.9473 30.8735 24.9414 30.8438 24.9375H29.803L26.9063 22.0408V20.6719L31.7186 17.0625H33.4688C33.4985 17.0585 33.5279 17.0526 33.5568 17.0448C33.6771 17.5207 33.9287 17.9534 34.2829 18.2933C34.6371 18.6333 35.0797 18.8669 35.5602 18.9676C36.0408 19.0683 36.5399 19.032 37.0008 18.8629C37.4617 18.6938 37.8659 18.3986 38.1672 18.011C38.4685 17.6234 38.6549 17.1589 38.7052 16.6705C38.7554 16.1822 38.6675 15.6895 38.4514 15.2486C38.2353 14.8078 37.8997 14.4365 37.4829 14.1771C37.0661 13.9176 36.5848 13.7805 36.0938 13.7812ZM30.8438 9.18749C31.1034 9.18749 31.3572 9.26446 31.573 9.40868C31.7889 9.5529 31.9571 9.75788 32.0564 9.99771C32.1558 10.2375 32.1818 10.5014 32.1311 10.756C32.0805 11.0106 31.9555 11.2445 31.7719 11.4281C31.5884 11.6116 31.3545 11.7366 31.0999 11.7873C30.8453 11.8379 30.5814 11.8119 30.3416 11.7126C30.1017 11.6132 29.8967 11.445 29.7525 11.2292C29.6083 11.0133 29.5313 10.7596 29.5313 10.5C29.5313 10.1519 29.6696 9.81805 29.9158 9.57191C30.1619 9.32577 30.4957 9.18749 30.8438 9.18749ZM20.3438 39.5062C19.7462 39.8539 19.0664 40.0351 18.3751 40.0312C17.5117 40.0314 16.6723 39.7475 15.9863 39.2233C15.3004 38.6991 14.8059 37.9637 14.5793 37.1306C14.5566 37.0473 14.5175 36.9692 14.4646 36.901C14.4116 36.8328 14.3456 36.7757 14.2705 36.733C14.1954 36.6903 14.1126 36.6629 14.0268 36.6523C13.9411 36.6417 13.8541 36.6481 13.7708 36.6712C13.5601 36.7262 13.3429 36.7526 13.1251 36.75C12.4289 36.75 11.7612 36.4734 11.2689 35.9811C10.7766 35.4889 10.5001 34.8212 10.5001 34.125C10.4984 33.9537 10.5154 33.7827 10.5506 33.6151C10.5766 33.4937 10.5677 33.3675 10.5248 33.251C10.482 33.1345 10.407 33.0325 10.3085 32.957C10.2101 32.8814 10.0922 32.8353 9.9686 32.824C9.84499 32.8127 9.72072 32.8367 9.6102 32.8932C8.39781 33.5035 6.99619 33.6204 5.69942 33.2196C4.40264 32.8188 3.3115 31.9313 2.65492 30.7434C1.99834 29.5554 1.82735 28.1594 2.17784 26.8481C2.52833 25.5368 3.37305 24.4122 4.53477 23.7103C4.62406 23.6573 4.69952 23.584 4.75494 23.4962C4.81037 23.4084 4.84418 23.3087 4.85359 23.2053C4.86301 23.102 4.84776 22.9978 4.80911 22.9015C4.77045 22.8051 4.70949 22.7193 4.63123 22.6511C4.13705 22.2211 3.75814 21.6745 3.52893 21.0608C3.29971 20.4471 3.22747 19.7859 3.31875 19.1373C3.41003 18.4886 3.66194 17.873 4.0516 17.3464C4.44127 16.8199 4.95633 16.399 5.54998 16.1221C5.63424 16.0829 5.70922 16.0264 5.76998 15.9561C5.83074 15.8858 5.87588 15.8035 5.90243 15.7145C5.92898 15.6254 5.93633 15.5318 5.92399 15.4397C5.91166 15.3477 5.87991 15.2592 5.83086 15.1804C5.541 14.7097 5.35375 14.1832 5.28137 13.6353C5.20898 13.0873 5.25309 12.5302 5.4108 12.0005C5.56851 11.4707 5.83627 10.9802 6.19657 10.5611C6.55688 10.1419 7.00161 9.80357 7.50167 9.56811C8.02738 9.31468 8.60398 9.1845 9.18758 9.18749C9.39249 9.18587 9.59708 9.20389 9.79855 9.2413C9.90547 9.26188 10.0158 9.25554 10.1197 9.22285C10.2235 9.19015 10.3176 9.13213 10.3935 9.054C10.4693 8.97588 10.5245 8.88012 10.5541 8.77534C10.5837 8.67056 10.5868 8.56006 10.5631 8.4538C10.4775 8.06958 10.4792 7.67106 10.568 7.28759C10.6569 6.90411 10.8306 6.54545 11.0764 6.23803C11.3223 5.9306 11.6339 5.68224 11.9885 5.51125C12.3431 5.34025 12.7314 5.25097 13.1251 5.24998C13.343 5.24819 13.5602 5.27556 13.7708 5.33136C13.8541 5.35446 13.9411 5.36089 14.0268 5.35029C14.1126 5.33969 14.1954 5.31226 14.2705 5.26958C14.3456 5.2269 14.4116 5.16981 14.4646 5.10158C14.5175 5.03335 14.5566 4.95533 14.5793 4.87198C14.8054 4.03842 15.2997 3.30247 15.9857 2.77775C16.6717 2.25303 17.5114 1.96873 18.3751 1.96874C19.0664 1.96483 19.7462 2.1461 20.3438 2.49374V39.5062ZM30.8438 32.8125C31.1034 32.8125 31.3572 32.8895 31.573 33.0337C31.7889 33.1779 31.9571 33.3829 32.0564 33.6227C32.1558 33.8625 32.1818 34.1264 32.1311 34.381C32.0805 34.6356 31.9555 34.8695 31.7719 35.0531C31.5884 35.2366 31.3545 35.3616 31.0999 35.4123C30.8453 35.4629 30.5814 35.4369 30.3416 35.3376C30.1017 35.2382 29.8967 35.07 29.7525 34.8542C29.6083 34.6383 29.5313 34.3846 29.5313 34.125C29.5313 33.7769 29.6696 33.443 29.9158 33.1969C30.1619 32.9508 30.4957 32.8125 30.8438 32.8125ZM33.4688 24.2812C33.7284 24.2812 33.9822 24.3582 34.198 24.5024C34.4139 24.6466 34.5821 24.8516 34.6814 25.0915C34.7808 25.3313 34.8068 25.5952 34.7561 25.8498C34.7055 26.1044 34.5805 26.3383 34.3969 26.5218C34.2134 26.7054 33.9795 26.8304 33.7249 26.881C33.4703 26.9317 33.2064 26.9057 32.9666 26.8063C32.7267 26.707 32.5217 26.5388 32.3775 26.3229C32.2333 26.1071 32.1563 25.8533 32.1563 25.5937C32.1563 25.2456 32.2946 24.9118 32.5408 24.6657C32.7869 24.4195 33.1207 24.2812 33.4688 24.2812ZM36.0938 17.7187C35.8342 17.7187 35.5805 17.6418 35.3646 17.4975C35.1488 17.3533 34.9806 17.1483 34.8812 16.9085C34.7819 16.6687 34.7559 16.4048 34.8065 16.1502C34.8572 15.8956 34.9822 15.6617 35.1658 15.4782C35.3493 15.2946 35.5832 15.1696 35.8378 15.119C36.0924 15.0683 36.3563 15.0943 36.5961 15.1936C36.8359 15.293 37.0409 15.4612 37.1851 15.677C37.3294 15.8929 37.4063 16.1466 37.4063 16.4062C37.4063 16.7543 37.2681 17.0882 37.0219 17.3343C36.7758 17.5805 36.4419 17.7187 36.0938 17.7187Z" fill="url(#paint0_linear)"/>
<defs>
<linearGradient id="paint0_linear" x1="19.6864" y1="0.656189" x2="19.6864" y2="41.3438" gradientUnits="userSpaceOnUse">
<stop offset="0.65625" stop-color="#6C23F5"/>
<stop offset="1" stop-color="#3A71FF"/>
</linearGradient>
</defs>
</svg>
