<svg width="180" height="37" viewBox="0 0 180 37" fill="none" xmlns="http://www.w3.org/2000/svg">
<path d="M15.1335 31.8014C15.1607 32.1282 10.9684 31.4814 10.759 31.4287C6.72673 30.3955 4.1208 28.1759 2.81698 23.6704C1.12848 17.8271 4.77441 10.6969 9.01267 7.07482C11.1009 5.29838 13.4384 3.83775 15.9505 2.73954C25.2764 -1.17532 32.4525 0.950614 36.8082 3.29102C41.5264 5.82717 44.0728 9.34373 44.0983 9.37778L44.0268 9.62799C44.3434 9.59905 41.1911 6.31908 36.5648 3.8408C32.3095 1.55657 25.3036 -0.200013 16.153 3.64166C16.0135 3.69442 3.11485 8.56417 2.80507 21.279C2.84031 22.8666 3.32227 24.4122 4.19569 25.7385C6.1344 28.7342 7.92672 30.6474 12.5224 31.0014L15.1335 31.8014Z" fill="white"/>
<path d="M43.5264 36.9095C42.1471 36.8869 40.7801 36.6444 39.4771 36.1912C36.814 35.2977 34.2839 34.0484 31.9555 32.4772C29.6814 30.9453 27.3955 29.9428 24.6057 30.736C21.6492 31.587 18.6705 32.5062 15.5641 32.5062C11.7633 32.5062 7.971 31.3538 5.16081 29.3436C1.91488 27.0202 0.139574 23.7641 0.0255321 19.9258C-0.0374461 17.7556 0.491909 15.5906 1.59828 13.4884C2.67742 11.4459 6.11569 6.24255 14.7046 2.2545C24.364 -2.23227 36.0831 0.12856 43.2013 7.99573C47.6268 12.891 50.2617 19.1956 50.8081 26.2254C51.2608 32.05 49.5723 35.4729 45.9264 36.5759C45.147 36.8039 44.3384 36.9163 43.5264 36.9095ZM28.2993 29.4509C28.7081 29.4477 29.1134 29.527 29.4908 29.6841C30.5699 30.1351 31.4636 30.8755 32.3282 31.5904C32.8887 32.0781 33.4818 32.5268 34.1035 32.9334C35.8643 34.0041 37.7406 34.8721 39.6967 35.5206C41.2694 36.05 43.5894 36.5419 45.7273 35.8968C49.8889 34.6372 50.4115 30.0789 50.1153 26.2764C49.5809 19.405 47.0141 13.2467 42.689 8.46892C35.7716 0.824725 24.3845 -1.38802 14.9973 2.9762C9.17098 5.68256 4.39145 9.68763 2.21275 13.8238C1.16424 15.8152 0.662121 17.8629 0.723397 19.9088C0.857864 24.4671 3.42976 27.2449 5.56421 28.7717C8.25865 30.6985 11.9029 31.8049 15.5641 31.8049C18.9241 31.8049 22.01 30.7955 25.7206 30.0006L25.8415 29.9683C26.0117 29.924 26.1819 29.8747 26.3521 29.8253C26.9819 29.6381 27.6355 29.4509 28.2993 29.4509Z" fill="white"/>
<path d="M40.7691 33.1768C38.5563 31.2381 36.9087 28.8432 36.4576 26.0024C36.4576 26.0024 36.221 24.925 36.6908 24.3003C36.713 24.4977 37.7308 22.3071 35.9861 21.8714C34.9649 21.6161 34.8832 20.5097 34.7453 19.6501C33.2866 10.5166 25.5931 4.93875 16.3948 5.88513C8.01022 6.74639 3.04516 12.4774 2.67409 20.0842C2.60771 21.4322 2.74729 22.8177 3.26132 24.0756C5.57279 29.7471 12.9549 29.8339 18.0697 29.0798C21.5727 28.5692 24.9905 27.5241 28.3471 26.4245C29.8943 25.9139 31.3036 25.2211 32.7947 24.639C33.6015 24.3241 34.7691 24.0177 35.3308 24.9011C35.644 25.3964 35.6917 26.1215 35.8687 26.6764C36.7419 29.4168 38.5802 32.1709 40.8474 33.9955C42.2755 35.1444 43.901 35.9325 45.7069 35.6159C43.9537 35.6347 42.0559 34.3036 40.7691 33.1768ZM34.027 22.6509C33.7479 23.0986 33.0687 23.7199 32.616 23.9054C28.6503 25.5295 24.5628 26.8385 20.3914 27.8203C16.834 28.6424 12.9412 29.1717 9.34127 28.2117C7.00597 27.5888 4.68769 26.079 3.85706 23.7454C3.1628 21.6944 3.10819 19.4809 3.70047 17.3982C4.31323 15.3097 5.08939 13.0187 6.52087 11.4408C12.2808 5.10215 24.8254 4.51152 30.1802 11.4408C31.4517 13.0834 32.427 14.3668 33.244 16.2748C33.7632 17.4901 34.8474 21.3471 34.0338 22.6509H34.027Z" fill="white"/>
<path d="M44.0796 36.1674C43.0483 36.1546 42.0213 36.0325 41.0158 35.8031C38.0879 35.1712 35.276 34.0882 32.6806 32.593C32.1801 32.3053 31.7035 31.9887 31.244 31.684C29.8312 30.7479 28.4968 29.8628 26.6993 29.9308C25.1062 29.9921 23.5317 30.3972 22.01 30.7819C21.0313 31.0321 20.0185 31.2925 18.999 31.4627C16.2398 31.9257 13.0858 32.2219 9.63735 31.1615C3.86038 29.3828 -0.531075 24.4024 0.183813 18.5046C0.679128 14.4195 4.05442 10.874 9.82799 7.55487C14.7267 4.75489 19.5181 3.12937 24.0883 2.73618C33.1469 1.95321 42.5817 7.19061 47.5604 15.7659C49.8566 19.7216 51.0038 24.0654 50.8744 28.3258C50.7808 31.4287 49.8974 33.6466 48.2515 34.9163C47.1655 35.7538 45.7885 36.1674 44.0796 36.1674ZM26.8883 29.2177C28.8083 29.2177 30.2431 30.1708 31.6338 31.09C32.0848 31.3896 32.5512 31.6993 33.0329 31.9768C35.5622 33.4337 38.3023 34.4891 41.1554 35.1053C44.1375 35.7487 46.3128 35.5019 47.8038 34.3512C49.2949 33.2006 50.0642 31.1802 50.151 28.2985C50.2753 24.1709 49.1621 19.9582 46.9323 16.1165C42.0881 7.77614 32.9308 2.68172 24.1428 3.43916C19.6781 3.82383 14.982 5.41872 10.1854 8.17614C4.60761 11.3846 1.56593 14.8042 0.890191 18.6339C-0.0595879 24.0364 3.83314 29.0185 9.50118 30.4296C12.572 31.1775 15.7628 31.2933 18.8798 30.77C19.8687 30.5998 20.8662 30.3479 21.8296 30.0994C23.3904 29.6994 25.0023 29.284 26.6704 29.2211L26.8883 29.2177Z" fill="white"/>
<path d="M44.0779 36.2865C43.037 36.2733 42.0004 36.1506 40.9852 35.9205C38.0471 35.2859 35.2255 34.1989 32.621 32.6984C32.1103 32.4074 31.6389 32.0908 31.1793 31.7844C29.7836 30.8585 28.4695 29.987 26.7027 30.0517C25.1249 30.1129 23.5572 30.5146 22.0406 30.9027C21.0568 31.1563 20.0424 31.4133 19.0177 31.5836C16.3232 32.0363 13.0977 32.3546 9.60841 31.2789C3.31059 29.3402 -0.604271 24.084 0.0765738 18.496C0.554868 14.5454 3.72761 10.9352 9.77862 7.45781C14.6824 4.63741 19.4943 3.00848 24.0764 2.61189C33.181 1.82552 42.6583 7.08504 47.6608 15.7011C49.9689 19.6756 51.1195 24.0415 50.9902 28.3223C50.8949 31.4627 49.9978 33.7095 48.3213 35.0031C47.2081 35.8627 45.8209 36.2797 44.0796 36.2797L44.0779 36.2865ZM26.8985 29.8185C28.6329 29.8185 29.9333 30.6814 31.3087 31.5938C31.7665 31.8985 32.2397 32.2133 32.7384 32.501C35.3223 33.9879 38.1208 35.0656 41.0345 35.6959C42.0335 35.9226 43.0536 36.0435 44.0779 36.0567C45.7647 36.0567 47.106 35.655 48.1766 34.8295C49.7936 33.5801 50.66 31.3929 50.7536 28.3274C50.8812 24.0875 49.7408 19.7675 47.4549 15.8305C42.4983 7.2927 33.1129 2.08083 24.0951 2.857C19.5436 3.25018 14.7641 4.8706 9.88926 7.67398C3.90973 11.1122 0.774442 14.6646 0.304659 18.5352C-0.359165 24.0092 3.49442 29.1615 9.67479 31.0661C13.1199 32.1282 16.313 31.8116 18.9768 31.364C19.9981 31.1938 21.0024 30.9334 21.9777 30.6831C23.5096 30.29 25.0891 29.8848 26.6925 29.8219L26.8985 29.8185ZM44.0779 35.5818C43.0878 35.5689 42.1018 35.4508 41.1367 35.2295C38.2715 34.6084 35.5199 33.5467 32.9801 32.0823C32.4984 31.8031 32.0303 31.4933 31.5793 31.1938C30.1478 30.244 28.6687 29.2653 26.6755 29.3402C25.021 29.4032 23.4143 29.8151 21.8619 30.2151C20.8934 30.4636 19.8943 30.7257 18.8985 30.8874C15.766 31.417 12.5584 31.3011 9.47224 30.547C3.57442 29.0712 -0.163423 23.9445 0.779547 18.622C1.46039 14.7565 4.5242 11.3029 10.1327 8.08248C14.9445 5.31655 19.6645 3.71827 24.1393 3.33018C32.9733 2.56934 42.1817 7.68759 47.0413 16.0671C49.283 19.9258 50.3995 24.1606 50.2753 28.3104C50.1868 31.2278 49.3817 33.2942 47.8821 34.4516C46.9068 35.2023 45.6507 35.5767 44.0779 35.5767V35.5818ZM26.8951 29.1138C28.8491 29.1138 30.2993 30.0772 31.7052 31.0099C32.158 31.3095 32.621 31.6176 33.0976 31.8916C35.6162 33.3424 38.3449 34.3932 41.186 35.0065C44.1324 35.6431 46.7553 35.4303 48.2191 34.3001C49.683 33.1699 50.4319 31.1836 50.5204 28.3427C50.6447 24.2355 49.0566 20.0177 46.837 16.1965C42.0166 7.89525 32.9035 2.82466 24.1598 3.57699C19.7122 3.95996 15.0313 5.54974 10.2501 8.29865C4.70292 11.4884 1.68167 14.8824 1.00933 18.6815C0.0901926 23.8815 3.75314 28.8942 9.52841 30.3376C12.5831 31.0852 15.7583 31.201 18.8594 30.678C19.8449 30.5078 20.839 30.2559 21.8006 30.0091C23.3683 29.6074 24.987 29.1921 26.667 29.1274L26.8951 29.1138Z" fill="white"/>
<path d="M71.9091 30.0873H77.4576C75.9279 32.8799 71.6631 34.9099 67.5786 33.126C66.5809 32.6906 65.6825 32.0561 64.9384 31.2614C64.1943 30.4668 63.6203 29.5286 63.2514 28.5044C62.8824 27.4802 62.7264 26.3914 62.7929 25.3048C62.8593 24.2182 63.1468 23.1566 63.6377 22.1849C64.0946 21.227 64.7458 20.3746 65.5499 19.682C66.354 18.9895 67.2935 18.4718 68.3086 18.162C71.5893 17.1368 74.3901 18.0554 76.8219 20.4134C77.4043 19.6834 77.9538 18.9822 78.5197 18.2687C77.2201 16.9314 75.5961 15.954 73.806 15.4317C72.016 14.9094 70.1211 14.8602 68.3063 15.2887C66.4916 15.7173 64.8189 16.6091 63.4517 17.877C62.0844 19.1449 61.0692 20.7456 60.5052 22.523C59.9412 24.3003 59.8476 26.1935 60.2336 28.0178C60.6196 29.8421 61.472 31.5351 62.7076 32.9317C63.9431 34.3283 65.5197 35.3806 67.2833 35.9861C69.047 36.5915 70.9375 36.7294 72.7703 36.3862C78.1014 35.3651 81.0991 30.9115 81.4395 27.3233H80.972C78.9954 27.3233 77.0188 27.352 75.0422 27.3233H73.4018L71.9091 30.0873Z" fill="white"/>
<path d="M86.6026 22.1605L86.742 15.0374H84.019L76.1987 24.8138H83.8796V30.19L86.6682 27.1184V24.8138H88.4807L90.5763 22.1605H86.6026ZM83.8796 22.0908H81.7923L83.8878 19.577L83.8796 22.0908Z" fill="white"/>
<path d="M90.1619 15.0374V17.342H94.5047C94.5047 17.342 96.7396 17.83 95.411 19.577L88.8496 28.0247H98.4005V25.5109L94.2996 25.4412L97.3712 21.5331C97.3712 21.5331 99.4667 18.5313 97.5106 16.2963C97.5106 16.2963 96.4649 15.0374 94.2299 15.0374H90.1619Z" fill="white"/>
<path d="M109.748 26.0725C110.42 26.0725 111.011 25.9905 111.519 25.8264C112.036 25.6624 112.467 25.4328 112.811 25.1375C113.156 24.834 113.414 24.4773 113.586 24.0672C113.758 23.6489 113.845 23.1896 113.845 22.6893C113.845 21.6723 113.508 20.9054 112.836 20.3887C112.171 19.872 111.171 19.6137 109.834 19.6137H107.361V26.0725H109.748ZM117.991 35.2256H115.653C115.186 35.2256 114.845 35.041 114.632 34.672L110.265 28.5453C110.125 28.3403 109.973 28.1967 109.809 28.1147C109.645 28.0245 109.399 27.9794 109.071 27.9794H107.361V35.2256H104.741V17.5591H109.834C110.974 17.5591 111.954 17.6781 112.774 17.9159C113.603 18.1456 114.283 18.4777 114.816 18.9124C115.358 19.3389 115.756 19.8556 116.01 20.4625C116.272 21.0695 116.404 21.7502 116.404 22.5048C116.404 23.1199 116.309 23.6981 116.121 24.2394C115.932 24.7807 115.653 25.2687 115.284 25.7034C114.923 26.1299 114.48 26.499 113.955 26.8106C113.43 27.1223 112.836 27.3602 112.171 27.5242C112.5 27.721 112.782 27.9958 113.02 28.3485L117.991 35.2256Z" fill="white"/>
<path d="M136.532 26.3924C136.532 27.7128 136.318 28.9267 135.892 30.0339C135.474 31.1329 134.879 32.0843 134.108 32.8881C133.337 33.6836 132.414 34.3029 131.34 34.7458C130.266 35.1887 129.072 35.4101 127.76 35.4101C126.456 35.4101 125.262 35.1887 124.18 34.7458C123.105 34.3029 122.183 33.6836 121.412 32.8881C120.649 32.0843 120.054 31.1329 119.628 30.0339C119.201 28.9267 118.988 27.7128 118.988 26.3924C118.988 25.0801 119.201 23.8703 119.628 22.7631C120.054 21.6559 120.649 20.7045 121.412 19.9089C122.183 19.1052 123.105 18.4818 124.18 18.0389C125.262 17.5879 126.456 17.3623 127.76 17.3623C129.072 17.3623 130.266 17.5879 131.34 18.0389C132.414 18.4818 133.337 19.1052 134.108 19.9089C134.879 20.7045 135.474 21.6559 135.892 22.7631C136.318 23.8703 136.532 25.0801 136.532 26.3924ZM133.85 26.3924C133.85 25.3425 133.706 24.3993 133.419 23.5628C133.132 22.7262 132.722 22.0168 132.189 21.4344C131.664 20.8521 131.024 20.4051 130.27 20.0935C129.523 19.7818 128.687 19.626 127.76 19.626C126.833 19.626 125.992 19.7818 125.238 20.0935C124.492 20.4051 123.852 20.8521 123.319 21.4344C122.786 22.0168 122.375 22.7262 122.088 23.5628C121.801 24.3993 121.658 25.3425 121.658 26.3924C121.658 27.4504 121.801 28.3977 122.088 29.2342C122.375 30.0626 122.786 30.768 123.319 31.3503C123.852 31.9326 124.492 32.3796 125.238 32.6912C125.992 32.9947 126.833 33.1464 127.76 33.1464C128.687 33.1464 129.523 32.9947 130.27 32.6912C131.024 32.3796 131.664 31.9326 132.189 31.3503C132.722 30.768 133.132 30.0626 133.419 29.2342C133.706 28.3977 133.85 27.4504 133.85 26.3924Z" fill="white"/>
<path d="M155.237 26.3924C155.237 27.7128 155.024 28.9144 154.597 29.997C154.179 31.0796 153.585 32.0105 152.814 32.7897C152.043 33.5606 151.12 34.1593 150.046 34.5858C148.971 35.0123 147.778 35.2256 146.465 35.2256H139.822V17.5591H146.465C147.778 17.5591 148.971 17.7724 150.046 18.1989C151.12 18.6254 152.043 19.2282 152.814 20.0073C153.585 20.7783 154.179 21.7092 154.597 22.8C155.024 23.8826 155.237 25.0801 155.237 26.3924ZM152.555 26.3924C152.555 25.3425 152.412 24.4034 152.125 23.5751C151.838 22.7385 151.428 22.0332 150.894 21.459C150.369 20.8767 149.73 20.4338 148.975 20.1304C148.229 19.8269 147.392 19.6752 146.465 19.6752H142.455V33.1095H146.465C147.392 33.1095 148.229 32.9578 148.975 32.6543C149.73 32.3509 150.369 31.9121 150.894 31.338C151.428 30.7556 151.838 30.0503 152.125 29.2219C152.412 28.3936 152.555 27.4504 152.555 26.3924Z" fill="white"/>
<path d="M161.173 35.2256H158.54V17.5591H161.173V35.2256Z" fill="white"/>
<path d="M180 17.5591V35.2256H178.672C178.467 35.2256 178.294 35.1887 178.155 35.1148C178.024 35.041 177.888 34.9221 177.749 34.7581L167.772 21.8527C167.788 22.0742 167.8 22.2915 167.808 22.5048C167.825 22.718 167.833 22.9189 167.833 23.1076V35.2256H165.532V17.5591H166.886C167.115 17.5591 167.288 17.5878 167.402 17.6453C167.517 17.6945 167.644 17.8134 167.784 18.002L177.786 30.9197C177.761 30.6818 177.741 30.4522 177.724 30.2307C177.716 30.0011 177.712 29.7879 177.712 29.591V17.5591H180Z" fill="white"/>
</svg>
