<svg width="42" height="42" viewBox="0 0 42 42" fill="none" xmlns="http://www.w3.org/2000/svg">
<path d="M32.156 21.6563H33.4685C33.4889 21.6563 33.5059 21.6464 33.5263 21.6445C33.688 22.6195 34.2105 23.498 34.99 24.1056C35.7695 24.7132 36.749 25.0054 37.734 24.9242C38.719 24.8431 39.6374 24.3945 40.307 23.6675C40.9765 22.9405 41.3482 21.9884 41.3482 21C41.3482 20.0117 40.9765 19.0595 40.307 18.3326C39.6374 17.6056 38.719 17.157 37.734 17.0758C36.749 16.9947 35.7695 17.2869 34.99 17.8945C34.2105 18.5021 33.688 19.3806 33.5263 20.3556C33.5059 20.3556 33.4889 20.3438 33.4685 20.3438H32.156C32.1442 20.3438 32.1344 20.3497 32.1232 20.3503C31.961 17.6255 30.8055 15.0546 28.8753 13.1245C26.9452 11.1943 24.3743 10.0388 21.6495 9.87659C21.6495 9.86544 21.656 9.85559 21.656 9.84378V7.21878C21.653 7.19665 21.6486 7.17474 21.6429 7.15315C22.4414 6.99355 23.152 6.54274 23.6367 5.88835C24.1213 5.23396 24.3453 4.42275 24.2651 3.61241C24.1849 2.80207 23.8062 2.0505 23.2028 1.50379C22.5993 0.957081 21.8141 0.654297 20.9998 0.654297C20.1855 0.654297 19.4003 0.957081 18.7968 1.50379C18.1933 2.0505 17.8147 2.80207 17.7345 3.61241C17.6543 4.42275 17.8783 5.23396 18.3629 5.88835C18.8475 6.54274 19.5581 6.99355 20.3566 7.15315C20.3509 7.17474 20.3465 7.19665 20.3435 7.21878V9.84378C20.3435 9.85559 20.3494 9.86544 20.3501 9.87659C17.8481 10.0202 15.4684 11.0068 13.5986 12.6755C13.594 12.6709 13.5933 12.665 13.5887 12.6611L10.9637 10.0361C10.9051 9.97822 10.8358 9.93231 10.7596 9.90087C11.0168 9.49019 11.1541 9.01583 11.156 8.53128C11.156 8.0121 11.0021 7.50459 10.7136 7.07291C10.4252 6.64123 10.0152 6.30477 9.53557 6.10609C9.05591 5.90741 8.52811 5.85543 8.01891 5.95672C7.50971 6.058 7.04198 6.30801 6.67487 6.67512C6.30775 7.04224 6.05775 7.50997 5.95646 8.01917C5.85518 8.52837 5.90716 9.05617 6.10584 9.53582C6.30452 10.0155 6.64097 10.4254 7.07265 10.7139C7.50433 11.0023 8.01185 11.1563 8.53102 11.1563C9.01532 11.1551 9.48967 11.0188 9.90062 10.7625C9.93205 10.8387 9.97796 10.908 10.0358 10.9666L12.6608 13.5916C12.6647 13.5962 12.6706 13.5969 12.6752 13.6015C11.007 15.4706 10.0206 17.8492 9.87634 20.3503C9.86518 20.3503 9.85534 20.3438 9.84352 20.3438H8.53102C8.51068 20.3438 8.49362 20.3536 8.47327 20.3556C8.31152 19.3806 7.78902 18.5021 7.00952 17.8945C6.23002 17.2869 5.25054 16.9947 4.26556 17.0758C3.28057 17.157 2.36212 17.6056 1.69258 18.3326C1.02304 19.0595 0.651367 20.0117 0.651367 21C0.651367 21.9884 1.02304 22.9405 1.69258 23.6675C2.36212 24.3945 3.28057 24.8431 4.26556 24.9242C5.25054 25.0054 6.23002 24.7132 7.00952 24.1056C7.78902 23.498 8.31152 22.6195 8.47327 21.6445C8.49362 21.6445 8.51068 21.6563 8.53102 21.6563H9.84352C9.85534 21.6563 9.86518 21.6504 9.87634 21.6497C10.02 24.1517 11.0065 26.5314 12.6752 28.4012C12.6706 28.4058 12.6647 28.4065 12.6608 28.4111L10.0358 31.0361C9.97796 31.0947 9.93205 31.164 9.90062 31.2402C9.48994 30.983 9.01557 30.8457 8.53102 30.8438C8.01185 30.8438 7.50433 30.9977 7.07265 31.2862C6.64097 31.5746 6.30452 31.9846 6.10584 32.4642C5.90716 32.9439 5.85518 33.4717 5.95646 33.9809C6.05775 34.4901 6.30775 34.9578 6.67487 35.3249C7.04198 35.6921 7.50971 35.9421 8.01891 36.0433C8.52811 36.1446 9.05591 36.0926 9.53557 35.894C10.0152 35.6953 10.4252 35.3588 10.7136 34.9272C11.0021 34.4955 11.156 33.988 11.156 33.4688C11.1549 32.9845 11.0185 32.5101 10.7623 32.0992C10.8384 32.0678 10.9077 32.0218 10.9664 31.964L13.5914 29.339C13.596 29.3351 13.5966 29.3292 13.6012 29.3246C15.4703 30.9928 17.849 31.9792 20.3501 32.1235C20.3501 32.1346 20.3435 32.1445 20.3435 32.1563V34.7813C20.3465 34.8034 20.3509 34.8253 20.3566 34.8469C19.5581 35.0065 18.8475 35.4573 18.3629 36.1117C17.8783 36.7661 17.6543 37.5773 17.7345 38.3876C17.8147 39.198 18.1933 39.9496 18.7968 40.4963C19.4003 41.043 20.1855 41.3458 20.9998 41.3458C21.8141 41.3458 22.5993 41.043 23.2028 40.4963C23.8062 39.9496 24.1849 39.198 24.2651 38.3876C24.3453 37.5773 24.1213 36.7661 23.6367 36.1117C23.152 35.4573 22.4414 35.0065 21.6429 34.8469C21.6486 34.8253 21.653 34.8034 21.656 34.7813V32.1563C21.656 32.1445 21.6501 32.1346 21.6495 32.1235C24.1515 31.9798 26.5312 30.9933 28.401 29.3246C28.4056 29.3292 28.4062 29.3351 28.4108 29.339L34.3171 35.2453C34.3757 35.3031 34.445 35.349 34.5211 35.3804C34.264 35.7911 34.1267 36.2655 34.1248 36.75C34.1248 37.2692 34.2787 37.7767 34.5672 38.2084C34.8556 38.6401 35.2656 38.9765 35.7452 39.1752C36.2249 39.3739 36.7527 39.4259 37.2619 39.3246C37.7711 39.2233 38.2388 38.9733 38.6059 38.6062C38.973 38.2391 39.223 37.7713 39.3243 37.2621C39.4256 36.7529 39.3736 36.2251 39.175 35.7455C38.9763 35.2658 38.6398 34.8559 38.2081 34.5674C37.7765 34.279 37.2689 34.125 36.7498 34.125C36.2655 34.1262 35.7911 34.2625 35.3802 34.5188C35.3487 34.4426 35.3028 34.3733 35.245 34.3147L29.3387 28.4084C29.3348 28.4038 29.3289 28.4032 29.3243 28.3986C30.9925 26.5295 31.979 24.1508 32.1232 21.6497C32.1344 21.6504 32.1442 21.6563 32.156 21.6563ZM37.406 18.375C37.9252 18.375 38.4327 18.529 38.8644 18.8174C39.2961 19.1059 39.6325 19.5158 39.8312 19.9955C40.0299 20.4751 40.0819 21.0029 39.9806 21.5121C39.8793 22.0213 39.6293 22.4891 39.2622 22.8562C38.8951 23.2233 38.4273 23.4733 37.9181 23.5746C37.4089 23.6759 36.8811 23.6239 36.4015 23.4252C35.9218 23.2265 35.5119 22.8901 35.2234 22.4584C34.935 22.0267 34.781 21.5192 34.781 21C34.781 20.3038 35.0576 19.6362 35.5499 19.1439C36.0422 18.6516 36.7098 18.375 37.406 18.375ZM8.53102 9.84378C8.27143 9.84378 8.01768 9.7668 7.80184 9.62258C7.586 9.47836 7.41777 9.27338 7.31843 9.03355C7.21909 8.79372 7.1931 8.52982 7.24374 8.27522C7.29438 8.02062 7.41939 7.78676 7.60295 7.6032C7.7865 7.41965 8.02037 7.29464 8.27497 7.244C8.52957 7.19336 8.79347 7.21935 9.03329 7.31869C9.27312 7.41803 9.47811 7.58625 9.62233 7.80209C9.76655 8.01793 9.84352 8.27169 9.84352 8.53128C9.84352 8.87938 9.70524 9.21321 9.4591 9.45936C9.21296 9.7055 8.87912 9.84378 8.53102 9.84378ZM4.59352 23.625C4.07435 23.625 3.56683 23.4711 3.13515 23.1826C2.70347 22.8942 2.36702 22.4842 2.16834 22.0046C1.96966 21.5249 1.91768 20.9971 2.01896 20.4879C2.12025 19.9787 2.37025 19.511 2.73737 19.1439C3.10448 18.7768 3.57221 18.5268 4.08141 18.4255C4.59061 18.3242 5.11841 18.3762 5.59807 18.5748C6.07772 18.7735 6.48769 19.11 6.77613 19.5417C7.06457 19.9733 7.21852 20.4809 7.21852 21C7.21852 21.6962 6.94196 22.3639 6.44968 22.8562C5.9574 23.3485 5.28972 23.625 4.59352 23.625ZM8.53102 34.7813C8.27143 34.7813 8.01768 34.7043 7.80184 34.5601C7.586 34.4159 7.41777 34.2109 7.31843 33.9711C7.21909 33.7312 7.1931 33.4673 7.24374 33.2127C7.29438 32.9581 7.41939 32.7243 7.60295 32.5407C7.7865 32.3571 8.02037 32.2321 8.27497 32.1815C8.52957 32.1309 8.79347 32.1569 9.03329 32.2562C9.27312 32.3555 9.47811 32.5238 9.62233 32.7396C9.76655 32.9554 9.84352 33.2092 9.84352 33.4688C9.84352 33.8169 9.70524 34.1507 9.4591 34.3969C9.21296 34.643 8.87912 34.7813 8.53102 34.7813ZM36.7498 35.4375C37.0094 35.4375 37.2631 35.5145 37.479 35.6587C37.6948 35.8029 37.863 36.0079 37.9624 36.2478C38.0617 36.4876 38.0877 36.7515 38.0371 37.0061C37.9864 37.2607 37.8614 37.4946 37.6779 37.6781C37.4943 37.8617 37.2604 37.9867 37.0058 38.0373C36.7512 38.088 36.4873 38.062 36.2475 37.9626C36.0077 37.8633 35.8027 37.6951 35.6585 37.4792C35.5142 37.2634 35.4373 37.0096 35.4373 36.75C35.4373 36.4019 35.5756 36.0681 35.8217 35.822C36.0678 35.5758 36.4017 35.4375 36.7498 35.4375ZM19.031 3.93753C19.031 3.54815 19.1465 3.16751 19.3628 2.84375C19.5791 2.51999 19.8866 2.26765 20.2464 2.11864C20.6061 1.96963 21.002 1.93064 21.3839 2.00661C21.7658 2.08257 22.1166 2.27008 22.3919 2.54541C22.6672 2.82075 22.8547 3.17154 22.9307 3.55344C23.0067 3.93534 22.9677 4.33119 22.8187 4.69094C22.6697 5.05068 22.4173 5.35816 22.0936 5.57448C21.7698 5.79081 21.3892 5.90628 20.9998 5.90628C20.4776 5.90628 19.9769 5.69886 19.6077 5.32965C19.2384 4.96043 19.031 4.45967 19.031 3.93753ZM22.9685 38.0625C22.9685 38.4519 22.8531 38.8326 22.6367 39.1563C22.4204 39.4801 22.1129 39.7324 21.7532 39.8814C21.3934 40.0304 20.9976 40.0694 20.6157 39.9935C20.2338 39.9175 19.883 39.73 19.6077 39.4546C19.3323 39.1793 19.1448 38.8285 19.0689 38.4466C18.9929 38.0647 19.0319 37.6689 19.1809 37.3091C19.3299 36.9494 19.5822 36.6419 19.906 36.4256C20.2298 36.2092 20.6104 36.0938 20.9998 36.0938C21.5219 36.0938 22.0227 36.3012 22.3919 36.6704C22.7611 37.0396 22.9685 37.5404 22.9685 38.0625ZM20.9998 30.8438C19.0529 30.8438 17.1497 30.2665 15.5309 29.1848C13.9121 28.1032 12.6504 26.5658 11.9053 24.7671C11.1603 22.9684 10.9653 20.9891 11.3452 19.0796C11.725 17.1701 12.6625 15.4161 14.0392 14.0394C15.4159 12.6628 17.1699 11.7252 19.0794 11.3454C20.9889 10.9656 22.9681 11.1605 24.7668 11.9056C26.5655 12.6506 28.1029 13.9123 29.1846 15.5311C30.2662 17.1499 30.8435 19.0531 30.8435 21C30.8406 23.6098 29.8025 26.1119 27.9571 27.9574C26.1117 29.8028 23.6096 30.8408 20.9998 30.8438Z" fill="url(#paint0_linear)"/>
<path d="M32.8121 9.84375C32.9861 9.84371 33.153 9.77455 33.276 9.65147L35.901 7.02647C35.9589 6.96783 36.0048 6.89851 36.0362 6.82238C36.4469 7.07954 36.9213 7.21683 37.4058 7.21875C37.925 7.21875 38.4325 7.0648 38.8642 6.77636C39.2959 6.48792 39.6323 6.07795 39.831 5.5983C40.0297 5.11864 40.0817 4.59084 39.9804 4.08164C39.8791 3.57244 39.6291 3.10471 39.262 2.7376C38.8949 2.37048 38.4271 2.12048 37.9179 2.01919C37.4087 1.9179 36.8809 1.96989 36.4013 2.16857C35.9216 2.36725 35.5116 2.7037 35.2232 3.13538C34.9348 3.56706 34.7808 4.07458 34.7808 4.59375C34.7819 5.07804 34.9183 5.55239 35.1746 5.96335C35.0984 5.99478 35.0291 6.04069 34.9705 6.09853L32.3455 8.72353C32.2536 8.81547 32.191 8.93263 32.1658 9.06016C32.1406 9.18768 32.1538 9.31983 32.2038 9.43983C32.2538 9.55984 32.3383 9.66229 32.4466 9.73421C32.5548 9.80612 32.6821 9.84424 32.8121 9.84375ZM37.4058 3.28125C37.6654 3.28125 37.9192 3.35823 38.135 3.50245C38.3508 3.64667 38.5191 3.85165 38.6184 4.09148C38.7177 4.33131 38.7437 4.59521 38.6931 4.84981C38.6424 5.10441 38.5174 5.33827 38.3339 5.52183C38.1503 5.70538 37.9165 5.83039 37.6619 5.88103C37.4073 5.93168 37.1434 5.90568 36.9035 5.80634C36.6637 5.707 36.4587 5.53878 36.3145 5.32294C36.1703 5.1071 36.0933 4.85334 36.0933 4.59375C36.0933 4.24565 36.2316 3.91181 36.4777 3.66567C36.7239 3.41953 37.0577 3.28125 37.4058 3.28125Z" fill="url(#paint1_linear)"/>
<path d="M30.1869 12.4688C30.3609 12.4688 30.5278 12.3996 30.6508 12.2765L31.9633 10.964C32.0829 10.8403 32.149 10.6745 32.1475 10.5024C32.146 10.3303 32.077 10.1658 31.9554 10.0441C31.8337 9.9224 31.6691 9.85339 31.497 9.85189C31.3249 9.8504 31.1592 9.91654 31.0354 10.0361L29.7229 11.3486C29.6312 11.4404 29.5687 11.5573 29.5434 11.6846C29.5181 11.8119 29.531 11.9438 29.5807 12.0637C29.6304 12.1836 29.7145 12.2861 29.8224 12.3582C29.9302 12.4303 30.0571 12.4688 30.1869 12.4688Z" fill="url(#paint2_linear)"/>
<path d="M4.78579 36.2861L3.47329 37.5986C3.41062 37.6591 3.36062 37.7316 3.32623 37.8116C3.29183 37.8917 3.27373 37.9778 3.27297 38.0649C3.27222 38.1521 3.28882 38.2385 3.32182 38.3191C3.35481 38.3998 3.40354 38.4731 3.46516 38.5347C3.52678 38.5963 3.60005 38.645 3.6807 38.678C3.76135 38.711 3.84776 38.7276 3.9349 38.7269C4.02204 38.7261 4.10815 38.708 4.18822 38.6736C4.26828 38.6392 4.34069 38.5892 4.40123 38.5265L5.71373 37.214C5.83327 37.0903 5.89942 36.9245 5.89792 36.7524C5.89643 36.5804 5.82741 36.4158 5.70574 36.2941C5.58406 36.1724 5.41947 36.1034 5.2474 36.1019C5.07533 36.1004 4.90956 36.1666 4.78579 36.2861Z" fill="url(#paint3_linear)"/>
<path d="M26.2496 18.375C26.2497 17.6782 26.1111 16.9884 25.8418 16.3457C25.5726 15.7031 25.1781 15.1204 24.6814 14.6318C24.1847 14.1431 23.5957 13.7582 22.9487 13.4995C22.3017 13.2409 21.6097 13.1135 20.913 13.125C19.5732 13.1615 18.2968 13.7032 17.3397 14.6415C16.3827 15.5798 15.8158 16.8453 15.7529 18.1841C15.7224 18.9757 15.8726 19.764 16.1922 20.4889C16.5117 21.2139 16.9921 21.8566 17.5969 22.3683C17.9827 22.6879 18.2444 23.1326 18.3365 23.625H17.7183C17.5443 23.625 17.3774 23.6942 17.2543 23.8172C17.1312 23.9403 17.0621 24.1072 17.0621 24.2813V26.25C17.0621 26.4241 17.1312 26.591 17.2543 26.7141C17.3774 26.8371 17.5443 26.9063 17.7183 26.9063H18.3746V28.2188C18.3746 28.3928 18.4437 28.5597 18.5668 28.6828C18.6899 28.8059 18.8568 28.875 19.0308 28.875H22.9683C23.1424 28.875 23.3093 28.8059 23.4324 28.6828C23.5554 28.5597 23.6246 28.3928 23.6246 28.2188V26.9063H24.2808C24.4549 26.9063 24.6218 26.8371 24.7449 26.7141C24.8679 26.591 24.9371 26.4241 24.9371 26.25V24.2813C24.9371 24.1072 24.8679 23.9403 24.7449 23.8172C24.6218 23.6942 24.4549 23.625 24.2808 23.625H23.6607C23.7455 23.1412 23.9994 22.7032 24.3773 22.3893C24.9641 21.898 25.4359 21.2838 25.7594 20.5902C26.0829 19.8966 26.2503 19.1404 26.2496 18.375ZM22.3121 27.5625H19.6871V26.9063H22.3121V27.5625ZM23.6246 25.5938H18.3746V24.9375H23.6246V25.5938ZM23.5334 21.3846C22.8539 21.945 22.4209 22.7493 22.3272 23.625H19.6713C19.5698 22.7434 19.1312 21.9352 18.4474 21.3695C17.9934 20.9859 17.6327 20.504 17.3927 19.9602C17.1527 19.4165 17.0396 18.8253 17.0621 18.2313C17.0897 17.4678 17.3389 16.7289 17.7792 16.1045C18.2195 15.4802 18.8319 14.9974 19.5418 14.7151C20.2517 14.4327 21.0284 14.363 21.7772 14.5144C22.526 14.6657 23.2146 15.0317 23.7591 15.5676C24.1498 15.952 24.4559 16.4137 24.6578 16.9233C24.8597 17.4328 24.9528 17.9789 24.9313 18.5266C24.9098 19.0743 24.7741 19.6114 24.5329 20.1036C24.2918 20.5957 23.9504 21.0321 23.5307 21.3846H23.5334Z" fill="url(#paint4_linear)"/>
<defs>
<linearGradient id="paint0_linear" x1="20.9998" y1="0.654297" x2="20.9998" y2="41.3458" gradientUnits="userSpaceOnUse">
<stop offset="0.65625" stop-color="#6C23F5"/>
<stop offset="1" stop-color="#3A71FF"/>
</linearGradient>
<linearGradient id="paint1_linear" x1="36.0921" y1="1.96875" x2="36.0921" y2="9.84376" gradientUnits="userSpaceOnUse">
<stop offset="0.65625" stop-color="#6C23F5"/>
<stop offset="1" stop-color="#3A71FF"/>
</linearGradient>
<linearGradient id="paint2_linear" x1="30.8392" y1="9.85187" x2="30.8392" y2="12.4688" gradientUnits="userSpaceOnUse">
<stop offset="0.65625" stop-color="#6C23F5"/>
<stop offset="1" stop-color="#3A71FF"/>
</linearGradient>
<linearGradient id="paint3_linear" x1="4.58545" y1="36.1019" x2="4.58545" y2="38.7269" gradientUnits="userSpaceOnUse">
<stop offset="0.65625" stop-color="#6C23F5"/>
<stop offset="1" stop-color="#3A71FF"/>
</linearGradient>
<linearGradient id="paint4_linear" x1="20.9993" y1="13.1243" x2="20.9993" y2="28.875" gradientUnits="userSpaceOnUse">
<stop offset="0.65625" stop-color="#6C23F5"/>
<stop offset="1" stop-color="#3A71FF"/>
</linearGradient>
</defs>
</svg>
