<svg width="32" height="32" viewBox="0 0 32 32" fill="none" xmlns="http://www.w3.org/2000/svg">
<path d="M26.6669 10.6667V11.7334H19.2002V2.13336H24.5335V4.2667H26.6669V10.6667Z" fill="#9734E8"/>
<path d="M31.4668 17.6V24.5333C31.4649 25.1216 30.9884 25.5982 30.4001 25.6H25.6001V21.3333H23.4668V25.6H18.6668C18.0785 25.5982 17.6019 25.1216 17.6001 24.5333V17.6C17.6019 17.0117 18.0785 16.5351 18.6668 16.5333H30.4001C30.9884 16.5351 31.4649 17.0117 31.4668 17.6Z" fill="#9734E8"/>
<path d="M13.8668 29.3333H1.6001V27.5094C1.60218 26.0669 2.56676 24.8034 3.95739 24.4214L6.7415 23.6641L9.06676 25.6L11.392 23.6641L14.1761 24.4214C15.5668 24.8034 16.5313 26.0669 16.5334 27.5094V29.3333H13.8668Z" fill="#9734E8"/>
<path d="M12.8002 14.032V17.6C12.8002 17.6 12.5976 17.7013 12.2668 17.8401C11.2595 18.3086 10.1749 18.5888 9.06683 18.6667C7.95876 18.5888 6.87412 18.3086 5.86683 17.8401C5.5361 17.7013 5.3335 17.6 5.3335 17.6V14.032L9.06683 15.4667L12.8002 14.032Z" fill="#9734E8"/>
<path d="M16 12.8L12.8 14.0321L9.06663 15.4667L5.3333 14.0321L2.1333 12.8L9.06663 10.1334L16 12.8Z" fill="#9734E8"/>
<path d="M30.4 26.1333C31.2836 26.1333 32 25.4169 32 24.5333V17.6C32 16.7164 31.2836 16 30.4 16H18.6667C17.7831 16 17.0667 16.7164 17.0667 17.6V24.5333C17.0667 25.4169 17.7831 26.1333 18.6667 26.1333H22.9333V27.7333H21.8667V28.8H17.0667V27.5093C17.0615 25.8276 15.9372 24.3549 14.3161 23.9067L11.2 23.0586V22.2523C12.1992 21.5565 12.7964 20.4174 12.8 19.2V18.1903C12.9359 18.1281 13.0219 18.0838 13.0383 18.0773C13.2193 17.9869 13.3333 17.8021 13.3333 17.6V14.4L16.1914 13.3008C16.3979 13.2218 16.5344 13.0237 16.5344 12.8026C16.5344 12.5815 16.3979 12.3836 16.1914 12.3044L9.25807 9.63773C9.13464 9.59138 8.9987 9.59138 8.87526 9.63773L1.94193 12.3044C1.73672 12.3833 1.60104 12.5802 1.6 12.8V15.2458L0.15625 16.6896L0.910417 17.4437L1.6 16.7541V17.6H2.66667V16.7541L3.35625 17.4437L4.11042 16.6896L2.66667 15.2458V13.5765L4.8 14.4V17.6C4.79896 17.8031 4.91328 17.9893 5.09505 18.0799C5.11146 18.088 5.1974 18.1307 5.33333 18.1929V19.2C5.32474 20.4208 5.92474 21.5656 6.93333 22.2534V23.0586L3.81536 23.9073C2.19531 24.3557 1.07161 25.8281 1.06667 27.5093V28.8H0.533333C0.238802 28.8 0 29.0388 0 29.3333V31.4666C0 31.7612 0.238802 32 0.533333 32H31.4667C31.7612 32 32 31.7612 32 31.4666V29.3333C32 29.0388 31.7612 28.8 31.4667 28.8H27.2V27.7333H26.1333V26.1333H30.4ZM8 23.4666V22.7734C8.69505 22.9872 9.43828 22.9872 10.1333 22.7734V23.4666C10.1352 23.6195 10.2029 23.764 10.3195 23.863L9.06667 24.9067L7.8138 23.8635C7.93047 23.7646 7.99844 23.6198 8 23.4666ZM9.06667 10.7044L14.5141 12.8L9.06667 14.8955L3.61927 12.8L9.06667 10.7044ZM8.87526 15.9648C8.99844 16.0117 9.1349 16.0117 9.25807 15.9648L12.2667 14.8075V17.2606C11.2622 17.7442 10.1776 18.0401 9.06667 18.1333C7.95573 18.0393 6.87135 17.7435 5.86667 17.2601V14.807L8.87526 15.9648ZM6.4 19.2V18.6276C7.2513 18.9638 8.15234 19.1573 9.06667 19.2C9.98099 19.1573 10.882 18.9638 11.7333 18.6276V19.2C11.7323 20.1528 11.2227 21.0328 10.3966 21.508C9.57083 21.9833 8.55417 21.9817 7.72969 21.5039C7.52813 21.3896 7.34349 21.2476 7.18073 21.0825C6.67813 20.5856 6.39662 19.907 6.4 19.2ZM2.13333 27.5093C2.13724 26.3083 2.9401 25.2565 4.09766 24.9359L6.61328 24.2518L8.72526 26.0117C8.92318 26.1765 9.21016 26.1765 9.40807 26.0117L11.5201 24.2518L14.0341 24.9354C15.1922 25.2557 15.9956 26.3078 16 27.5093V28.8H14.4V26.6666H13.3333V28.8H4.8V26.6666H3.73333V28.8H2.13333V27.5093ZM30.9333 29.8666V30.9333H1.06667V29.8666H30.9333ZM18.6667 25.0666C18.3721 25.0666 18.1333 24.8278 18.1333 24.5333V17.6C18.1333 17.3054 18.3721 17.0666 18.6667 17.0666H30.4C30.6945 17.0666 30.9333 17.3054 30.9333 17.6V24.5333C30.9333 24.8278 30.6945 25.0666 30.4 25.0666H26.1333V21.3333C26.1333 21.0388 25.8945 20.8 25.6 20.8H23.4667C23.1721 20.8 22.9333 21.0388 22.9333 21.3333V25.0666H18.6667ZM24 27.7333V21.8666H25.0667V27.7333H24Z" fill="white"/>
<path d="M19.1998 12.2667H26.6665C26.961 12.2667 27.1998 12.0279 27.1998 11.7333V11.2H28.7998C29.0944 11.2 29.3332 10.9612 29.3332 10.6667V0.533333C29.3332 0.238802 29.0944 0 28.7998 0H20.8228C20.5282 0 20.2894 0.238802 20.2894 0.533333V1.6H19.1998C18.9053 1.6 18.6665 1.8388 18.6665 2.13333V11.7333C18.6665 12.0279 18.9053 12.2667 19.1998 12.2667ZM25.0665 3.0224L25.5998 3.73333H25.0665V3.0224ZM21.3561 1.06667H28.2665V10.1333H27.1998V4.26667C27.1998 4.1513 27.1623 4.03906 27.0931 3.94661L25.4931 1.81328C25.3925 1.67917 25.2345 1.6 25.0665 1.6H21.3561V1.06667ZM19.7332 2.66667H23.9998V4.26667C23.9998 4.5612 24.2386 4.8 24.5332 4.8H26.1332V11.2H19.7332V2.66667Z" fill="white"/>
<path d="M20.7998 8.53333H25.0665V9.59999H20.7998V8.53333Z" fill="white"/>
<path d="M20.7998 5.86664H25.0665V6.9333H20.7998V5.86664Z" fill="white"/>
<path d="M12.9563 3.88958L13.7105 4.64374L15.3105 3.04374C15.5186 2.83541 15.5186 2.49791 15.3105 2.28958L13.7105 0.689575L12.9563 1.44374L13.6459 2.13333H9.6001V3.19999H13.6459L12.9563 3.88958Z" fill="white"/>
<path d="M9.22295 7.62291L9.97712 8.37707L11.5771 6.77707C11.7852 6.56874 11.7852 6.23124 11.5771 6.02291L9.97712 4.42291L9.22295 5.17708L9.91253 5.86666H5.8667V6.93332H9.91253L9.22295 7.62291Z" fill="white"/>
<path d="M7.4668 2.13336H8.53346V3.20003H7.4668V2.13336Z" fill="white"/>
<path d="M3.7334 5.86664H4.80007V6.9333H3.7334V5.86664Z" fill="white"/>
<path d="M1.6001 5.86664H2.66676V6.9333H1.6001V5.86664Z" fill="white"/>
</svg>
