<svg width="20" height="20" viewBox="0 0 20 20" fill="none" xmlns="http://www.w3.org/2000/svg">
<g clip-path="url(#clip0)">
<path d="M17.5585 2.38989H2.44569C1.09663 2.38989 0 3.48652 0 4.83558V15.1646C0 16.5136 1.09663 17.6103 2.44569 17.6103H17.5543C18.9034 17.6103 20 16.5136 20 15.1646V4.83972C20.0041 3.49066 18.9075 2.38989 17.5585 2.38989ZM18.8868 15.1646C18.8868 15.897 18.2909 16.4929 17.5585 16.4929H2.44569C1.71322 16.4929 1.11732 15.897 1.11732 15.1646V4.83972C1.11732 4.10725 1.71322 3.51135 2.44569 3.51135H17.5543C18.2868 3.51135 18.8827 4.10725 18.8827 4.83972V15.1646H18.8868Z" fill="white" fill-opacity="0.8"/>
<path d="M12.6133 9.87181L17.5046 5.4853C17.7322 5.27839 17.7529 4.92664 17.546 4.6949C17.3391 4.4673 16.9874 4.44661 16.7556 4.65352L10.0103 10.7077L8.69437 9.53248C8.69023 9.52834 8.68609 9.5242 8.68609 9.52007C8.65712 9.4911 8.62816 9.46627 8.59505 9.44144L3.2402 4.64938C3.00846 4.44247 2.65671 4.46316 2.4498 4.6949C2.24289 4.92664 2.26358 5.27839 2.49532 5.4853L7.44463 9.90906L2.51601 14.5232C2.29255 14.7342 2.28013 15.086 2.49118 15.3136C2.60291 15.4294 2.75189 15.4915 2.90086 15.4915C3.03743 15.4915 3.17399 15.4419 3.28158 15.3425L8.28468 10.6622L9.64202 11.8747C9.74961 11.9699 9.88204 12.0154 10.0145 12.0154C10.1469 12.0154 10.2834 11.9658 10.3869 11.8706L11.7815 10.6208L16.7556 15.3467C16.8632 15.4501 17.0039 15.4998 17.1405 15.4998C17.2894 15.4998 17.4343 15.4419 17.546 15.326C17.7571 15.1025 17.7488 14.7466 17.5253 14.5356L12.6133 9.87181Z" fill="white" fill-opacity="0.8"/>
</g>
<defs>
<clipPath id="clip0">
<rect width="20" height="20" fill="white"/>
</clipPath>
</defs>
</svg>
