<svg width="30" height="24" viewBox="0 0 30 24" fill="none" xmlns="http://www.w3.org/2000/svg">
<path d="M29.5 19.5H28V3C27.9992 2.3372 27.7356 1.70178 27.2669 1.23311C26.7982 0.764441 26.1628 0.500794 25.5 0.5H4.5C3.8372 0.500794 3.20178 0.764441 2.73311 1.23311C2.26444 1.70178 2.00079 2.3372 2 3V19.5H0.5C0.367392 19.5 0.240215 19.5527 0.146447 19.6464C0.0526784 19.7402 0 19.8674 0 20V22C0 22.3978 0.158035 22.7794 0.43934 23.0607C0.720644 23.342 1.10218 23.5 1.5 23.5H28.5C28.8978 23.5 29.2794 23.342 29.5607 23.0607C29.842 22.7794 30 22.3978 30 22V20C30 19.8674 29.9473 19.7402 29.8536 19.6464C29.7598 19.5527 29.6326 19.5 29.5 19.5ZM3 3C3 2.60218 3.15804 2.22064 3.43934 1.93934C3.72064 1.65804 4.10218 1.5 4.5 1.5H25.5C25.8978 1.5 26.2794 1.65804 26.5607 1.93934C26.842 2.22064 27 2.60218 27 3V19.5H3V3ZM13 20.5H17V21H13V20.5ZM29 22C29 22.1326 28.9473 22.2598 28.8536 22.3536C28.7598 22.4473 28.6326 22.5 28.5 22.5H1.5C1.36739 22.5 1.24021 22.4473 1.14645 22.3536C1.05268 22.2598 1 22.1326 1 22V20.5H12V21C12 21.2652 12.1054 21.5196 12.2929 21.7071C12.4804 21.8946 12.7348 22 13 22H17C17.2652 22 17.5196 21.8946 17.7071 21.7071C17.8946 21.5196 18 21.2652 18 21V20.5H29V22Z" fill="white"/>
<path d="M25 9C25 8.86739 24.9473 8.74021 24.8536 8.64645C24.7598 8.55268 24.6326 8.5 24.5 8.5H22.5C22.3674 8.5 22.2402 8.55268 22.1464 8.64645C22.0527 8.74021 22 8.86739 22 9V16.5H21V12C21 11.8674 20.9473 11.7402 20.8536 11.6464C20.7598 11.5527 20.6326 11.5 20.5 11.5H18.5C18.3674 11.5 18.2402 11.5527 18.1464 11.6464C18.0527 11.7402 18 11.8674 18 12V16.5H17V14C17 13.8674 16.9473 13.7402 16.8536 13.6464C16.7598 13.5527 16.6326 13.5 16.5 13.5H14.5C14.3674 13.5 14.2402 13.5527 14.1464 13.6464C14.0527 13.7402 14 13.8674 14 14V16.5H13V5H12V17C12 17.1326 12.0527 17.2598 12.1464 17.3536C12.2402 17.4473 12.3674 17.5 12.5 17.5H26V16.5H25V9ZM23 9.5H24V16.5H23V9.5ZM19 12.5H20V16.5H19V12.5ZM15 14.5H16V16.5H15V14.5Z" fill="white"/>
<path d="M17.5 9.207L18.6465 10.3535C18.7402 10.4472 18.8674 10.4999 19 10.4999C19.1326 10.4999 19.2597 10.4472 19.3535 10.3535L23 6.707V7.5H24V5.5C24 5.36739 23.9473 5.24021 23.8535 5.14645C23.7598 5.05268 23.6326 5 23.5 5H21.5V6H22.293L19 9.293L17.8535 8.1465C17.7597 8.05276 17.6326 8.00011 17.5 8.00011C17.3674 8.00011 17.2402 8.05276 17.1465 8.1465L15.1465 10.1465L15.8535 10.8535L17.5 9.207Z" fill="white"/>
<path d="M7.5 8H6.5C6.36739 8 6.24021 7.94732 6.14645 7.85355C6.05268 7.75979 6 7.63261 6 7.5H5C5 7.89782 5.15804 8.27936 5.43934 8.56066C5.72064 8.84196 6.10218 9 6.5 9V9.5H7.5V9C7.89782 9 8.27936 8.84196 8.56066 8.56066C8.84196 8.27936 9 7.89782 9 7.5C9 7.10218 8.84196 6.72064 8.56066 6.43934C8.27936 6.15804 7.89782 6 7.5 6H6.5C6.36739 6 6.24021 5.94732 6.14645 5.85355C6.05268 5.75979 6 5.63261 6 5.5C6 5.36739 6.05268 5.24021 6.14645 5.14645C6.24021 5.05268 6.36739 5 6.5 5H7.5C7.63261 5 7.75979 5.05268 7.85355 5.14645C7.94732 5.24021 8 5.36739 8 5.5H9C9 5.10218 8.84196 4.72064 8.56066 4.43934C8.27936 4.15804 7.89782 4 7.5 4V3.5H6.5V4C6.10218 4 5.72064 4.15804 5.43934 4.43934C5.15804 4.72064 5 5.10218 5 5.5C5 5.89782 5.15804 6.27936 5.43934 6.56066C5.72064 6.84196 6.10218 7 6.5 7H7.5C7.63261 7 7.75979 7.05268 7.85355 7.14645C7.94732 7.24021 8 7.36739 8 7.5C8 7.63261 7.94732 7.75979 7.85355 7.85355C7.75979 7.94732 7.63261 8 7.5 8Z" fill="white"/>
<path d="M4 10.5H5V11.5H4V10.5Z" fill="white"/>
<path d="M6 10.5H10V11.5H6V10.5Z" fill="white"/>
<path d="M4 12.5H10V13.5H4V12.5Z" fill="white"/>
<path d="M4 14.5H10V15.5H4V14.5Z" fill="white"/>
<path d="M4 16.5H10V17.5H4V16.5Z" fill="white"/>
</svg>
