<svg width="42" height="42" viewBox="0 0 42 42" fill="none" xmlns="http://www.w3.org/2000/svg">
<path d="M39.375 29.5312C39.375 29.3572 39.3059 29.1903 39.1828 29.0672C39.0597 28.9441 38.8928 28.875 38.7188 28.875H36.0938C35.9773 28.878 35.8638 28.9127 35.7656 28.9754C35.6674 28.9127 35.554 28.878 35.4375 28.875H33.4688V28.2188C35.2104 28.2188 36.0938 27.5559 36.0938 26.25V23.625C36.0938 22.9288 35.8172 22.2611 35.3249 21.7688C34.8326 21.2766 34.1649 21 33.4688 21V19.6875C33.4688 19.5135 33.3996 19.3465 33.2765 19.2235C33.1535 19.1004 32.9865 19.0312 32.8125 19.0312C32.6385 19.0312 32.4715 19.1004 32.3485 19.2235C32.2254 19.3465 32.1562 19.5135 32.1562 19.6875V21C31.4601 21 30.7924 21.2766 30.3001 21.7688C29.8078 22.2611 29.5312 22.9288 29.5312 23.625V26.25C29.5312 27.5559 30.4146 28.2188 32.1562 28.2188V28.875H30.1875C30.071 28.878 29.9576 28.9127 29.8594 28.9754C29.7612 28.9127 29.6477 28.878 29.5312 28.875H26.9062C26.7322 28.875 26.5653 28.9441 26.4422 29.0672C26.3191 29.1903 26.25 29.3572 26.25 29.5312V31.5C26.25 31.674 26.3191 31.841 26.4422 31.964C26.5653 32.0871 26.7322 32.1562 26.9062 32.1562H27.5625V35.4375C27.5625 35.6115 27.6316 35.7785 27.7547 35.9015C27.8778 36.0246 28.0447 36.0938 28.2188 36.0938C28.3928 36.0938 28.5597 36.0246 28.6828 35.9015C28.8059 35.7785 28.875 35.6115 28.875 35.4375V32.1562H29.5312V34.7812C29.5312 34.9553 29.6004 35.1222 29.7235 35.2453C29.8465 35.3684 30.0135 35.4375 30.1875 35.4375V37.4062H28.875C28.701 37.4062 28.534 37.4754 28.411 37.5985C28.2879 37.7215 28.2188 37.8885 28.2188 38.0625V39.375H13.7812V38.0625C13.7812 37.8885 13.7121 37.7215 13.589 37.5985C13.466 37.4754 13.299 37.4062 13.125 37.4062H11.8125V35.4375C11.9865 35.4375 12.1535 35.3684 12.2765 35.2453C12.3996 35.1222 12.4688 34.9553 12.4688 34.7812V32.1562H13.125V35.4375C13.125 35.6115 13.1941 35.7785 13.3172 35.9015C13.4403 36.0246 13.6072 36.0938 13.7812 36.0938C13.9553 36.0938 14.1222 36.0246 14.2453 35.9015C14.3684 35.7785 14.4375 35.6115 14.4375 35.4375V32.1562H15.0938C15.2678 32.1562 15.4347 32.0871 15.5578 31.964C15.6809 31.841 15.75 31.674 15.75 31.5V29.5312C15.75 29.3572 15.6809 29.1903 15.5578 29.0672C15.4347 28.9441 15.2678 28.875 15.0938 28.875H12.4688C12.3523 28.878 12.2388 28.9127 12.1406 28.9754C12.0424 28.9127 11.929 28.878 11.8125 28.875H9.84375V28.2188C11.5854 28.2188 12.4688 27.5559 12.4688 26.25V23.625C12.4688 22.9288 12.1922 22.2611 11.6999 21.7688C11.2076 21.2766 10.5399 21 9.84375 21V19.6875C9.84375 19.5135 9.77461 19.3465 9.65154 19.2235C9.52847 19.1004 9.36155 19.0312 9.1875 19.0312C9.01345 19.0312 8.84653 19.1004 8.72346 19.2235C8.60039 19.3465 8.53125 19.5135 8.53125 19.6875V21C7.83506 21 7.16738 21.2766 6.67509 21.7688C6.18281 22.2611 5.90625 22.9288 5.90625 23.625V26.25C5.90625 27.5559 6.78956 28.2188 8.53125 28.2188V28.875H6.5625C6.44603 28.878 6.3326 28.9127 6.23438 28.9754C6.13615 28.9127 6.02272 28.878 5.90625 28.875H3.28125C3.1072 28.875 2.94028 28.9441 2.81721 29.0672C2.69414 29.1903 2.625 29.3572 2.625 29.5312V31.5C2.625 31.674 2.69414 31.841 2.81721 31.964C2.94028 32.0871 3.1072 32.1562 3.28125 32.1562H3.9375V35.4375C3.9375 35.6115 4.00664 35.7785 4.12971 35.9015C4.25278 36.0246 4.4197 36.0938 4.59375 36.0938C4.7678 36.0938 4.93472 36.0246 5.05779 35.9015C5.18086 35.7785 5.25 35.6115 5.25 35.4375V32.1562H5.90625V34.7812C5.90625 34.9553 5.97539 35.1222 6.09846 35.2453C6.22153 35.3684 6.38845 35.4375 6.5625 35.4375V37.4062H5.25C5.07595 37.4062 4.90903 37.4754 4.78596 37.5985C4.66289 37.7215 4.59375 37.8885 4.59375 38.0625V39.375H1.3125C1.13845 39.375 0.971532 39.4441 0.848461 39.5672C0.72539 39.6903 0.65625 39.8572 0.65625 40.0312C0.65625 40.2053 0.72539 40.3722 0.848461 40.4953C0.971532 40.6184 1.13845 40.6875 1.3125 40.6875H38.0625C38.2365 40.6875 38.4035 40.6184 38.5265 40.4953C38.6496 40.3722 38.7188 40.2053 38.7188 40.0312C38.7188 39.8572 38.6496 39.6903 38.5265 39.5672C38.4035 39.4441 38.2365 39.375 38.0625 39.375H37.4062V38.0625C37.4062 37.8885 37.3371 37.7215 37.214 37.5985C37.091 37.4754 36.924 37.4062 36.75 37.4062H35.4375V35.4375C35.6115 35.4375 35.7785 35.3684 35.9015 35.2453C36.0246 35.1222 36.0938 34.9553 36.0938 34.7812V32.1562H36.75V35.4375C36.75 35.6115 36.8191 35.7785 36.9422 35.9015C37.0653 36.0246 37.2322 36.0938 37.4062 36.0938C37.5803 36.0938 37.7472 36.0246 37.8703 35.9015C37.9934 35.7785 38.0625 35.6115 38.0625 35.4375V32.1562H38.7188C38.8928 32.1562 39.0597 32.0871 39.1828 31.964C39.3059 31.841 39.375 31.674 39.375 31.5V29.5312ZM30.8438 26.25V24.9375H31.5C31.674 24.9375 31.841 24.8684 31.964 24.7453C32.0871 24.6222 32.1562 24.4553 32.1562 24.2812C32.1562 24.1072 32.0871 23.9403 31.964 23.8172C31.841 23.6941 31.674 23.625 31.5 23.625H30.8438C30.8438 23.2769 30.982 22.9431 31.2282 22.6969C31.4743 22.4508 31.8082 22.3125 32.1562 22.3125H33.4688C33.8168 22.3125 34.1507 22.4508 34.3968 22.6969C34.643 22.9431 34.7812 23.2769 34.7812 23.625H34.125C33.951 23.625 33.784 23.6941 33.661 23.8172C33.5379 23.9403 33.4688 24.1072 33.4688 24.2812C33.4688 24.4553 33.5379 24.6222 33.661 24.7453C33.784 24.8684 33.951 24.9375 34.125 24.9375H34.7812V26.25C34.7812 26.5578 34.7812 26.9062 33.4688 26.9062H32.1562C30.8438 26.9062 30.8438 26.5578 30.8438 26.25ZM28.875 30.8438H27.5625V30.1875H28.875V30.8438ZM13.125 30.1875H14.4375V30.8438H13.125V30.1875ZM7.21875 26.25V24.9375H7.875C8.04905 24.9375 8.21597 24.8684 8.33904 24.7453C8.46211 24.6222 8.53125 24.4553 8.53125 24.2812C8.53125 24.1072 8.46211 23.9403 8.33904 23.8172C8.21597 23.6941 8.04905 23.625 7.875 23.625H7.21875C7.21875 23.2769 7.35703 22.9431 7.60317 22.6969C7.84931 22.4508 8.18315 22.3125 8.53125 22.3125H9.84375C10.1918 22.3125 10.5257 22.4508 10.7718 22.6969C11.018 22.9431 11.1562 23.2769 11.1562 23.625H10.5C10.326 23.625 10.159 23.6941 10.036 23.8172C9.91289 23.9403 9.84375 24.1072 9.84375 24.2812C9.84375 24.4553 9.91289 24.6222 10.036 24.7453C10.159 24.8684 10.326 24.9375 10.5 24.9375H11.1562V26.25C11.1562 26.5578 11.1562 26.9062 9.84375 26.9062H8.53125C7.21875 26.9062 7.21875 26.5578 7.21875 26.25ZM5.25 30.8438H3.9375V30.1875H5.25V30.8438ZM30.8438 30.1875H34.7812V34.125H30.8438V30.1875ZM7.21875 30.1875H11.1562V34.125H7.21875V30.1875ZM7.875 35.4375H10.5V37.4062C10.326 37.4062 10.159 37.4754 10.036 37.5985C9.91289 37.7215 9.84375 37.8885 9.84375 38.0625V39.375H8.53125V38.0625C8.53125 37.8885 8.46211 37.7215 8.33904 37.5985C8.21597 37.4754 8.04905 37.4062 7.875 37.4062V35.4375ZM5.90625 39.375V38.7188H7.21875V39.375H5.90625ZM11.1562 39.375V38.7188H12.4688V39.375H11.1562ZM29.5312 39.375V38.7188H30.8438V39.375H29.5312ZM36.0938 38.7188V39.375H34.7812V38.7188H36.0938ZM34.125 37.4062C33.951 37.4062 33.784 37.4754 33.661 37.5985C33.5379 37.7215 33.4688 37.8885 33.4688 38.0625V39.375H32.1562V38.0625C32.1562 37.8885 32.0871 37.7215 31.964 37.5985C31.841 37.4754 31.674 37.4062 31.5 37.4062V35.4375H34.125V37.4062ZM38.0625 30.8438H36.75V30.1875H38.0625V30.8438Z" fill="url(#paint0_linear)"/>
<path d="M40.6875 39.375H40.0312C39.8572 39.375 39.6903 39.4441 39.5672 39.5672C39.4441 39.6903 39.375 39.8572 39.375 40.0312C39.375 40.2053 39.4441 40.3722 39.5672 40.4953C39.6903 40.6184 39.8572 40.6875 40.0312 40.6875H40.6875C40.8615 40.6875 41.0285 40.6184 41.1515 40.4953C41.2746 40.3722 41.3438 40.2053 41.3438 40.0312C41.3438 39.8572 41.2746 39.6903 41.1515 39.5672C41.0285 39.4441 40.8615 39.375 40.6875 39.375Z" fill="url(#paint1_linear)"/>
<path d="M9.1875 15.75C9.36155 15.75 9.52847 15.6809 9.65154 15.5578C9.77461 15.4347 9.84375 15.2678 9.84375 15.0938V13.7812H11.1562V19.6875C11.1562 20.2096 11.3637 20.7104 11.7329 21.0796C12.1021 21.4488 12.6029 21.6562 13.125 21.6562H28.875C29.3971 21.6562 29.8979 21.4488 30.2671 21.0796C30.6363 20.7104 30.8438 20.2096 30.8438 19.6875V13.7812H32.1562V17.7188C32.1562 17.8928 32.2254 18.0597 32.3485 18.1828C32.4715 18.3059 32.6385 18.375 32.8125 18.375C32.9865 18.375 33.1535 18.3059 33.2765 18.1828C33.3996 18.0597 33.4688 17.8928 33.4688 17.7188V13.125C33.4688 12.951 33.3996 12.784 33.2765 12.661C33.1535 12.5379 32.9865 12.4688 32.8125 12.4688H30.8438V3.9375C30.8438 3.41536 30.6363 2.9146 30.2671 2.54538C29.8979 2.17617 29.3971 1.96875 28.875 1.96875H13.125C12.6029 1.96875 12.1021 2.17617 11.7329 2.54538C11.3637 2.9146 11.1562 3.41536 11.1562 3.9375V12.4688H9.1875C9.01345 12.4688 8.84653 12.5379 8.72346 12.661C8.60039 12.784 8.53125 12.951 8.53125 13.125V15.0938C8.53125 15.2678 8.60039 15.4347 8.72346 15.5578C8.84653 15.6809 9.01345 15.75 9.1875 15.75ZM12.4688 3.9375C12.4688 3.76345 12.5379 3.59653 12.661 3.47346C12.784 3.35039 12.951 3.28125 13.125 3.28125H28.875C29.049 3.28125 29.216 3.35039 29.339 3.47346C29.4621 3.59653 29.5312 3.76345 29.5312 3.9375V19.6875C29.5312 19.8615 29.4621 20.0285 29.339 20.1515C29.216 20.2746 29.049 20.3438 28.875 20.3438H13.125C12.951 20.3438 12.784 20.2746 12.661 20.1515C12.5379 20.0285 12.4688 19.8615 12.4688 19.6875V3.9375Z" fill="url(#paint2_linear)"/>
<path d="M9.1875 18.375C9.36155 18.375 9.52847 18.3059 9.65154 18.1828C9.77461 18.0597 9.84375 17.8928 9.84375 17.7188V17.0625C9.84375 16.8885 9.77461 16.7215 9.65154 16.5985C9.52847 16.4754 9.36155 16.4062 9.1875 16.4062C9.01345 16.4062 8.84653 16.4754 8.72346 16.5985C8.60039 16.7215 8.53125 16.8885 8.53125 17.0625V17.7188C8.53125 17.8928 8.60039 18.0597 8.72346 18.1828C8.84653 18.3059 9.01345 18.375 9.1875 18.375Z" fill="url(#paint3_linear)"/>
<path d="M19.4564 11.7712C19.5305 11.7982 19.6086 11.8122 19.6874 11.8125C19.821 11.8127 19.9515 11.772 20.0614 11.696C20.1712 11.62 20.2553 11.5123 20.3023 11.3873L22.2711 6.13728C22.332 5.9742 22.3256 5.7936 22.2534 5.6352C22.1811 5.47681 22.0489 5.3536 21.8858 5.29269C21.7228 5.23177 21.5422 5.23813 21.3838 5.31038C21.2254 5.38262 21.1022 5.51482 21.0413 5.67791L19.0725 10.9279C19.0119 11.0907 19.0183 11.2708 19.0902 11.4289C19.1622 11.5869 19.2939 11.71 19.4564 11.7712Z" fill="url(#paint4_linear)"/>
<path d="M23.8875 11.6812C23.9564 11.733 24.0349 11.7706 24.1184 11.792C24.2019 11.8134 24.2887 11.8181 24.3741 11.8059C24.4594 11.7937 24.5414 11.7648 24.6156 11.7209C24.6898 11.677 24.7545 11.6189 24.8062 11.55L26.775 8.925C26.8602 8.81141 26.9062 8.67324 26.9062 8.53125C26.9062 8.38926 26.8602 8.25109 26.775 8.1375L24.8062 5.5125C24.7545 5.44356 24.6898 5.38547 24.6156 5.34156C24.5414 5.29766 24.4594 5.26878 24.3741 5.2566C24.2887 5.24441 24.2019 5.24914 24.1184 5.27053C24.0349 5.29192 23.9564 5.32954 23.8875 5.38125C23.8186 5.43296 23.7605 5.49774 23.7166 5.57189C23.6727 5.64605 23.6438 5.72813 23.6316 5.81344C23.6194 5.89876 23.6241 5.98564 23.6455 6.06912C23.6669 6.1526 23.7045 6.23106 23.7562 6.3L25.4297 8.53125L23.7562 10.7625C23.7045 10.8314 23.6669 10.9099 23.6455 10.9934C23.6241 11.0769 23.6194 11.1637 23.6316 11.2491C23.6438 11.3344 23.6727 11.4164 23.7166 11.4906C23.7605 11.5648 23.8186 11.6295 23.8875 11.6812Z" fill="url(#paint5_linear)"/>
<path d="M17.1938 11.55C17.2455 11.6189 17.3102 11.677 17.3844 11.7209C17.4586 11.7648 17.5406 11.7937 17.6259 11.8059C17.7113 11.8181 17.7981 11.8134 17.8816 11.792C17.9651 11.7706 18.0436 11.733 18.1125 11.6812C18.1815 11.6295 18.2395 11.5648 18.2834 11.4906C18.3274 11.4164 18.3562 11.3344 18.3684 11.2491C18.3806 11.1637 18.3759 11.0769 18.3545 10.9934C18.3331 10.9099 18.2955 10.8314 18.2438 10.7625L16.5703 8.53125L18.2438 6.3C18.3482 6.16076 18.393 5.98574 18.3684 5.81344C18.3438 5.64114 18.2517 5.48568 18.1125 5.38125C18.0436 5.32954 17.9651 5.29192 17.8816 5.27053C17.7981 5.24914 17.7113 5.24441 17.6259 5.2566C17.4536 5.28121 17.2982 5.37326 17.1938 5.5125L15.225 8.1375C15.1398 8.25109 15.0938 8.38926 15.0938 8.53125C15.0938 8.67324 15.1398 8.81141 15.225 8.925L17.1938 11.55Z" fill="url(#paint6_linear)"/>
<path d="M17.7188 13.7812C17.7188 13.9553 17.7879 14.1222 17.911 14.2453C18.034 14.3684 18.201 14.4375 18.375 14.4375H26.25C26.424 14.4375 26.591 14.3684 26.714 14.2453C26.8371 14.1222 26.9062 13.9553 26.9062 13.7812C26.9062 13.6072 26.8371 13.4403 26.714 13.3172C26.591 13.1941 26.424 13.125 26.25 13.125H18.375C18.201 13.125 18.034 13.1941 17.911 13.3172C17.7879 13.4403 17.7188 13.6072 17.7188 13.7812Z" fill="url(#paint7_linear)"/>
<path d="M15.75 16.4062H26.25C26.424 16.4062 26.591 16.3371 26.714 16.214C26.8371 16.091 26.9062 15.924 26.9062 15.75C26.9062 15.576 26.8371 15.409 26.714 15.286C26.591 15.1629 26.424 15.0938 26.25 15.0938H15.75C15.576 15.0938 15.409 15.1629 15.286 15.286C15.1629 15.409 15.0938 15.576 15.0938 15.75C15.0938 15.924 15.1629 16.091 15.286 16.214C15.409 16.3371 15.576 16.4062 15.75 16.4062Z" fill="url(#paint8_linear)"/>
<path d="M15.75 18.375H22.3125C22.4865 18.375 22.6535 18.3059 22.7765 18.1828C22.8996 18.0597 22.9688 17.8928 22.9688 17.7188C22.9688 17.5447 22.8996 17.3778 22.7765 17.2547C22.6535 17.1316 22.4865 17.0625 22.3125 17.0625H15.75C15.576 17.0625 15.409 17.1316 15.286 17.2547C15.1629 17.3778 15.0938 17.5447 15.0938 17.7188C15.0938 17.8928 15.1629 18.0597 15.286 18.1828C15.409 18.3059 15.576 18.375 15.75 18.375Z" fill="url(#paint9_linear)"/>
<path d="M24.9375 17.0625H24.2812C24.1072 17.0625 23.9403 17.1316 23.8172 17.2547C23.6941 17.3778 23.625 17.5447 23.625 17.7188C23.625 17.8928 23.6941 18.0597 23.8172 18.1828C23.9403 18.3059 24.1072 18.375 24.2812 18.375H24.9375C25.1115 18.375 25.2785 18.3059 25.4015 18.1828C25.5246 18.0597 25.5938 17.8928 25.5938 17.7188C25.5938 17.5447 25.5246 17.3778 25.4015 17.2547C25.2785 17.1316 25.1115 17.0625 24.9375 17.0625Z" fill="url(#paint10_linear)"/>
<path d="M15.75 14.4375H16.4062C16.5803 14.4375 16.7472 14.3684 16.8703 14.2453C16.9934 14.1222 17.0625 13.9553 17.0625 13.7812C17.0625 13.6072 16.9934 13.4403 16.8703 13.3172C16.7472 13.1941 16.5803 13.125 16.4062 13.125H15.75C15.576 13.125 15.409 13.1941 15.286 13.3172C15.1629 13.4403 15.0938 13.6072 15.0938 13.7812C15.0938 13.9553 15.1629 14.1222 15.286 14.2453C15.409 14.3684 15.576 14.4375 15.75 14.4375Z" fill="url(#paint11_linear)"/>
<defs>
<linearGradient id="paint0_linear" x1="20.0156" y1="19.0312" x2="20.0156" y2="40.6875" gradientUnits="userSpaceOnUse">
<stop stop-color="#6C23F5"/>
<stop offset="1" stop-color="#3A71FF"/>
</linearGradient>
<linearGradient id="paint1_linear" x1="40.3594" y1="39.375" x2="40.3594" y2="40.6875" gradientUnits="userSpaceOnUse">
<stop stop-color="#6C23F5"/>
<stop offset="1" stop-color="#3A71FF"/>
</linearGradient>
<linearGradient id="paint2_linear" x1="21" y1="1.96875" x2="21" y2="21.6562" gradientUnits="userSpaceOnUse">
<stop stop-color="#6C23F5"/>
<stop offset="1" stop-color="#3A71FF"/>
</linearGradient>
<linearGradient id="paint3_linear" x1="9.1875" y1="16.4062" x2="9.1875" y2="18.375" gradientUnits="userSpaceOnUse">
<stop stop-color="#6C23F5"/>
<stop offset="1" stop-color="#3A71FF"/>
</linearGradient>
<linearGradient id="paint4_linear" x1="20.6719" y1="5.25119" x2="20.6719" y2="11.8125" gradientUnits="userSpaceOnUse">
<stop stop-color="#6C23F5"/>
<stop offset="1" stop-color="#3A71FF"/>
</linearGradient>
<linearGradient id="paint5_linear" x1="25.2656" y1="5.25" x2="25.2656" y2="11.8125" gradientUnits="userSpaceOnUse">
<stop stop-color="#6C23F5"/>
<stop offset="1" stop-color="#3A71FF"/>
</linearGradient>
<linearGradient id="paint6_linear" x1="16.7344" y1="5.25" x2="16.7344" y2="11.8125" gradientUnits="userSpaceOnUse">
<stop stop-color="#6C23F5"/>
<stop offset="1" stop-color="#3A71FF"/>
</linearGradient>
<linearGradient id="paint7_linear" x1="22.3125" y1="13.125" x2="22.3125" y2="14.4375" gradientUnits="userSpaceOnUse">
<stop stop-color="#6C23F5"/>
<stop offset="1" stop-color="#3A71FF"/>
</linearGradient>
<linearGradient id="paint8_linear" x1="21" y1="15.0938" x2="21" y2="16.4062" gradientUnits="userSpaceOnUse">
<stop stop-color="#6C23F5"/>
<stop offset="1" stop-color="#3A71FF"/>
</linearGradient>
<linearGradient id="paint9_linear" x1="19.0312" y1="17.0625" x2="19.0312" y2="18.375" gradientUnits="userSpaceOnUse">
<stop stop-color="#6C23F5"/>
<stop offset="1" stop-color="#3A71FF"/>
</linearGradient>
<linearGradient id="paint10_linear" x1="24.6094" y1="17.0625" x2="24.6094" y2="18.375" gradientUnits="userSpaceOnUse">
<stop stop-color="#6C23F5"/>
<stop offset="1" stop-color="#3A71FF"/>
</linearGradient>
<linearGradient id="paint11_linear" x1="16.0781" y1="13.125" x2="16.0781" y2="14.4375" gradientUnits="userSpaceOnUse">
<stop stop-color="#6C23F5"/>
<stop offset="1" stop-color="#3A71FF"/>
</linearGradient>
</defs>
</svg>
