<svg width="32" height="32" viewBox="0 0 32 32" fill="none" xmlns="http://www.w3.org/2000/svg">
<path d="M10.4997 28.085L10.4147 28L6.49473 24.08L4.84473 25.255L7.58473 28L9.08473 29.5C9.27332 29.6858 9.52746 29.79 9.79223 29.79C10.057 29.79 10.3111 29.6858 10.4997 29.5C10.5927 29.4071 10.6665 29.2968 10.7168 29.1754C10.7671 29.054 10.793 28.9239 10.793 28.7925C10.793 28.661 10.7671 28.5309 10.7168 28.4095C10.6665 28.2881 10.5927 28.1778 10.4997 28.085Z" fill="#56CCDB"/>
<path d="M3.50048 23.915V23.91L3.43048 23.845L2.37048 22.78L1.66047 23.49C1.5675 23.5829 1.49374 23.6932 1.44341 23.8146C1.39309 23.936 1.36719 24.0661 1.36719 24.1975C1.36719 24.3289 1.39309 24.4591 1.44341 24.5805C1.49374 24.7019 1.5675 24.8122 1.66047 24.905L2.37048 25.61C2.51578 25.755 2.70233 25.8516 2.9046 25.8865C3.10687 25.9214 3.31499 25.8929 3.50048 25.805C3.60487 25.7576 3.69976 25.6915 3.78048 25.61L4.49048 24.905L3.50048 23.915Z" fill="#56CCDB"/>
<path d="M9.65976 21.5851L5.72477 17.6551L5.54977 17.4801L3.49977 20.3501L2.25977 22.0851C2.19097 22.1817 2.15873 22.2996 2.1688 22.4177C2.17888 22.5359 2.23061 22.6466 2.31477 22.7301L2.36977 22.7801L3.49977 23.9151L4.48977 24.9051L4.84477 25.2551L6.49477 24.0801L9.79476 21.7201L9.65976 21.5851Z" fill="#56CCDB"/>
<path d="M11.3845 19.775C11.6245 20.0037 11.7639 20.3185 11.7718 20.6499C11.7798 20.9814 11.6558 21.3025 11.427 21.5425C11.1983 21.7825 10.8835 21.9218 10.5521 21.9298C10.2206 21.9378 9.89955 21.8137 9.65953 21.585L5.72453 17.655C5.60531 17.5395 5.51029 17.4014 5.445 17.2488C5.37972 17.0962 5.34547 16.9322 5.34427 16.7662C5.34307 16.6002 5.37493 16.4357 5.438 16.2822C5.50107 16.1286 5.59408 15.9892 5.71161 15.872C5.82913 15.7548 5.96882 15.6622 6.12253 15.5996C6.27623 15.5369 6.44087 15.5055 6.60683 15.5072C6.7728 15.5089 6.93677 15.5436 7.08918 15.6093C7.24159 15.675 7.37938 15.7704 7.49453 15.89L8.37953 16.77L10.4995 18.895L11.3845 19.775Z" fill="#56CCDB"/>
<path d="M15 16.92V8.5C15 8.36739 15.0527 8.24021 15.1464 8.14645C15.2402 8.05268 15.3674 8 15.5 8H27.5C27.6326 8 27.7598 8.05268 27.8536 8.14645C27.9473 8.24021 28 8.36739 28 8.5V20.5C28 20.6326 27.9473 20.7598 27.8536 20.8536C27.7598 20.9473 27.6326 21 27.5 21H15.5C15.3674 21 15.2402 20.9473 15.1464 20.8536C15.0527 20.7598 15 20.6326 15 20.5V16.92ZM20 16L23 14.5L20 13V16Z" fill="#56CCDB"/>
<path d="M30.5 3.5V5.5H3.5V3.5C3.5 2.96957 3.71071 2.46086 4.08579 2.08579C4.46086 1.71071 4.96957 1.5 5.5 1.5H28.5C29.0304 1.5 29.5391 1.71071 29.9142 2.08579C30.2893 2.46086 30.5 2.96957 30.5 3.5Z" fill="#56CCDB"/>
<path d="M4.84082 21.7203L5.54793 21.0132L6.25503 21.7203L5.54793 22.4274L4.84082 21.7203Z" fill="white"/>
<path d="M11.5581 15.0058L12.9723 13.5916L13.6794 14.2987L12.2652 15.7129L11.5581 15.0058Z" fill="white"/>
<path d="M9.31934 13.7775L10.0259 11.6555L10.9749 11.9715L10.2683 14.0935L9.31934 13.7775Z" fill="white"/>
<path d="M13.1699 17.0144L15.2919 16.3078L15.6079 17.2568L13.4859 17.9634L13.1699 17.0144Z" fill="white"/>
<path d="M28.5 1H5.50004C4.83724 1.00079 4.20182 1.26444 3.73315 1.73311C3.26448 2.20178 3.00083 2.8372 3.00004 3.5V20.1895L1.85404 21.7935C1.7601 21.9252 1.69971 22.0778 1.6781 22.2381C1.6565 22.3985 1.67432 22.5616 1.73004 22.7135L1.30754 23.136C1.02679 23.4176 0.869141 23.7991 0.869141 24.1968C0.869141 24.5944 1.02679 24.9759 1.30754 25.2575L2.01454 25.9645C2.28749 26.2366 2.65518 26.3925 3.04054 26.3995C3.13519 26.9842 3.4344 27.5164 3.88484 27.9011C4.33528 28.2858 4.90769 28.498 5.50004 28.5H7.37954L8.72954 29.8535C8.95695 30.0818 9.25186 30.2309 9.57058 30.2785C9.88931 30.3261 10.2149 30.2699 10.4991 30.118C10.7834 29.9661 11.0112 29.7268 11.1488 29.4354C11.2863 29.144 11.3264 28.816 11.263 28.5H28.5C29.1628 28.4992 29.7983 28.2356 30.2669 27.7669C30.7356 27.2982 30.9992 26.6628 31 26V3.5C30.9992 2.8372 30.7356 2.20178 30.2669 1.73311C29.7983 1.26444 29.1628 1.00079 28.5 1ZM5.50004 2H28.5C28.8979 2 29.2794 2.15804 29.5607 2.43934C29.842 2.72064 30 3.10218 30 3.5V5H4.00004V3.5C4.00004 3.10218 4.15807 2.72064 4.43938 2.43934C4.72068 2.15804 5.10221 2 5.50004 2ZM5.61404 18.25L9.02204 21.658L4.89704 24.604L4.13604 23.843L4.84304 23.136L4.13604 22.429L3.42904 23.136L2.66804 22.375L5.61404 18.25ZM10.4015 18.088L9.18454 16.8705C9.35309 16.8246 9.53078 16.8241 9.69958 16.869C9.86839 16.914 10.0223 17.0028 10.1457 17.1264C10.2691 17.25 10.3577 17.4041 10.4023 17.573C10.447 17.7418 10.4462 17.9195 10.4 18.088H10.4015ZM11.0305 20.131C11.1712 20.2717 11.2501 20.4625 11.2501 20.6614C11.2501 20.8604 11.171 21.0511 11.0303 21.1917C10.8896 21.3324 10.6988 21.4114 10.4999 21.4113C10.3009 21.4113 10.1102 21.3322 9.96954 21.1915L6.08054 17.3C5.93984 17.1593 5.8608 16.9685 5.8608 16.7695C5.8608 16.5705 5.93984 16.3797 6.08054 16.239C6.22123 16.0983 6.41206 16.0193 6.61104 16.0193C6.81001 16.0193 7.00084 16.0983 7.14154 16.239L11.0305 20.131ZM2.01504 24.55C1.96855 24.5036 1.93167 24.4484 1.90651 24.3877C1.88135 24.327 1.86839 24.262 1.86839 24.1963C1.86839 24.1305 1.88135 24.0655 1.90651 24.0048C1.93167 23.9441 1.96855 23.8889 2.01504 23.8425L2.36854 23.489L3.78304 24.903L3.42954 25.257C3.3831 25.3035 3.32796 25.3404 3.26726 25.3655C3.20656 25.3907 3.1415 25.4036 3.07579 25.4036C3.01008 25.4036 2.94502 25.3907 2.88432 25.3655C2.82362 25.3404 2.76847 25.3035 2.72204 25.257L2.01504 24.55ZM5.50004 27.5C5.11518 27.4986 4.74557 27.3494 4.46768 27.0831C4.18979 26.8168 4.02487 26.4539 4.00704 26.0695C4.05204 26.037 4.09512 26.002 4.13604 25.9645L4.48954 25.6105C4.49304 25.614 4.49804 25.615 4.50154 25.618L6.38054 27.5H5.50004ZM10.1465 29.1465C10.0517 29.2385 9.9247 29.29 9.79254 29.29C9.66038 29.29 9.53341 29.2385 9.43854 29.1465L5.61654 25.3195L6.43954 24.7315L10.146 28.4385C10.1926 28.4849 10.2296 28.5401 10.2549 28.6008C10.2801 28.6615 10.2931 28.7266 10.2932 28.7924C10.2932 28.8582 10.2803 28.9233 10.2551 28.9841C10.23 29.0448 10.1931 29.1 10.1465 29.1465ZM28.5 27.5H10.622L7.26454 24.1425L9.86054 22.288C10.2344 22.4338 10.647 22.4466 11.0291 22.3244C11.4113 22.2022 11.7399 21.9524 11.9599 21.6168C12.1798 21.2812 12.2778 20.8802 12.2373 20.481C12.1968 20.0818 12.0204 19.7086 11.7375 19.424L11.157 18.843C11.3831 18.4626 11.4759 18.0178 11.4209 17.5788C11.3659 17.1398 11.1662 16.7316 10.8533 16.4187C10.5405 16.1058 10.1323 15.9061 9.69326 15.8511C9.25424 15.7961 8.80941 15.889 8.42904 16.115L7.85004 15.5345C7.56548 15.2514 7.19223 15.0747 6.79287 15.034C6.39351 14.9934 5.99231 15.0913 5.65655 15.3113C5.32079 15.5313 5.07087 15.86 4.9487 16.2424C4.82653 16.6248 4.83954 17.0376 4.98554 17.4115L4.00004 18.7895V6H30V26C30 26.3978 29.842 26.7794 29.5607 27.0607C29.2794 27.342 28.8979 27.5 28.5 27.5Z" fill="white"/>
<path d="M6 3H7V4H6V3Z" fill="white"/>
<path d="M8 3H9V4H8V3Z" fill="white"/>
<path d="M10 3H11V4H10V3Z" fill="white"/>
<path d="M27.5 7.5H15.5C15.2348 7.5 14.9804 7.60536 14.7929 7.79289C14.6054 7.98043 14.5 8.23478 14.5 8.5V15.5H15.5V8.5H27.5V20.5H15.5V18.5H14.5V20.5C14.5 20.7652 14.6054 21.0196 14.7929 21.2071C14.9804 21.3946 15.2348 21.5 15.5 21.5H27.5C27.7652 21.5 28.0196 21.3946 28.2071 21.2071C28.3946 21.0196 28.5 20.7652 28.5 20.5V8.5C28.5 8.23478 28.3946 7.98043 28.2071 7.79289C28.0196 7.60536 27.7652 7.5 27.5 7.5Z" fill="white"/>
<path d="M20 16.5C20.0774 16.5009 20.1539 16.4838 20.2235 16.45L23.2235 14.95C23.3067 14.9086 23.3767 14.8447 23.4256 14.7657C23.4745 14.6866 23.5005 14.5955 23.5005 14.5025C23.5005 14.4096 23.4745 14.3185 23.4256 14.2394C23.3767 14.1604 23.3067 14.0965 23.2235 14.0551L20.2235 12.5551C20.1474 12.517 20.0629 12.4991 19.978 12.5028C19.8931 12.5065 19.8105 12.5319 19.738 12.5764C19.6656 12.621 19.6058 12.6833 19.5641 12.7574C19.5224 12.8315 19.5004 12.915 19.5 13.0001V16C19.5 16.1327 19.5527 16.2598 19.6464 16.3536C19.7402 16.4474 19.8674 16.5 20 16.5ZM20.5 13.8091L21.882 14.5L20.5 15.191V13.8091Z" fill="white"/>
<path d="M14.5 23H16.5V24H14.5V23Z" fill="white"/>
<path d="M17.5 23H21.5V24H17.5V23Z" fill="white"/>
<path d="M22.5 23H28.5V24H22.5V23Z" fill="white"/>
<path d="M14.5 25H20.5V26H14.5V25Z" fill="white"/>
<path d="M21.5 25H28.5V26H21.5V25Z" fill="white"/>
</svg>
