<svg width="20" height="20" viewBox="0 0 20 20" fill="none" xmlns="http://www.w3.org/2000/svg">
<path d="M9.99577 0C5.57648 0 1.979 3.59748 1.979 8.01677C1.979 8.51992 2.02513 9.02725 2.12156 9.52201C2.12575 9.55136 2.14253 9.63941 2.17607 9.79036C2.29766 10.3312 2.47796 10.8637 2.71276 11.3711C3.57649 13.4046 5.47586 16.5283 9.64357 19.8742C9.74839 19.9581 9.87417 20 9.99996 20C10.1257 20 10.2515 19.9581 10.3564 19.8742C14.5199 16.5283 16.4234 13.4046 17.2872 11.3711C17.522 10.8637 17.7023 10.3354 17.8239 9.79036C17.8574 9.63941 17.8742 9.55136 17.8784 9.52201C17.9706 9.02725 18.0209 8.51992 18.0209 8.01677C18.0125 3.59748 14.415 0 9.99577 0ZM16.7547 9.32495C16.7547 9.33333 16.7505 9.34172 16.7505 9.3501C16.7463 9.37107 16.7337 9.43396 16.7127 9.5304C16.7127 9.53459 16.7127 9.53459 16.7127 9.53878C16.6079 10.0084 16.4528 10.4654 16.2473 10.9057C16.2431 10.9099 16.2431 10.9182 16.2389 10.9224C15.4549 12.7799 13.7358 15.6143 9.99577 18.7044C6.25573 15.6143 4.53665 12.7799 3.75259 10.9224C3.74839 10.9182 3.74839 10.9099 3.7442 10.9057C3.54294 10.4696 3.38781 10.0084 3.27879 9.53878C3.27879 9.53459 3.27879 9.53459 3.27879 9.5304C3.25364 9.43396 3.24525 9.37107 3.24106 9.3501C3.24106 9.34172 3.23686 9.33333 3.23686 9.32075C3.15301 8.88889 3.11108 8.45283 3.11108 8.01258C3.11108 4.21803 6.20122 1.12788 9.99577 1.12788C13.7903 1.12788 16.8805 4.21803 16.8805 8.01258C16.8805 8.45702 16.8385 8.89727 16.7547 9.32495Z" fill="white" fill-opacity="0.8"/>
<path d="M9.99591 3.01477C7.19088 3.01477 4.90576 5.29989 4.90576 8.10492C4.90576 10.9099 7.19088 13.1951 9.99591 13.1951C12.8009 13.1951 15.0861 10.9099 15.0861 8.10492C15.0861 5.29989 12.8009 3.01477 9.99591 3.01477ZM9.99591 12.063C7.81142 12.063 6.03784 10.2852 6.03784 8.10492C6.03784 5.92462 7.81561 4.14685 9.99591 4.14685C12.1762 4.14685 13.954 5.92462 13.954 8.10492C13.954 10.2852 12.1804 12.063 9.99591 12.063Z" fill="white" fill-opacity="0.8"/>
</svg>
