<svg width="42" height="42" viewBox="0 0 42 42" fill="none" xmlns="http://www.w3.org/2000/svg">
<path d="M10.5 20.3438C12.4469 20.3438 14.3501 19.7664 15.9689 18.6848C17.5877 17.6031 18.8494 16.0658 19.5944 14.267C20.3395 12.4683 20.5344 10.4891 20.1546 8.57958C19.7748 6.67008 18.8373 4.9161 17.4606 3.53942C16.0839 2.16275 14.3299 1.22522 12.4204 0.845399C10.5109 0.465576 8.53167 0.660515 6.73296 1.40557C4.93425 2.15062 3.39687 3.41231 2.31522 5.03111C1.23358 6.64991 0.65625 8.55309 0.65625 10.5C0.659203 13.1098 1.69726 15.6119 3.54268 17.4573C5.3881 19.3027 7.89018 20.3408 10.5 20.3438ZM10.5 1.96875C12.1873 1.96875 13.8368 2.4691 15.2397 3.40653C16.6427 4.34396 17.7361 5.67635 18.3818 7.23524C19.0276 8.79412 19.1965 10.5095 18.8673 12.1644C18.5381 13.8193 17.7256 15.3394 16.5325 16.5325C15.3394 17.7256 13.8193 18.5381 12.1644 18.8673C10.5095 19.1965 8.79411 19.0276 7.23523 18.3819C5.67635 17.7361 4.34395 16.6427 3.40652 15.2397C2.4691 13.8368 1.96875 12.1873 1.96875 10.5C1.97136 8.23818 2.87102 6.06973 4.47037 4.47038C6.06973 2.87102 8.23817 1.97136 10.5 1.96875Z" fill="url(#paint0_linear)"/>
<path d="M6.78759 16.9969L7.95834 15.8268C8.14515 15.9157 8.33636 15.995 8.53125 16.0643V17.7188C8.53125 17.8928 8.60039 18.0597 8.72346 18.1828C8.84653 18.3059 9.01345 18.375 9.1875 18.375H11.8125C11.9865 18.375 12.1535 18.3059 12.2765 18.1828C12.3996 18.0597 12.4688 17.8928 12.4688 17.7188V16.0637C12.6636 15.9943 12.8549 15.915 13.0417 15.8261L14.2124 16.9969C14.3355 17.1199 14.5024 17.189 14.6764 17.189C14.8504 17.189 15.0173 17.1199 15.1403 16.9969L16.9969 15.1403C17.1199 15.0173 17.189 14.8504 17.189 14.6764C17.189 14.5024 17.1199 14.3355 16.9969 14.2124L15.8261 13.0417C15.9152 12.8549 15.9945 12.6637 16.0637 12.4688H17.7188C17.8928 12.4688 18.0597 12.3996 18.1828 12.2765C18.3059 12.1535 18.375 11.9865 18.375 11.8125V9.1875C18.375 9.01345 18.3059 8.84653 18.1828 8.72346C18.0597 8.60039 17.8928 8.53125 17.7188 8.53125H16.0637C15.9942 8.33629 15.9147 8.14507 15.8255 7.95834L16.9969 6.78759C17.1199 6.66453 17.189 6.49764 17.189 6.32362C17.189 6.14961 17.1199 5.98272 16.9969 5.85966L15.1403 4.00312C15.0173 3.8801 14.8504 3.81098 14.6764 3.81098C14.5024 3.81098 14.3355 3.8801 14.2124 4.00312L13.0417 5.17387C12.8549 5.08499 12.6636 5.0057 12.4688 4.93631V3.28125C12.4688 3.1072 12.3996 2.94028 12.2765 2.81721C12.1535 2.69414 11.9865 2.625 11.8125 2.625H9.1875C9.01345 2.625 8.84653 2.69414 8.72346 2.81721C8.60039 2.94028 8.53125 3.1072 8.53125 3.28125V4.93631C8.33636 5.0057 8.14515 5.08499 7.95834 5.17387L6.78759 4.00312C6.66453 3.8801 6.49764 3.81098 6.32362 3.81098C6.14961 3.81098 5.98272 3.8801 5.85966 4.00312L4.00312 5.85966C3.8801 5.98272 3.81098 6.14961 3.81098 6.32362C3.81098 6.49764 3.8801 6.66453 4.00312 6.78759L5.17387 7.95834C5.08484 8.14508 5.00555 8.3363 4.93631 8.53125H3.28125C3.1072 8.53125 2.94028 8.60039 2.81721 8.72346C2.69414 8.84653 2.625 9.01345 2.625 9.1875V11.8125C2.625 11.9865 2.69414 12.1535 2.81721 12.2765C2.94028 12.3996 3.1072 12.4688 3.28125 12.4688H4.93631C5.00576 12.6637 5.08527 12.8549 5.17453 13.0417L4.00312 14.2124C3.8801 14.3355 3.81098 14.5024 3.81098 14.6764C3.81098 14.8504 3.8801 15.0173 4.00312 15.1403L5.85966 16.9969C5.98272 17.1199 6.14961 17.189 6.32362 17.189C6.49764 17.189 6.66453 17.1199 6.78759 16.9969ZM6.54675 12.8297C6.32906 12.4607 6.16406 12.0631 6.05653 11.6484C6.02019 11.5077 5.93816 11.383 5.82331 11.2939C5.70846 11.2049 5.56729 11.1564 5.42194 11.1562H3.9375V9.84375H5.42194C5.56729 9.84357 5.70846 9.79514 5.82331 9.70606C5.93816 9.61698 6.02019 9.4923 6.05653 9.35156C6.16406 8.93688 6.32906 8.53928 6.54675 8.17031C6.62075 8.04487 6.65092 7.89837 6.6325 7.7539C6.61409 7.60942 6.54813 7.47518 6.44503 7.37231L5.39503 6.32231L6.32362 5.39569L7.37362 6.44569C7.47657 6.54869 7.61085 6.61452 7.75533 6.63281C7.8998 6.65111 8.04625 6.62083 8.17162 6.54675C8.54066 6.32952 8.93826 6.16496 9.35287 6.05784C9.49358 6.0212 9.61813 5.93887 9.70698 5.82378C9.79583 5.70868 9.84394 5.56734 9.84375 5.42194V3.9375H11.1562V5.42194C11.1563 5.5674 11.2046 5.70872 11.2937 5.82371C11.3828 5.93869 11.5076 6.02082 11.6484 6.05719C12.0631 6.1643 12.4606 6.32886 12.8297 6.54609C12.9551 6.62018 13.1015 6.65045 13.246 6.63216C13.3905 6.61386 13.5247 6.54803 13.6277 6.44503L14.6777 5.39503L15.6056 6.32297L14.5556 7.37297C14.4525 7.47584 14.3866 7.61008 14.3682 7.75456C14.3497 7.89903 14.3799 8.04553 14.4539 8.17097C14.6716 8.53993 14.8366 8.93754 14.9441 9.35222C14.9805 9.49295 15.0625 9.61764 15.1773 9.70672C15.2922 9.7958 15.4334 9.84423 15.5787 9.84441H17.0625V11.1569H15.5781C15.4327 11.1571 15.2915 11.2055 15.1767 11.2946C15.0618 11.3837 14.9798 11.5084 14.9435 11.6491C14.8359 12.0638 14.6709 12.4614 14.4532 12.8303C14.3792 12.9558 14.3491 13.1023 14.3675 13.2468C14.3859 13.3912 14.4519 13.5255 14.555 13.6283L15.605 14.6783L14.677 15.6063L13.627 14.5563C13.5241 14.4533 13.3898 14.3875 13.2453 14.3692C13.1009 14.3509 12.9544 14.3811 12.829 14.4552C12.46 14.6724 12.0624 14.837 11.6478 14.9441C11.5069 14.9805 11.3822 15.0626 11.2931 15.1776C11.204 15.2926 11.1556 15.4339 11.1556 15.5794V17.0625H9.84375V15.5781C9.84371 15.4326 9.79535 15.2913 9.70626 15.1763C9.61717 15.0613 9.4924 14.9792 9.35156 14.9428C8.93695 14.8357 8.53935 14.6711 8.17031 14.4539C8.04494 14.3798 7.89849 14.3495 7.75401 14.3678C7.60954 14.3861 7.47526 14.452 7.37231 14.555L6.32231 15.605L5.39569 14.6764L6.44569 13.6264C6.54853 13.5235 6.61427 13.3893 6.63256 13.245C6.65085 13.1007 6.62067 12.9543 6.54675 12.829V12.8297Z" fill="url(#paint1_linear)"/>
<path d="M10.5 12.4687C10.8894 12.4687 11.27 12.3533 11.5938 12.1369C11.9175 11.9206 12.1699 11.6131 12.3189 11.2534C12.4679 10.8936 12.5069 10.4978 12.4309 10.1159C12.355 9.73398 12.1674 9.38319 11.8921 9.10785C11.6168 8.83252 11.266 8.64501 10.8841 8.56905C10.5022 8.49308 10.1063 8.53207 9.74659 8.68108C9.38685 8.83009 9.07937 9.08243 8.86304 9.40619C8.64672 9.72995 8.53125 10.1106 8.53125 10.5C8.53125 11.0221 8.73867 11.5229 9.10788 11.8921C9.47709 12.2613 9.97785 12.4687 10.5 12.4687ZM10.5 9.84372C10.6298 9.84372 10.7567 9.88221 10.8646 9.95432C10.9725 10.0264 11.0566 10.1289 11.1063 10.2488C11.156 10.3687 11.169 10.5007 11.1436 10.628C11.1183 10.7553 11.0558 10.8722 10.964 10.964C10.8723 11.0558 10.7553 11.1183 10.628 11.1436C10.5007 11.1689 10.3688 11.1559 10.2489 11.1063C10.1289 11.0566 10.0265 10.9725 9.95435 10.8646C9.88224 10.7566 9.84375 10.6298 9.84375 10.5C9.84375 10.3259 9.91289 10.159 10.036 10.0359C10.159 9.91286 10.3259 9.84372 10.5 9.84372Z" fill="url(#paint2_linear)"/>
<path d="M31.5 20.3438C33.4469 20.3438 35.3501 19.7664 36.9689 18.6848C38.5877 17.6031 39.8494 16.0658 40.5944 14.267C41.3395 12.4683 41.5344 10.4891 41.1546 8.57958C40.7748 6.67008 39.8373 4.9161 38.4606 3.53942C37.0839 2.16275 35.3299 1.22522 33.4204 0.845399C31.5109 0.465576 29.5317 0.660515 27.733 1.40557C25.9343 2.15062 24.3969 3.41231 23.3152 5.03111C22.2336 6.64991 21.6562 8.55309 21.6562 10.5C21.6592 13.1098 22.6973 15.6119 24.5427 17.4573C26.3881 19.3027 28.8902 20.3408 31.5 20.3438ZM31.5 1.96875C33.1873 1.96875 34.8368 2.4691 36.2397 3.40653C37.6427 4.34396 38.7361 5.67635 39.3818 7.23524C40.0276 8.79412 40.1965 10.5095 39.8673 12.1644C39.5381 13.8193 38.7256 15.3394 37.5325 16.5325C36.3394 17.7256 34.8193 18.5381 33.1644 18.8673C31.5095 19.1965 29.7941 19.0276 28.2352 18.3819C26.6763 17.7361 25.344 16.6427 24.4065 15.2397C23.4691 13.8368 22.9687 12.1873 22.9687 10.5C22.9714 8.23818 23.871 6.06973 25.4704 4.47038C27.0697 2.87102 29.2382 1.97136 31.5 1.96875Z" fill="url(#paint3_linear)"/>
<path d="M26.987 16.9536C27.0967 17.0314 27.2279 17.0731 27.3624 17.073C27.5015 17.0726 27.6368 17.028 27.7489 16.9457C27.861 16.8633 27.944 16.7475 27.986 16.6149C28.028 16.4823 28.0268 16.3398 27.9825 16.2079C27.9383 16.0761 27.8532 15.9617 27.7397 15.8813C27.0859 15.4239 26.5209 14.8513 26.0722 14.1914C25.9742 14.0476 25.8231 13.9486 25.6521 13.9161C25.4811 13.8837 25.3042 13.9205 25.1603 14.0185C25.0165 14.1165 24.9175 14.2676 24.885 14.4386C24.8526 14.6096 24.8894 14.7865 24.9874 14.9304C25.5252 15.7209 26.2029 16.4065 26.987 16.9536Z" fill="url(#paint4_linear)"/>
<path d="M36.4031 14.8621C35.8731 15.4583 35.2389 15.9529 34.5315 16.3216C34.3771 16.4022 34.2611 16.5408 34.2089 16.7069C34.1567 16.8731 34.1727 17.0532 34.2532 17.2075C34.3338 17.3619 34.4724 17.478 34.6386 17.5301C34.8047 17.5823 34.9848 17.5664 35.1392 17.4858C35.9873 17.0431 36.7478 16.4498 37.3835 15.7349C37.4993 15.6049 37.5586 15.4342 37.5486 15.2605C37.5385 15.0867 37.4597 14.924 37.3297 14.8083C37.1997 14.6925 37.0291 14.6332 36.8553 14.6433C36.6815 14.6534 36.5189 14.7321 36.4031 14.8621Z" fill="url(#paint5_linear)"/>
<path d="M24.8289 7.65773C24.982 7.7402 25.1616 7.75853 25.3282 7.7087C25.4948 7.65886 25.6348 7.54494 25.7175 7.39195C26.0962 6.68941 26.5997 6.06166 27.2032 5.53936C27.2697 5.48333 27.3244 5.41464 27.3641 5.33728C27.4038 5.25993 27.4278 5.17546 27.4346 5.08877C27.4413 5.00209 27.4308 4.91492 27.4036 4.83233C27.3764 4.74974 27.3331 4.67338 27.2761 4.60768C27.2192 4.54198 27.1497 4.48826 27.0718 4.44963C26.9939 4.411 26.9091 4.38824 26.8224 4.38267C26.7356 4.37709 26.6486 4.38882 26.5664 4.41716C26.4842 4.4455 26.4084 4.4899 26.3435 4.54777C25.6198 5.17344 25.0164 5.92603 24.5631 6.76852C24.5222 6.84435 24.4966 6.92751 24.4878 7.01324C24.479 7.09898 24.4872 7.1856 24.5119 7.26817C24.5365 7.35074 24.5772 7.42764 24.6316 7.49449C24.686 7.56133 24.7531 7.6168 24.8289 7.65773Z" fill="url(#paint6_linear)"/>
<path d="M29.0219 4.37519C29.0987 4.37482 29.1749 4.36105 29.247 4.3345C29.9688 4.07086 30.7314 3.93646 31.4999 3.93747H31.5885C31.761 3.93471 31.9259 3.86573 32.049 3.74481C32.1722 3.62388 32.2441 3.46026 32.25 3.28779C32.2508 3.2015 32.2347 3.11588 32.2024 3.03585C32.1702 2.95581 32.1224 2.88292 32.062 2.82136C32.0015 2.75979 31.9295 2.71076 31.85 2.67706C31.7706 2.64336 31.6853 2.62566 31.599 2.62498H31.4999C30.5776 2.62383 29.6623 2.78534 28.7961 3.10207C28.6509 3.15478 28.5289 3.25703 28.4517 3.39084C28.3744 3.52464 28.3469 3.6814 28.3739 3.83352C28.4008 3.98565 28.4806 4.12338 28.5991 4.22246C28.7177 4.32155 28.8674 4.37563 29.0219 4.37519Z" fill="url(#paint7_linear)"/>
<path d="M32.2657 17.0186C31.4734 17.1097 30.6712 17.0579 29.8973 16.8657C29.8128 16.8419 29.7245 16.8354 29.6374 16.8464C29.5504 16.8574 29.4665 16.8857 29.3906 16.9297C29.3147 16.9737 29.2484 17.0325 29.1956 17.1025C29.1428 17.1726 29.1046 17.2525 29.0832 17.3376C29.0619 17.4227 29.0578 17.5111 29.0712 17.5978C29.0846 17.6845 29.1153 17.7676 29.1614 17.8423C29.2075 17.9169 29.2681 17.9815 29.3396 18.0324C29.4111 18.0832 29.492 18.1191 29.5777 18.1381C30.5051 18.3702 31.467 18.4324 32.4166 18.3219C32.5859 18.2976 32.739 18.2083 32.8434 18.0729C32.9477 17.9374 32.9951 17.7666 32.9755 17.5968C32.9558 17.4269 32.8706 17.2714 32.738 17.1635C32.6055 17.0555 32.436 17.0035 32.2657 17.0186Z" fill="url(#paint8_linear)"/>
<path d="M25.1154 12.0205C24.9316 11.2441 24.8898 10.4408 24.992 9.64948C25.0065 9.56253 25.0033 9.47355 24.9827 9.38784C24.962 9.30214 24.9243 9.22148 24.8718 9.15067C24.8193 9.07986 24.753 9.02035 24.677 8.97571C24.601 8.93106 24.5168 8.90218 24.4294 8.89081C24.342 8.87943 24.2531 8.88578 24.1682 8.90948C24.0833 8.93318 24.0041 8.97374 23.9352 9.02875C23.8663 9.08375 23.8092 9.15208 23.7673 9.22964C23.7254 9.3072 23.6995 9.3924 23.6913 9.48017C23.6469 9.81829 23.6247 10.159 23.625 10.5C23.6255 11.1134 23.6966 11.7246 23.837 12.3217C23.871 12.4655 23.9525 12.5937 24.0684 12.6854C24.1843 12.7771 24.3277 12.827 24.4755 12.827C24.5265 12.8269 24.5774 12.821 24.6271 12.8093C24.7964 12.7694 24.9429 12.6639 25.0345 12.516C25.1261 12.3681 25.1551 12.1899 25.1154 12.0205Z" fill="url(#paint9_linear)"/>
<path d="M38.027 9.82015C38.0388 9.94152 38.0843 10.0572 38.1582 10.1542C38.0948 10.2583 38.0616 10.3781 38.0624 10.5C38.0635 11.2977 37.9187 12.0888 37.6352 12.8343C37.5733 12.997 37.5786 13.1775 37.6499 13.3363C37.7211 13.495 37.8525 13.619 38.0152 13.6809C38.0895 13.7095 38.1685 13.7242 38.2481 13.7242C38.3812 13.7242 38.5111 13.6839 38.6207 13.6084C38.7303 13.5329 38.8143 13.4259 38.8617 13.3016C39.2022 12.4068 39.3761 11.4573 39.3749 10.5C39.3751 10.3548 39.3268 10.2137 39.2377 10.0991C39.3147 9.97547 39.3484 9.8298 39.3336 9.68496C39.2351 8.73413 38.9636 7.80934 38.5323 6.95627C38.4951 6.87663 38.4424 6.80525 38.3772 6.74638C38.3119 6.6875 38.2355 6.64233 38.1525 6.61354C38.0695 6.58476 37.9815 6.57294 37.8938 6.57879C37.8061 6.58464 37.7205 6.60804 37.642 6.6476C37.5636 6.68716 37.4939 6.74208 37.437 6.8091C37.3802 6.87612 37.3374 6.95387 37.3112 7.03775C37.2849 7.12162 37.2758 7.2099 37.2844 7.29737C37.2929 7.38483 37.3189 7.46968 37.3609 7.5469C37.7198 8.25763 37.9456 9.02809 38.027 9.82015Z" fill="url(#paint10_linear)"/>
<path d="M33.9139 4.39689C34.6555 4.69026 35.3372 5.11685 35.9253 5.65557C35.9889 5.71375 36.0633 5.75882 36.1444 5.78823C36.2254 5.81763 36.3114 5.83079 36.3975 5.82695C36.4836 5.82311 36.5681 5.80235 36.6462 5.76585C36.7243 5.72935 36.7944 5.67783 36.8526 5.61423C36.9108 5.55063 36.9558 5.47619 36.9852 5.39517C37.0146 5.31415 37.0278 5.22813 37.024 5.14203C37.0201 5.05592 36.9994 4.97142 36.9629 4.89333C36.9264 4.81525 36.8748 4.74512 36.8112 4.68695C36.1052 4.04091 35.2869 3.52937 34.3969 3.17757C34.3167 3.14586 34.2311 3.13024 34.1449 3.13161C34.0588 3.13298 33.9737 3.15132 33.8946 3.18556C33.8155 3.21981 33.7439 3.2693 33.6839 3.33121C33.624 3.39312 33.5768 3.46624 33.5451 3.54639C33.5134 3.62653 33.4977 3.71214 33.4991 3.79833C33.5005 3.88451 33.5188 3.96958 33.5531 4.04868C33.5873 4.12778 33.6368 4.19935 33.6987 4.25932C33.7606 4.3193 33.8337 4.36649 33.9139 4.3982V4.39689Z" fill="url(#paint11_linear)"/>
<path d="M29.5312 10.5C29.5312 10.8894 29.6467 11.27 29.863 11.5938C30.0794 11.9175 30.3869 12.1699 30.7466 12.3189C31.1063 12.4679 31.5022 12.5069 31.8841 12.4309C32.266 12.355 32.6168 12.1674 32.8921 11.8921C33.1675 11.6168 33.355 11.266 33.4309 10.8841C33.5069 10.5022 33.4679 10.1063 33.3189 9.74659C33.1699 9.38685 32.9175 9.07937 32.5938 8.86304C32.27 8.64672 31.8894 8.53125 31.5 8.53125C30.9779 8.53125 30.4771 8.73867 30.1079 9.10788C29.7387 9.47709 29.5312 9.97785 29.5312 10.5ZM32.1563 10.5C32.1563 10.6298 32.1178 10.7567 32.0457 10.8646C31.9735 10.9725 31.8711 11.0566 31.7511 11.1063C31.6312 11.156 31.4993 11.169 31.372 11.1436C31.2447 11.1183 31.1277 11.0558 31.036 10.964C30.9442 10.8723 30.8817 10.7553 30.8564 10.628C30.831 10.5007 30.844 10.3688 30.8937 10.2489C30.9434 10.1289 31.0275 10.0265 31.1354 9.95435C31.2433 9.88224 31.3702 9.84375 31.5 9.84375C31.6741 9.84375 31.841 9.91289 31.964 10.036C32.0871 10.159 32.1563 10.3259 32.1563 10.5Z" fill="url(#paint12_linear)"/>
<path d="M10.5 21.6562C8.55309 21.6562 6.64991 22.2336 5.03111 23.3152C3.41231 24.3969 2.15062 25.9343 1.40557 27.733C0.660515 29.5317 0.465576 31.5109 0.845399 33.4204C1.22522 35.3299 2.16275 37.0839 3.53942 38.4606C4.9161 39.8373 6.67008 40.7748 8.57958 41.1546C10.4891 41.5344 12.4683 41.3395 14.267 40.5944C16.0658 39.8494 17.6031 38.5877 18.6848 36.9689C19.7664 35.3501 20.3438 33.4469 20.3438 31.5C20.3408 28.8902 19.3027 26.3881 17.4573 24.5427C15.6119 22.6973 13.1098 21.6592 10.5 21.6562ZM10.5 40.0312C8.81268 40.0312 7.16325 39.5309 5.7603 38.5935C4.35734 37.656 3.26387 36.3236 2.61816 34.7648C1.97245 33.2059 1.8035 31.4905 2.13268 29.8356C2.46186 28.1807 3.27438 26.6606 4.4675 25.4675C5.66062 24.2744 7.18074 23.4619 8.83564 23.1327C10.4905 22.8035 12.2059 22.9724 13.7648 23.6182C15.3237 24.2639 16.6561 25.3573 17.5935 26.7603C18.5309 28.1632 19.0313 29.8127 19.0313 31.5C19.0287 33.7618 18.129 35.9303 16.5296 37.5296C14.9303 39.129 12.7618 40.0286 10.5 40.0312Z" fill="url(#paint13_linear)"/>
<path d="M10.5 29.5312C10.1106 29.5312 9.72998 29.6467 9.40622 29.863C9.08246 30.0794 8.83012 30.3869 8.68111 30.7466C8.5321 31.1063 8.49312 31.5022 8.56908 31.8841C8.64504 32.266 8.83255 32.6168 9.10788 32.8921C9.38322 33.1675 9.73402 33.355 10.1159 33.4309C10.4978 33.5069 10.8937 33.4679 11.2534 33.3189C11.6131 33.1699 11.9206 32.9175 12.137 32.5938C12.3533 32.27 12.4687 31.8894 12.4687 31.5C12.4687 30.9779 12.2613 30.4771 11.8921 30.1079C11.5229 29.7387 11.0221 29.5312 10.5 29.5312ZM10.5 32.1563C10.3702 32.1563 10.2433 32.1178 10.1354 32.0457C10.0275 31.9735 9.94337 31.8711 9.8937 31.7511C9.84403 31.6312 9.83104 31.4993 9.85636 31.372C9.88168 31.2447 9.94418 31.1277 10.036 31.036C10.1277 30.9442 10.2447 30.8817 10.372 30.8564C10.4993 30.831 10.6312 30.844 10.7511 30.8937C10.871 30.9434 10.9735 31.0275 11.0457 31.1354C11.1178 31.2433 11.1562 31.3702 11.1562 31.5C11.1562 31.6741 11.0871 31.841 10.964 31.964C10.841 32.0871 10.674 32.1563 10.5 32.1563Z" fill="url(#paint14_linear)"/>
<path d="M31.5 21.6562C29.5531 21.6562 27.6499 22.2336 26.0311 23.3152C24.4123 24.3969 23.1506 25.9343 22.4056 27.733C21.6605 29.5317 21.4656 31.5109 21.8454 33.4204C22.2252 35.3299 23.1627 37.0839 24.5394 38.4606C25.9161 39.8373 27.6701 40.7748 29.5796 41.1546C31.4891 41.5344 33.4683 41.3395 35.267 40.5944C37.0658 39.8494 38.6031 38.5877 39.6848 36.9689C40.7664 35.3501 41.3438 33.4469 41.3438 31.5C41.3408 28.8902 40.3027 26.3881 38.4573 24.5427C36.6119 22.6973 34.1098 21.6592 31.5 21.6562ZM31.5 40.0312C29.8127 40.0312 28.1633 39.5309 26.7603 38.5935C25.3573 37.656 24.2639 36.3236 23.6182 34.7648C22.9724 33.2059 22.8035 31.4905 23.1327 29.8356C23.4619 28.1807 24.2744 26.6606 25.4675 25.4675C26.6606 24.2744 28.1807 23.4619 29.8356 23.1327C31.4905 22.8035 33.2059 22.9724 34.7648 23.6182C36.3237 24.2639 37.6561 25.3573 38.5935 26.7603C39.5309 28.1632 40.0313 29.8127 40.0313 31.5C40.0286 33.7618 39.129 35.9303 37.5296 37.5296C35.9303 39.129 33.7618 40.0286 31.5 40.0312Z" fill="url(#paint15_linear)"/>
<path d="M35.2124 25.0031L34.0417 26.1732C33.8548 26.0846 33.6636 26.0055 33.4688 25.9363V24.2812C33.4688 24.1072 33.3996 23.9403 33.2765 23.8172C33.1535 23.6941 32.9865 23.625 32.8125 23.625H30.1875C30.0135 23.625 29.8465 23.6941 29.7235 23.8172C29.6004 23.9403 29.5312 24.1072 29.5312 24.2812V25.9363C29.3364 26.0057 29.1451 26.085 28.9583 26.1739L27.7876 25.0031C27.6645 24.8801 27.4976 24.811 27.3236 24.811C27.1496 24.811 26.9827 24.8801 26.8597 25.0031L25.0031 26.8597C24.8801 26.9827 24.811 27.1496 24.811 27.3236C24.811 27.4976 24.8801 27.6645 25.0031 27.7876L26.1739 28.9583C26.0846 29.1451 26.0051 29.3363 25.9357 29.5312H24.2812C24.1072 29.5312 23.9403 29.6004 23.8172 29.7235C23.6941 29.8465 23.625 30.0135 23.625 30.1875V32.8125C23.625 32.9865 23.6941 33.1535 23.8172 33.2765C23.9403 33.3996 24.1072 33.4688 24.2812 33.4688H25.9363C26.0058 33.6637 26.0853 33.8549 26.1745 34.0417L25.0031 35.2124C24.8801 35.3355 24.811 35.5024 24.811 35.6764C24.811 35.8504 24.8801 36.0173 25.0031 36.1403L26.8597 37.9969C26.9827 38.1199 27.1496 38.189 27.3236 38.189C27.4976 38.189 27.6645 38.1199 27.7876 37.9969L28.9583 36.8268C29.1451 36.9157 29.3364 36.995 29.5312 37.0643V38.7188C29.5312 38.8928 29.6004 39.0597 29.7235 39.1828C29.8465 39.3059 30.0135 39.375 30.1875 39.375H32.8125C32.9865 39.375 33.1535 39.3059 33.2765 39.1828C33.3996 39.0597 33.4688 38.8928 33.4688 38.7188V37.0637C33.6636 36.9943 33.8549 36.915 34.0417 36.8261L35.2124 37.9969C35.3355 38.1199 35.5024 38.189 35.6764 38.189C35.8504 38.189 36.0173 38.1199 36.1403 37.9969L37.9969 36.1403C38.1199 36.0173 38.189 35.8504 38.189 35.6764C38.189 35.5024 38.1199 35.3355 37.9969 35.2124L36.8261 34.0417C36.9152 33.8549 36.9945 33.6637 37.0637 33.4688H38.7188C38.8928 33.4688 39.0597 33.3996 39.1828 33.2765C39.3059 33.1535 39.375 32.9865 39.375 32.8125V30.1875C39.375 30.0135 39.3059 29.8465 39.1828 29.7235C39.0597 29.6004 38.8928 29.5312 38.7188 29.5312H37.0637C36.9942 29.3363 36.9147 29.1451 36.8255 28.9583L37.9969 27.7876C38.1199 27.6645 38.189 27.4976 38.189 27.3236C38.189 27.1496 38.1199 26.9827 37.9969 26.8597L36.1403 25.0031C36.0173 24.8801 35.8504 24.811 35.6764 24.811C35.5024 24.811 35.3355 24.8801 35.2124 25.0031ZM35.4532 29.1703C35.6709 29.5393 35.8359 29.9369 35.9435 30.3516C35.9798 30.4923 36.0618 30.617 36.1767 30.7061C36.2915 30.7951 36.4327 30.8436 36.5781 30.8438H38.0625V32.1562H36.5781C36.4327 32.1564 36.2915 32.2049 36.1767 32.2939C36.0618 32.383 35.9798 32.5077 35.9435 32.6484C35.8359 33.0631 35.6709 33.4607 35.4532 33.8297C35.3792 33.9551 35.3491 34.1016 35.3675 34.2461C35.3859 34.3906 35.4519 34.5248 35.555 34.6277L36.605 35.6777L35.677 36.6056L34.627 35.5556C34.5241 35.4526 34.3898 35.3868 34.2453 35.3685C34.1009 35.3502 33.9544 35.3805 33.829 35.4546C33.46 35.6718 33.0624 35.8364 32.6478 35.9435C32.5069 35.9798 32.3822 36.062 32.2931 36.1769C32.204 36.2919 32.1556 36.4333 32.1556 36.5787V38.0625H30.8438V36.5781C30.8437 36.4326 30.7954 36.2913 30.7063 36.1763C30.6172 36.0613 30.4924 35.9792 30.3516 35.9428C29.9369 35.8357 29.5394 35.6711 29.1703 35.4539C29.0449 35.3798 28.8985 35.3495 28.754 35.3678C28.6095 35.3861 28.4753 35.452 28.3723 35.555L27.3223 36.605L26.3944 35.677L27.4444 34.627C27.5475 34.5242 27.6134 34.3899 27.6318 34.2454C27.6503 34.101 27.6201 33.9545 27.5461 33.829C27.3284 33.4601 27.1634 33.0625 27.0559 32.6478C27.0195 32.507 26.9375 32.3824 26.8227 32.2933C26.7078 32.2042 26.5666 32.1558 26.4213 32.1556H24.9375V30.8438H26.4219C26.5673 30.8436 26.7085 30.7951 26.8233 30.7061C26.9382 30.617 27.0202 30.4923 27.0565 30.3516C27.1641 29.9369 27.3291 29.5393 27.5468 29.1703C27.6208 29.0449 27.6509 28.8984 27.6325 28.7539C27.6141 28.6094 27.5481 28.4752 27.445 28.3723L26.395 27.3223L27.323 26.3944L28.373 27.4444C28.4759 27.5474 28.6102 27.6132 28.7547 27.6315C28.8991 27.6498 29.0456 27.6195 29.171 27.5454C29.54 27.3282 29.9376 27.1636 30.3522 27.0565C30.4931 27.0202 30.6178 26.938 30.7069 26.8231C30.796 26.7081 30.8444 26.5667 30.8444 26.4213V24.9375H32.1569V26.4219C32.1569 26.5674 32.2053 26.7087 32.2944 26.8237C32.3835 26.9387 32.5083 27.0208 32.6491 27.0572C33.0637 27.1643 33.4613 27.3289 33.8303 27.5461C33.9557 27.6202 34.1022 27.6505 34.2466 27.6322C34.3911 27.6139 34.5254 27.548 34.6283 27.445L35.6783 26.395L36.6063 27.323L35.5563 28.373C35.453 28.4757 35.3868 28.6098 35.3681 28.7543C35.3495 28.8988 35.3794 29.0454 35.4532 29.171V29.1703Z" fill="url(#paint16_linear)"/>
<path d="M31.5 29.5312C31.1106 29.5312 30.73 29.6467 30.4062 29.863C30.0825 30.0794 29.8301 30.3869 29.6811 30.7466C29.5321 31.1063 29.4931 31.5022 29.5691 31.8841C29.645 32.266 29.8326 32.6168 30.1079 32.8921C30.3832 33.1675 30.734 33.355 31.1159 33.4309C31.4978 33.5069 31.8937 33.4679 32.2534 33.3189C32.6132 33.1699 32.9206 32.9175 33.137 32.5938C33.3533 32.27 33.4688 31.8894 33.4688 31.5C33.4688 30.9779 33.2613 30.4771 32.8921 30.1079C32.5229 29.7387 32.0222 29.5312 31.5 29.5312ZM31.5 32.1563C31.3702 32.1563 31.2433 32.1178 31.1354 32.0457C31.0275 31.9735 30.9434 31.8711 30.8937 31.7511C30.844 31.6312 30.831 31.4993 30.8564 31.372C30.8817 31.2447 30.9442 31.1277 31.036 31.036C31.1277 30.9442 31.2447 30.8817 31.372 30.8564C31.4993 30.831 31.6312 30.844 31.7511 30.8937C31.8711 30.9434 31.9736 31.0275 32.0457 31.1354C32.1178 31.2433 32.1563 31.3702 32.1563 31.5C32.1563 31.6741 32.0871 31.841 31.964 31.964C31.841 32.0871 31.6741 32.1563 31.5 32.1563Z" fill="url(#paint17_linear)"/>
<path d="M24.9375 21C24.9375 20.2212 24.7066 19.4599 24.2739 18.8124C23.8412 18.1649 23.2263 17.6602 22.5068 17.3622C21.7873 17.0642 20.9956 16.9862 20.2318 17.1381C19.468 17.2901 18.7664 17.6651 18.2158 18.2157C17.6651 18.7664 17.2901 19.468 17.1382 20.2318C16.9862 20.9956 17.0642 21.7873 17.3622 22.5068C17.6602 23.2263 18.1649 23.8412 18.8124 24.2739C19.46 24.7065 20.2212 24.9375 21 24.9375C22.044 24.9364 23.0449 24.5212 23.7831 23.783C24.5213 23.0448 24.9365 22.0439 24.9375 21ZM21 23.625C20.4808 23.625 19.9733 23.471 19.5416 23.1826C19.1099 22.8941 18.7735 22.4842 18.5748 22.0045C18.3761 21.5249 18.3242 20.9971 18.4254 20.4879C18.5267 19.9787 18.7767 19.5109 19.1438 19.1438C19.511 18.7767 19.9787 18.5267 20.4879 18.4254C20.9971 18.3241 21.5249 18.3761 22.0045 18.5748C22.4842 18.7735 22.8942 19.1099 23.1826 19.5416C23.471 19.9733 23.625 20.4808 23.625 21C23.625 21.6962 23.3484 22.3638 22.8561 22.8561C22.3639 23.3484 21.6962 23.625 21 23.625Z" fill="url(#paint18_linear)"/>
<path d="M21 19.0312C20.6106 19.0312 20.23 19.1467 19.9062 19.363C19.5825 19.5794 19.3301 19.8869 19.1811 20.2466C19.0321 20.6063 18.9931 21.0022 19.0691 21.3841C19.145 21.766 19.3326 22.1168 19.6079 22.3921C19.8832 22.6675 20.234 22.855 20.6159 22.9309C20.9978 23.0069 21.3937 22.9679 21.7534 22.8189C22.1132 22.6699 22.4206 22.4175 22.637 22.0938C22.8533 21.77 22.9688 21.3894 22.9688 21C22.9688 20.4779 22.7613 19.9771 22.3921 19.6079C22.0229 19.2387 21.5222 19.0313 21 19.0312ZM21 21.6563C20.8702 21.6563 20.7433 21.6178 20.6354 21.5457C20.5275 21.4735 20.4434 21.3711 20.3937 21.2511C20.344 21.1312 20.331 20.9993 20.3564 20.872C20.3817 20.7447 20.4442 20.6277 20.536 20.536C20.6277 20.4442 20.7447 20.3817 20.872 20.3564C20.9993 20.331 21.1312 20.344 21.2511 20.3937C21.3711 20.4434 21.4736 20.5275 21.5457 20.6354C21.6178 20.7433 21.6563 20.8702 21.6563 21C21.6563 21.1741 21.5871 21.341 21.464 21.464C21.341 21.5871 21.1741 21.6563 21 21.6563Z" fill="url(#paint19_linear)"/>
<path d="M11.2657 38.0186C10.4734 38.1097 9.67124 38.0579 8.89727 37.8657C8.81282 37.8419 8.72447 37.8354 8.63744 37.8464C8.55042 37.8574 8.46648 37.8857 8.39059 37.9297C8.3147 37.9737 8.2484 38.0325 8.19561 38.1025C8.14282 38.1726 8.10461 38.2525 8.08324 38.3376C8.06188 38.4226 8.05778 38.5111 8.0712 38.5978C8.08462 38.6845 8.11529 38.7676 8.16138 38.8423C8.20748 38.9169 8.26807 38.9815 8.33957 39.0323C8.41107 39.0832 8.49204 39.1191 8.57768 39.1381C9.50515 39.3702 10.467 39.4324 11.4166 39.3219C11.5039 39.3141 11.5888 39.289 11.6663 39.2479C11.7437 39.2068 11.8121 39.1506 11.8675 39.0826C11.9229 39.0147 11.9641 38.9363 11.9886 38.8521C12.0132 38.768 12.0207 38.6798 12.0106 38.5927C12.0005 38.5056 11.9731 38.4214 11.9299 38.3451C11.8868 38.2688 11.8288 38.2019 11.7593 38.1484C11.6899 38.0949 11.6104 38.0558 11.5256 38.0335C11.4408 38.0112 11.3525 38.0061 11.2657 38.0186Z" fill="url(#paint20_linear)"/>
<path d="M15.4031 35.862C14.8731 36.4582 14.2389 36.9528 13.5315 37.3215C13.3771 37.4021 13.2611 37.5407 13.2089 37.7069C13.1567 37.873 13.1727 38.0531 13.2532 38.2075C13.3338 38.3618 13.4724 38.4779 13.6386 38.5301C13.8047 38.5823 13.9848 38.5663 14.1392 38.4857C14.9873 38.043 15.7478 37.4497 16.3835 36.7348C16.4409 36.6705 16.4849 36.5954 16.5132 36.514C16.5415 36.4326 16.5535 36.3464 16.5485 36.2604C16.5436 36.1743 16.5217 36.0901 16.4841 36.0125C16.4466 35.9349 16.3941 35.8655 16.3297 35.8082C16.2654 35.7509 16.1903 35.7068 16.1089 35.6785C16.0275 35.6502 15.9413 35.6382 15.8553 35.6432C15.7692 35.6482 15.685 35.6701 15.6074 35.7076C15.5298 35.7452 15.4604 35.7976 15.4031 35.862Z" fill="url(#paint21_linear)"/>
<path d="M15.3687 26.8262C15.5011 26.8262 15.6303 26.7863 15.7395 26.7116C15.8487 26.6369 15.9327 26.5309 15.9806 26.4076C16.0285 26.2842 16.038 26.1493 16.0079 26.0205C15.9777 25.8917 15.9094 25.7749 15.8117 25.6857C15.1056 25.0396 14.2874 24.5281 13.3974 24.1763C13.3172 24.1446 13.2316 24.129 13.1454 24.1303C13.0592 24.1317 12.9742 24.15 12.8951 24.1843C12.816 24.2185 12.7444 24.268 12.6844 24.3299C12.6245 24.3918 12.5773 24.465 12.5456 24.5451C12.5138 24.6253 12.4982 24.7109 12.4996 24.797C12.501 24.8832 12.5193 24.9683 12.5535 25.0474C12.5878 25.1265 12.6373 25.1981 12.6992 25.258C12.7611 25.318 12.8342 25.3652 12.9144 25.3969C13.656 25.6903 14.3377 26.1169 14.9258 26.6556C15.047 26.7658 15.205 26.8266 15.3687 26.8262Z" fill="url(#paint22_linear)"/>
<path d="M16.3609 28.5469C16.7201 29.2584 16.9459 30.0298 17.027 30.8228C17.0388 30.9442 17.0843 31.0598 17.1582 31.1568C17.0952 31.2602 17.0621 31.379 17.0624 31.5C17.0635 32.2977 16.9187 33.0888 16.6352 33.8343C16.5733 33.997 16.5786 34.1775 16.6499 34.3363C16.7211 34.495 16.8525 34.619 17.0152 34.6809C17.0895 34.7095 17.1685 34.7242 17.2481 34.7242C17.3812 34.7243 17.5111 34.6839 17.6207 34.6084C17.7303 34.5329 17.8143 34.4259 17.8617 34.3016C18.2022 33.4068 18.3761 32.4574 18.3749 31.5C18.3751 31.3548 18.3268 31.2137 18.2377 31.0991C18.3147 30.9755 18.3484 30.8298 18.3336 30.685C18.2351 29.7341 17.9636 28.8093 17.5323 27.9563C17.4951 27.8766 17.4424 27.8052 17.3771 27.7464C17.3119 27.6875 17.2355 27.6423 17.1525 27.6135C17.0695 27.5848 16.9815 27.5729 16.8938 27.5788C16.8061 27.5846 16.7205 27.608 16.642 27.6476C16.5636 27.6872 16.4939 27.7421 16.437 27.8091C16.3802 27.8761 16.3374 27.9539 16.3112 28.0377C16.2849 28.1216 16.2758 28.2099 16.2844 28.2974C16.2929 28.3848 16.3189 28.4697 16.3609 28.5469Z" fill="url(#paint23_linear)"/>
<path d="M3.82892 28.6577C3.98162 28.7404 4.16088 28.7593 4.32743 28.7101C4.49399 28.6608 4.63424 28.5476 4.71748 28.3952C5.09625 27.6927 5.5997 27.0649 6.20323 26.5426C6.26971 26.4866 6.3244 26.4179 6.36411 26.3405C6.40382 26.2632 6.42777 26.1787 6.43455 26.092C6.44133 26.0054 6.43083 25.9182 6.40363 25.8356C6.37644 25.753 6.3331 25.6766 6.27615 25.6109C6.21919 25.5452 6.14974 25.4915 6.07184 25.4529C5.99394 25.4143 5.90915 25.3915 5.82237 25.3859C5.7356 25.3804 5.64859 25.3921 5.56639 25.4204C5.48419 25.4488 5.40844 25.4932 5.34354 25.551C4.62012 26.1757 4.01677 26.9272 3.56314 27.7685C3.5222 27.8443 3.4966 27.9275 3.4878 28.0132C3.47901 28.099 3.48718 28.1856 3.51186 28.2681C3.53654 28.3507 3.57724 28.4276 3.63164 28.4945C3.68604 28.5613 3.75308 28.6168 3.82892 28.6577Z" fill="url(#paint24_linear)"/>
<path d="M4.11535 33.0205C3.93129 32.2432 3.88949 31.439 3.99198 30.6469C4.00558 30.5602 4.00166 30.4717 3.98046 30.3865C3.95925 30.3014 3.92119 30.2214 3.86852 30.1512C3.81585 30.081 3.74964 30.0221 3.67381 29.978C3.59798 29.9338 3.51407 29.9054 3.42704 29.8942C3.34001 29.8831 3.25163 29.8895 3.16712 29.9131C3.08261 29.9367 3.0037 29.977 2.93504 30.0316C2.86639 30.0863 2.80938 30.1541 2.7674 30.2311C2.72542 30.3082 2.69932 30.3929 2.69063 30.4802C2.64642 30.8183 2.6245 31.159 2.62501 31.5C2.62548 32.1134 2.69661 32.7246 2.83698 33.3217C2.87097 33.4656 2.95251 33.5937 3.06839 33.6854C3.18428 33.7771 3.32773 33.827 3.47551 33.827C3.52655 33.8269 3.57741 33.821 3.6271 33.8093C3.79641 33.7694 3.94295 33.6639 4.0345 33.516C4.12605 33.3681 4.15513 33.1899 4.11535 33.0205Z" fill="url(#paint25_linear)"/>
<path d="M5.0722 35.1894C4.97421 35.0455 4.82309 34.9465 4.65209 34.9141C4.48108 34.8817 4.30419 34.9185 4.16034 35.0165C4.01649 35.1145 3.91746 35.2656 3.88503 35.4366C3.8526 35.6076 3.88943 35.7845 3.98742 35.9283C4.52505 36.7195 5.20271 37.4059 5.98702 37.9535C6.09673 38.0313 6.22791 38.073 6.36239 38.0729C6.50148 38.0725 6.63684 38.0279 6.74893 37.9456C6.86102 37.8632 6.94405 37.7474 6.98603 37.6148C7.02802 37.4822 7.02679 37.3397 6.98252 37.2078C6.93825 37.076 6.85323 36.9616 6.73974 36.8812C6.08577 36.4232 5.5207 35.8499 5.0722 35.1894Z" fill="url(#paint26_linear)"/>
<path d="M10.5005 24.9375H10.5956C10.7697 24.938 10.9368 24.8694 11.0603 24.7467C11.1837 24.624 11.2533 24.4573 11.2539 24.2832C11.2544 24.1092 11.1857 23.942 11.063 23.8186C10.9403 23.6952 10.7736 23.6255 10.5996 23.625H10.5005C9.57819 23.6239 8.66293 23.7854 7.79673 24.1021C7.71442 24.1306 7.63862 24.1753 7.57375 24.2334C7.50887 24.2916 7.45622 24.362 7.41887 24.4407C7.38151 24.5194 7.3602 24.6048 7.35617 24.6918C7.35214 24.7788 7.36548 24.8658 7.39541 24.9476C7.42534 25.0294 7.47126 25.1044 7.53049 25.1683C7.58972 25.2322 7.66107 25.2837 7.74039 25.3197C7.81971 25.3557 7.90541 25.3755 7.99249 25.3781C8.07957 25.3807 8.16628 25.3658 8.24758 25.3345C8.96939 25.0709 9.73202 24.9365 10.5005 24.9375Z" fill="url(#paint27_linear)"/>
<defs>
<linearGradient id="paint0_linear" x1="10.5" y1="0.65625" x2="10.5" y2="20.3438" gradientUnits="userSpaceOnUse">
<stop offset="0.65625" stop-color="#6C23F5"/>
<stop offset="1" stop-color="#3A71FF"/>
</linearGradient>
<linearGradient id="paint1_linear" x1="10.5" y1="2.625" x2="10.5" y2="18.375" gradientUnits="userSpaceOnUse">
<stop offset="0.65625" stop-color="#6C23F5"/>
<stop offset="1" stop-color="#3A71FF"/>
</linearGradient>
<linearGradient id="paint2_linear" x1="10.5" y1="8.53122" x2="10.5" y2="12.4687" gradientUnits="userSpaceOnUse">
<stop offset="0.65625" stop-color="#6C23F5"/>
<stop offset="1" stop-color="#3A71FF"/>
</linearGradient>
<linearGradient id="paint3_linear" x1="31.5" y1="0.65625" x2="31.5" y2="20.3438" gradientUnits="userSpaceOnUse">
<stop offset="0.65625" stop-color="#6C23F5"/>
<stop offset="1" stop-color="#3A71FF"/>
</linearGradient>
<linearGradient id="paint4_linear" x1="26.4451" y1="13.9046" x2="26.4451" y2="17.073" gradientUnits="userSpaceOnUse">
<stop offset="0.65625" stop-color="#6C23F5"/>
<stop offset="1" stop-color="#3A71FF"/>
</linearGradient>
<linearGradient id="paint5_linear" x1="35.8642" y1="14.6422" x2="35.8642" y2="17.5603" gradientUnits="userSpaceOnUse">
<stop offset="0.65625" stop-color="#6C23F5"/>
<stop offset="1" stop-color="#3A71FF"/>
</linearGradient>
<linearGradient id="paint6_linear" x1="25.9605" y1="4.38132" x2="25.9605" y2="7.73622" gradientUnits="userSpaceOnUse">
<stop offset="0.65625" stop-color="#6C23F5"/>
<stop offset="1" stop-color="#3A71FF"/>
</linearGradient>
<linearGradient id="paint7_linear" x1="30.3069" y1="2.62497" x2="30.3069" y2="4.37519" gradientUnits="userSpaceOnUse">
<stop offset="0.65625" stop-color="#6C23F5"/>
<stop offset="1" stop-color="#3A71FF"/>
</linearGradient>
<linearGradient id="paint8_linear" x1="31.0217" y1="16.8412" x2="31.0217" y2="18.375" gradientUnits="userSpaceOnUse">
<stop offset="0.65625" stop-color="#6C23F5"/>
<stop offset="1" stop-color="#3A71FF"/>
</linearGradient>
<linearGradient id="paint9_linear" x1="24.3789" y1="8.88531" x2="24.3789" y2="12.827" gradientUnits="userSpaceOnUse">
<stop offset="0.65625" stop-color="#6C23F5"/>
<stop offset="1" stop-color="#3A71FF"/>
</linearGradient>
<linearGradient id="paint10_linear" x1="38.3281" y1="6.57733" x2="38.3281" y2="13.7242" gradientUnits="userSpaceOnUse">
<stop offset="0.65625" stop-color="#6C23F5"/>
<stop offset="1" stop-color="#3A71FF"/>
</linearGradient>
<linearGradient id="paint11_linear" x1="35.2618" y1="3.13153" x2="35.2618" y2="5.8276" gradientUnits="userSpaceOnUse">
<stop offset="0.65625" stop-color="#6C23F5"/>
<stop offset="1" stop-color="#3A71FF"/>
</linearGradient>
<linearGradient id="paint12_linear" x1="31.5" y1="8.53125" x2="31.5" y2="12.4687" gradientUnits="userSpaceOnUse">
<stop offset="0.65625" stop-color="#6C23F5"/>
<stop offset="1" stop-color="#3A71FF"/>
</linearGradient>
<linearGradient id="paint13_linear" x1="10.5" y1="21.6562" x2="10.5" y2="41.3438" gradientUnits="userSpaceOnUse">
<stop offset="0.65625" stop-color="#6C23F5"/>
<stop offset="1" stop-color="#3A71FF"/>
</linearGradient>
<linearGradient id="paint14_linear" x1="10.5" y1="29.5312" x2="10.5" y2="33.4688" gradientUnits="userSpaceOnUse">
<stop offset="0.65625" stop-color="#6C23F5"/>
<stop offset="1" stop-color="#3A71FF"/>
</linearGradient>
<linearGradient id="paint15_linear" x1="31.5" y1="21.6562" x2="31.5" y2="41.3438" gradientUnits="userSpaceOnUse">
<stop offset="0.65625" stop-color="#6C23F5"/>
<stop offset="1" stop-color="#3A71FF"/>
</linearGradient>
<linearGradient id="paint16_linear" x1="31.5" y1="23.625" x2="31.5" y2="39.375" gradientUnits="userSpaceOnUse">
<stop offset="0.65625" stop-color="#6C23F5"/>
<stop offset="1" stop-color="#3A71FF"/>
</linearGradient>
<linearGradient id="paint17_linear" x1="31.5" y1="29.5312" x2="31.5" y2="33.4688" gradientUnits="userSpaceOnUse">
<stop offset="0.65625" stop-color="#6C23F5"/>
<stop offset="1" stop-color="#3A71FF"/>
</linearGradient>
<linearGradient id="paint18_linear" x1="21" y1="17.0625" x2="21" y2="24.9375" gradientUnits="userSpaceOnUse">
<stop offset="0.65625" stop-color="#6C23F5"/>
<stop offset="1" stop-color="#3A71FF"/>
</linearGradient>
<linearGradient id="paint19_linear" x1="21" y1="19.0312" x2="21" y2="22.9688" gradientUnits="userSpaceOnUse">
<stop offset="0.65625" stop-color="#6C23F5"/>
<stop offset="1" stop-color="#3A71FF"/>
</linearGradient>
<linearGradient id="paint20_linear" x1="10.0392" y1="37.8412" x2="10.0392" y2="39.375" gradientUnits="userSpaceOnUse">
<stop offset="0.65625" stop-color="#6C23F5"/>
<stop offset="1" stop-color="#3A71FF"/>
</linearGradient>
<linearGradient id="paint21_linear" x1="14.8642" y1="35.6421" x2="14.8642" y2="38.5602" gradientUnits="userSpaceOnUse">
<stop offset="0.65625" stop-color="#6C23F5"/>
<stop offset="1" stop-color="#3A71FF"/>
</linearGradient>
<linearGradient id="paint22_linear" x1="14.2623" y1="24.1302" x2="14.2623" y2="26.8262" gradientUnits="userSpaceOnUse">
<stop offset="0.65625" stop-color="#6C23F5"/>
<stop offset="1" stop-color="#3A71FF"/>
</linearGradient>
<linearGradient id="paint23_linear" x1="17.3281" y1="27.5773" x2="17.3281" y2="34.7242" gradientUnits="userSpaceOnUse">
<stop offset="0.65625" stop-color="#6C23F5"/>
<stop offset="1" stop-color="#3A71FF"/>
</linearGradient>
<linearGradient id="paint24_linear" x1="4.96046" y1="25.3846" x2="4.96046" y2="28.7369" gradientUnits="userSpaceOnUse">
<stop offset="0.65625" stop-color="#6C23F5"/>
<stop offset="1" stop-color="#3A71FF"/>
</linearGradient>
<linearGradient id="paint25_linear" x1="3.37887" y1="29.8889" x2="3.37887" y2="33.827" gradientUnits="userSpaceOnUse">
<stop offset="0.65625" stop-color="#6C23F5"/>
<stop offset="1" stop-color="#3A71FF"/>
</linearGradient>
<linearGradient id="paint26_linear" x1="5.44509" y1="34.9026" x2="5.44509" y2="38.0729" gradientUnits="userSpaceOnUse">
<stop offset="0.65625" stop-color="#6C23F5"/>
<stop offset="1" stop-color="#3A71FF"/>
</linearGradient>
<linearGradient id="paint27_linear" x1="9.30466" y1="23.625" x2="9.30466" y2="25.3784" gradientUnits="userSpaceOnUse">
<stop offset="0.65625" stop-color="#6C23F5"/>
<stop offset="1" stop-color="#3A71FF"/>
</linearGradient>
</defs>
</svg>
