<svg width="24" height="24" viewBox="0 0 24 24" fill="none" xmlns="http://www.w3.org/2000/svg">
<path d="M22.5707 9.85945L3.20688 1.8246C2.39111 1.48607 1.4695 1.63499 0.80177 2.21306C0.134035 2.79121 -0.145246 3.68202 0.0730042 4.53782L1.79655 11.2968H10.2353C10.6236 11.2968 10.9384 11.6116 10.9384 12C10.9384 12.3883 10.6236 12.7032 10.2353 12.7032H1.79655L0.0730042 19.4621C-0.145246 20.318 0.133988 21.2088 0.80177 21.7869C1.47086 22.3661 2.39257 22.5132 3.20693 22.1753L22.5707 14.1405C23.4523 13.7747 24 12.9545 24 12C24 11.0455 23.4523 10.2252 22.5707 9.85945Z" fill="white"/>
</svg>
