<svg width="96" height="96" viewBox="0 0 96 96" fill="none" xmlns="http://www.w3.org/2000/svg">
<rect width="84" height="84" rx="16" fill="#C37CFF"/>
<rect x="12" y="12" width="84" height="84" rx="16" fill="#521FD1"/>
<path d="M41.1732 62.2L33.9732 79H29.2932L22.1172 62.2H27.2532L31.8132 73.144L36.4692 62.2H41.1732Z" fill="white"/>
<path d="M50.2983 79.336C48.5382 79.336 46.9543 78.968 45.5463 78.232C44.1543 77.48 43.0583 76.44 42.2583 75.112C41.4583 73.784 41.0583 72.28 41.0583 70.6C41.0583 68.92 41.4583 67.416 42.2583 66.088C43.0583 64.76 44.1543 63.728 45.5463 62.992C46.9543 62.24 48.5382 61.864 50.2983 61.864C51.8343 61.864 53.2183 62.136 54.4502 62.68C55.6823 63.224 56.7062 64.008 57.5222 65.032L54.4982 67.768C53.4102 66.456 52.0903 65.8 50.5383 65.8C49.6263 65.8 48.8102 66 48.0903 66.4C47.3862 66.8 46.8343 67.368 46.4343 68.104C46.0503 68.824 45.8583 69.656 45.8583 70.6C45.8583 71.544 46.0503 72.384 46.4343 73.12C46.8343 73.84 47.3862 74.4 48.0903 74.8C48.8102 75.2 49.6263 75.4 50.5383 75.4C52.0903 75.4 53.4102 74.744 54.4982 73.432L57.5222 76.168C56.7062 77.192 55.6823 77.976 54.4502 78.52C53.2183 79.064 51.8343 79.336 50.2983 79.336Z" fill="white"/>
<path d="M70.6157 75.736H63.5117L62.1917 79H57.3438L64.7598 62.2H69.4398L76.8797 79H71.9357L70.6157 75.736ZM69.2238 72.232L67.0638 66.856L64.9037 72.232H69.2238Z" fill="white"/>
<g clip-path="url(#clip0)">
<path d="M46.0767 28.0724C43.9905 27.8681 40.7223 27.6247 36.9998 27.6247C33.2773 27.6247 30.0091 27.8681 27.923 28.0724C26.296 28.2317 24.9999 29.4717 24.7711 31.088C24.4872 33.0922 24.3433 35.0812 24.3433 36.9999C24.3433 38.9186 24.4872 40.9076 24.7711 42.9118C24.9999 44.5281 26.296 45.7681 27.923 45.9274C30.0092 46.1317 33.2773 46.3751 36.9998 46.3751C40.7223 46.3751 43.9905 46.1317 46.0767 45.9274C47.7036 45.7681 48.9997 44.5281 49.2285 42.9118C49.3193 42.271 49.9124 41.8249 50.5531 41.9158C51.194 42.0065 51.6399 42.5996 51.5492 43.2404C51.1681 45.9309 49.0117 47.9951 46.305 48.2601C44.1669 48.4694 40.8169 48.7189 36.9998 48.7189C33.1826 48.7189 29.8327 48.4694 27.6945 48.2601C24.9878 47.9952 22.8314 45.9309 22.4503 43.2404C21.8499 38.9788 21.8499 35.021 22.4503 30.7594C22.8314 28.0689 24.9878 26.0046 27.6945 25.7397C29.8326 25.5304 33.1826 25.2809 36.9998 25.2809C40.8169 25.2809 44.1668 25.5304 46.305 25.7397C49.0117 26.0046 51.1681 28.0689 51.5492 30.7594C51.8483 32.8721 52 34.9716 52 36.9999C51.9388 38.5532 49.7182 38.5551 49.6562 36.9999C49.6562 35.0812 49.5123 33.0922 49.2285 31.0881C48.9997 29.4717 47.7036 28.2317 46.0767 28.0724ZM41.5414 35.1171C43.0562 35.963 43.0558 38.2421 41.5414 39.0877L36.5108 42.0068C35.795 42.4221 34.9396 42.4236 34.2227 42.0106C33.5034 41.5964 33.074 40.8528 33.074 40.0216V34.1832C33.074 33.352 33.5034 32.6085 34.2227 32.1942C34.9396 31.7813 35.795 31.7828 36.5108 32.198L41.5414 35.1171ZM40.2927 37.1024L35.4177 34.2737V39.9313L40.2927 37.1024Z" fill="white"/>
</g>
<defs>
<clipPath id="clip0">
<rect width="30" height="30" fill="white" transform="translate(22 22)"/>
</clipPath>
</defs>
</svg>
