<svg width="657" height="719" viewBox="0 0 657 719" fill="none" xmlns="http://www.w3.org/2000/svg">
<path d="M274.212 621.921L67.7178 503.389C37.3178 485.939 36.8246 442.26 66.8227 424.128L273.321 299.311C287.889 290.505 306.129 290.465 320.736 299.205L529.32 424.019C559.552 442.11 559.058 486.079 528.427 503.486L319.839 622.02C305.684 630.063 288.332 630.026 274.212 621.921Z" fill="url(#paint0_radial)" fill-opacity="0.2"/>
<path d="M286 538L39 396.5V360.5L286 247.5L536 361L535.5 396.5L286 538Z" fill="url(#paint1_linear)"/>
<path d="M286 502.5L39 361L286 212L535.5 361L286 502.5Z" fill="url(#paint2_linear)"/>
<path d="M737 575.525L472 418" stroke="#6C23F5" stroke-width="4"/>
<path d="M282.504 471.309L97.2775 366.738C93.2055 364.439 93.2117 358.572 97.2884 356.282L132.235 336.649C132.411 336.55 132.58 336.437 132.74 336.313L252.251 242.867C253.339 242.017 254.788 241.788 256.086 242.261L375.234 285.72C375.739 285.905 376.203 286.19 376.596 286.557L422.176 329.197C422.391 329.398 422.628 329.575 422.883 329.725L468.151 356.304C472.109 358.628 472.098 364.354 468.132 366.663L288.473 471.269C286.632 472.341 284.36 472.356 282.504 471.309Z" fill="url(#paint3_radial)" fill-opacity="0.2"/>
<path d="M122.5 363.5V179.5L284.5 271.025L284 455L122.5 363.5Z" fill="url(#paint4_linear)"/>
<path d="M446 363V179L284.5 271.025V454.5L446 363Z" fill="url(#paint5_linear)"/>
<path d="M283 85L122.5 179.525L285 270.5L446 179.025L283 85Z" fill="#521FD1"/>
<path d="M132.5 239.337V206.64C132.5 204.315 134.726 202.636 136.962 203.275C138.464 203.704 139.5 205.077 139.5 206.64V239.337C139.5 241.939 136.762 243.631 134.435 242.467C133.249 241.875 132.5 240.663 132.5 239.337Z" fill="#521FD1"/>
<path d="M145 213.623V245.384C145 246.973 145.941 248.412 147.397 249.049C150.039 250.205 153 248.269 153 245.384V213.623C153 211.788 151.751 210.188 149.97 209.743C147.446 209.111 145 211.021 145 213.623Z" fill="#521FD1"/>
<path d="M159 221.911V253.199C159 254.329 159.546 255.39 160.466 256.047C162.782 257.702 166 256.046 166 253.199V221.911C166 220.72 165.394 219.611 164.393 218.967C162.063 217.469 159 219.142 159 221.911Z" fill="#521FD1"/>
<path d="M331.331 205.522L239.84 151.704C235.95 149.416 231.104 149.504 227.3 151.933L214.993 159.788C212.459 161.405 212.125 164.975 214.313 167.035C216.462 169.057 216.186 172.549 213.746 174.208L212.591 174.993C209.351 177.196 209.227 181.927 212.346 184.298L215.288 186.534C217.034 187.861 217.311 190.38 215.894 192.055C214.374 193.851 214.819 196.579 216.83 197.8L249.92 217.891C253.099 219.82 257.025 220.054 260.41 218.516C263.894 216.932 267.944 217.229 271.16 219.304L275.193 221.906C279.052 224.395 283.992 224.465 287.918 222.085L291.733 219.773C295.58 217.441 300.41 217.458 304.241 219.816L304.52 219.987C308.476 222.422 313.481 222.354 317.371 219.814L331.45 210.62C333.314 209.403 333.249 206.651 331.331 205.522Z" stroke="#D9CAFF" stroke-width="2"/>
<path d="M297.5 217.475L295.328 215.303C293.766 213.741 293.766 211.209 295.328 209.646L297.5 207.475" stroke="#D9CAFF" stroke-width="2"/>
<path d="M265.5 216.975L271.5 211.475" stroke="#D9CAFF" stroke-width="2"/>
<path d="M216 191.975L238.046 178.656C239.257 177.924 240.765 177.887 242.01 178.557L259.5 187.975" stroke="#D9CAFF" stroke-width="2"/>
<path d="M215 173.475L228 165.475" stroke="#D9CAFF" stroke-width="2"/>
<path d="M309 205.975C309 206.53 308.561 207.266 307.333 207.921C306.147 208.553 304.44 208.975 302.5 208.975C300.56 208.975 298.853 208.553 297.667 207.921C296.439 207.266 296 206.53 296 205.975C296 205.419 296.439 204.684 297.667 204.029C298.853 203.396 300.56 202.975 302.5 202.975C304.44 202.975 306.147 203.396 307.333 204.029C308.561 204.684 309 205.419 309 205.975Z" fill="#521FD1" stroke="#D9CAFF" stroke-width="2"/>
<path d="M282 208.975C282 209.53 281.561 210.266 280.333 210.921C279.147 211.553 277.44 211.975 275.5 211.975C273.56 211.975 271.853 211.553 270.667 210.921C269.439 210.266 269 209.53 269 208.975C269 208.419 269.439 207.684 270.667 207.029C271.853 206.396 273.56 205.975 275.5 205.975C277.44 205.975 279.147 206.396 280.333 207.029C281.561 207.684 282 208.419 282 208.975Z" fill="#521FD1" stroke="#D9CAFF" stroke-width="2"/>
<path d="M269 190.475C269 191.228 268.486 192.081 267.289 192.799C266.112 193.506 264.421 193.975 262.5 193.975C260.579 193.975 258.888 193.506 257.711 192.799C256.514 192.081 256 191.228 256 190.475C256 189.721 256.514 188.869 257.711 188.15C258.888 187.444 260.579 186.975 262.5 186.975C264.421 186.975 266.112 187.444 267.289 188.15C268.486 188.869 269 189.721 269 190.475Z" fill="#521FD1" stroke="#D9CAFF" stroke-width="2"/>
<path d="M237 163.475C237 164.332 236.539 165.185 235.643 165.857C234.746 166.529 233.461 166.975 232 166.975C230.539 166.975 229.254 166.529 228.357 165.857C227.461 165.185 227 164.332 227 163.475C227 162.618 227.461 161.765 228.357 161.093C229.254 160.42 230.539 159.975 232 159.975C233.461 159.975 234.746 160.42 235.643 161.093C236.539 161.765 237 162.618 237 163.475Z" fill="#521FD1" stroke="#D9CAFF" stroke-width="2"/>
<g filter="url(#filter0_d)">
<path d="M338.914 199.093L246.948 146.092C243.037 143.838 240.722 139.58 240.956 135.073L241.713 120.493C241.868 117.491 244.808 115.438 247.68 116.324C250.499 117.195 253.399 115.231 253.638 112.29L253.75 110.898C254.067 106.993 258.12 104.549 261.722 106.092L265.118 107.547C267.134 108.41 269.462 107.407 270.219 105.348C271.031 103.14 273.623 102.18 275.678 103.326L309.484 122.187C312.731 123.998 314.873 127.298 315.206 131.001C315.548 134.813 317.806 138.188 321.197 139.961L325.452 142.184C329.521 144.311 332.02 148.573 331.889 153.163L331.761 157.621C331.632 162.118 334.03 166.31 337.973 168.478L338.259 168.636C342.329 170.875 344.741 175.261 344.452 179.897L343.406 196.68C343.267 198.902 340.842 200.204 338.914 199.093Z" fill="white" fill-opacity="0.19" stroke="#D9CAFF" stroke-width="2"/>
<path d="M332.609 163.771L329.649 162.954C327.519 162.367 325.317 163.617 324.729 165.747L323.912 168.707" stroke="#D9CAFF" stroke-width="2"/>
<path d="M316.378 136.188L314.557 144.121" stroke="#D9CAFF" stroke-width="2"/>
<path d="M270.202 105.48L269.501 131.227C269.462 132.642 270.174 133.971 271.373 134.724L288.196 145.285" stroke="#D9CAFF" stroke-width="2"/>
<path d="M253.62 113.742L253.079 128.997" stroke="#D9CAFF" stroke-width="2"/>
<path d="M328.284 179.449C328.768 179.175 329.191 178.43 329.154 177.038C329.119 175.695 328.643 174.003 327.685 172.315C326.727 170.628 325.518 169.352 324.383 168.633C323.206 167.888 322.35 167.869 321.867 168.143C321.384 168.417 320.961 169.162 320.998 170.554C321.033 171.897 321.509 173.59 322.467 175.277C323.425 176.964 324.634 178.241 325.769 178.96C326.945 179.705 327.801 179.723 328.284 179.449Z" fill="#521FD1" stroke="#D9CAFF" stroke-width="2"/>
<path d="M317.566 154.487C318.049 154.213 318.472 153.468 318.435 152.076C318.4 150.733 317.924 149.041 316.966 147.353C316.008 145.666 314.799 144.39 313.664 143.671C312.488 142.925 311.632 142.907 311.149 143.181C310.666 143.455 310.243 144.2 310.279 145.592C310.314 146.935 310.79 148.628 311.748 150.315C312.706 152.002 313.915 153.279 315.05 153.998C316.227 154.743 317.083 154.761 317.566 154.487Z" fill="#521FD1" stroke="#D9CAFF" stroke-width="2"/>
<path d="M295.06 152.313C295.715 151.941 296.203 151.073 296.236 149.678C296.27 148.305 295.843 146.603 294.895 144.933C293.947 143.262 292.704 142.023 291.509 141.348C290.293 140.662 289.298 140.635 288.643 141.007C287.987 141.379 287.499 142.247 287.466 143.643C287.432 145.015 287.859 146.717 288.807 148.388C289.755 150.059 290.998 151.297 292.193 151.972C293.409 152.659 294.404 152.685 295.06 152.313Z" fill="#521FD1" stroke="#D9CAFF" stroke-width="2"/>
<path d="M255.782 137.811C256.528 137.388 257.042 136.567 257.184 135.455C257.326 134.343 257.079 133.006 256.358 131.735C255.637 130.464 254.615 129.567 253.588 129.119C252.561 128.672 251.592 128.691 250.846 129.115C250.101 129.538 249.587 130.36 249.445 131.471C249.302 132.583 249.549 133.92 250.27 135.191C250.992 136.462 252.013 137.359 253.041 137.807C254.068 138.254 255.037 138.235 255.782 137.811Z" fill="#521FD1" stroke="#D9CAFF" stroke-width="2"/>
</g>
<circle cx="591.5" cy="489.525" r="13.5" fill="url(#paint6_radial)" fill-opacity="0.5"/>
<circle cx="591.5" cy="489.525" r="6.5" fill="url(#paint7_radial)"/>
<path d="M285 273L124 181.5V0H445.5V179.5L285 273Z" fill="url(#paint8_linear)"/>
<path d="M330.5 716.5L81.3226 557.588C66.382 548.06 66.565 526.182 81.6628 516.905L173.5 460.475" stroke="url(#paint9_linear)" stroke-width="4"/>
<circle cx="119.5" cy="493.5" r="13.5" fill="url(#paint10_radial)" fill-opacity="0.5"/>
<circle cx="119.5" cy="493.5" r="6.5" fill="url(#paint11_radial)"/>
<defs>
<filter id="filter0_d" x="228.94" y="88.8391" width="153.536" height="146.659" filterUnits="userSpaceOnUse" color-interpolation-filters="sRGB">
<feFlood flood-opacity="0" result="BackgroundImageFix"/>
<feColorMatrix in="SourceAlpha" type="matrix" values="0 0 0 0 0 0 0 0 0 0 0 0 0 0 0 0 0 0 127 0"/>
<feOffset dx="13" dy="11"/>
<feGaussianBlur stdDeviation="12"/>
<feColorMatrix type="matrix" values="0 0 0 0 0.207843 0 0 0 0 0.00392157 0 0 0 0 0.72549 0 0 0 0.65 0"/>
<feBlend mode="normal" in2="BackgroundImageFix" result="effect1_dropShadow"/>
<feBlend mode="normal" in="SourceGraphic" in2="effect1_dropShadow" result="shape"/>
</filter>
<radialGradient id="paint0_radial" cx="0" cy="0" r="1" gradientUnits="userSpaceOnUse" gradientTransform="translate(298.5 460) rotate(89.8718) scale(223.501 381.228)">
<stop offset="0.374069" stop-color="#793AFF"/>
<stop offset="0.671519" stop-color="#300591"/>
</radialGradient>
<linearGradient id="paint1_linear" x1="287.5" y1="247.5" x2="287.5" y2="538" gradientUnits="userSpaceOnUse">
<stop stop-color="#1D0066"/>
<stop offset="1" stop-color="#521FD1"/>
</linearGradient>
<linearGradient id="paint2_linear" x1="70" y1="362" x2="597" y2="399" gradientUnits="userSpaceOnUse">
<stop stop-color="#521FD1"/>
<stop offset="1" stop-color="#6E39F5" stop-opacity="0"/>
</linearGradient>
<radialGradient id="paint3_radial" cx="0" cy="0" r="1" gradientUnits="userSpaceOnUse" gradientTransform="translate(281 353) rotate(89.8717) scale(185.186 316.093)">
<stop stop-color="#793AFF"/>
<stop offset="0.0001" stop-color="#300591"/>
</radialGradient>
<linearGradient id="paint4_linear" x1="148.5" y1="179.025" x2="301" y2="494.525" gradientUnits="userSpaceOnUse">
<stop stop-color="#1A0050"/>
<stop offset="1" stop-color="#530FFF"/>
</linearGradient>
<linearGradient id="paint5_linear" x1="496" y1="243.525" x2="365.25" y2="454.5" gradientUnits="userSpaceOnUse">
<stop stop-color="#3600BC"/>
<stop offset="1" stop-color="#300992"/>
</linearGradient>
<radialGradient id="paint6_radial" cx="0" cy="0" r="1" gradientUnits="userSpaceOnUse" gradientTransform="translate(591.5 489.525) rotate(90) scale(13.5)">
<stop stop-color="white"/>
<stop offset="1" stop-color="white" stop-opacity="0"/>
</radialGradient>
<radialGradient id="paint7_radial" cx="0" cy="0" r="1" gradientUnits="userSpaceOnUse" gradientTransform="translate(591.5 489.525) rotate(90) scale(6.5)">
<stop stop-color="white"/>
<stop offset="1" stop-color="white" stop-opacity="0"/>
</radialGradient>
<linearGradient id="paint8_linear" x1="285" y1="310" x2="285" y2="1.68738e-06" gradientUnits="userSpaceOnUse">
<stop stop-color="#9C7CF9" stop-opacity="0.44"/>
<stop offset="1" stop-color="#240C6A" stop-opacity="0"/>
</linearGradient>
<linearGradient id="paint9_linear" x1="61.5" y1="526" x2="599.5" y2="874" gradientUnits="userSpaceOnUse">
<stop stop-color="#6C23F5"/>
<stop offset="0.39861" stop-color="#6C23F5" stop-opacity="0"/>
<stop offset="0.755208" stop-color="#6C23F5" stop-opacity="0"/>
</linearGradient>
<radialGradient id="paint10_radial" cx="0" cy="0" r="1" gradientUnits="userSpaceOnUse" gradientTransform="translate(119.5 493.5) rotate(90) scale(13.5)">
<stop stop-color="white"/>
<stop offset="1" stop-color="white" stop-opacity="0"/>
</radialGradient>
<radialGradient id="paint11_radial" cx="0" cy="0" r="1" gradientUnits="userSpaceOnUse" gradientTransform="translate(119.5 493.5) rotate(90) scale(6.5)">
<stop stop-color="white"/>
<stop offset="1" stop-color="white" stop-opacity="0"/>
</radialGradient>
</defs>
</svg>
