<svg width="963" height="691" viewBox="0 0 963 691" fill="none" xmlns="http://www.w3.org/2000/svg">
    <path d="M463 435.216V355.897L713 470.515V549.419L463 435.216Z" fill="#38109D"/>
    <path d="M962.585 433.555L713 549.003V470.93L962.585 356.312V433.555Z" fill="#4B1BC3"/>
    <path d="M713.831 243.355L463 355.897L713.831 471.761L962.585 356.312L713.831 243.355Z" fill="#5E29E6"/>
    <path d="M775.708 320.598V251.246L900.708 307.724V384.967L775.708 320.598Z" fill="#3067F4"/>
    <path d="M838 221.761L775.708 251.246L900.708 307.724L963 279.07L838 221.761Z" fill="#7BA0FF"/>
    <path d="M900.707 384.967V307.724L962.584 279.07V356.312L900.707 384.967Z" fill="#3A71FF"/>
    <g filter="url(#filter0_d)">
        <path d="M588 221.761L463 277.824L524.877 306.894L586.754 279.07L651.538 307.724L713.415 276.993L588 221.761Z" fill="#B7DCFF"/>
        <path d="M463 355.897V277.824L525.292 306.478V384.552L463 355.897Z" fill="#80B8EB"/>
        <path d="M650.708 307.724V386.213L713.415 357.973V276.993L650.708 307.724Z" fill="#8BC0F1"/>
        <path d="M525.292 384.552V306.478L586.754 279.07L588 356.728L525.292 384.552Z" fill="url(#paint0_linear)"/>
        <path d="M651.538 386.213V307.309L586.754 279.07V357.143L651.538 386.213Z" fill="url(#paint1_linear)"/>
    </g>
    <g filter="url(#filter1_d)">
        <path d="M711.754 19.103L586.754 75.1661L648.631 104.236L710.508 76.412L775.292 105.066L837.169 74.3356L711.754 19.103Z" fill="#B7DCFF"/>
        <path d="M586.754 153.239V75.1661L649.046 103.821V181.894L586.754 153.239Z" fill="#80B8EB"/>
        <path d="M774.461 105.066V183.555L837.169 155.316V74.3356L774.461 105.066Z" fill="#8BC0F1"/>
        <path d="M649.046 181.894V103.821L710.508 76.412L711.754 154.07L649.046 181.894Z" fill="url(#paint2_linear)"/>
        <path d="M775.292 183.555V104.651L710.508 76.412V154.485L775.292 183.555Z" fill="url(#paint3_linear)"/>
    </g>
    <path d="M712.538 9L649 36.4086L712.538 65.8937L774.415 36.4086L712.538 9Z" fill="#E8DFFF"/>
    <path d="M649 115.728V36.4087L712.123 65.0632V143.967L649 115.728Z" fill="#CDBAFD"/>
    <path d="M712.123 65.0632V143.967L774.415 116.143V36.4087L712.123 65.0632Z" fill="#D9CAFF"/>
    <g filter="url(#filter2_d)">
        <path d="M284.424 389L252 402.987L284.424 418.033L316 402.987L284.424 389Z" fill="white"/>
        <path d="M252 443.464V402.987L284.212 417.609V457.874L252 443.464Z" fill="#BACDFD"/>
        <path d="M284.212 417.609V457.874L316 443.675V402.987L284.212 417.609Z" fill="#D0DDFF"/>
    </g>
    <g filter="url(#filter3_f)">
        <path d="M437.265 128L417 136.742L437.265 146.146L457 136.742L437.265 128Z" fill="#E8DFFF"/>
        <path d="M417 162.04V136.742L437.132 145.881V171.046L417 162.04Z" fill="#CDBAFD"/>
        <path d="M437.132 145.881V171.046L457 162.172V136.742L437.132 145.881Z" fill="#D9CAFF"/>
    </g>
    <path d="M0.5 691L462.5 435L714.5 548.5L462.5 691H0.5Z" fill="url(#paint4_linear)"/>
    <g filter="url(#filter4_d)">
        <path d="M470.57 525L427 543.795L470.57 564.013L513 543.795L470.57 525Z" fill="#E8DFFF"/>
        <path d="M427 598.185V543.795L470.285 563.444V617.55L427 598.185Z" fill="#CDBAFD"/>
        <path d="M470.285 563.444V617.55L513 598.47V543.795L470.285 563.444Z" fill="#D9CAFF"/>
    </g>
    <defs>
        <filter id="filter0_d" x="460" y="217.761" width="286.415" height="200.452" filterUnits="userSpaceOnUse" color-interpolation-filters="sRGB">
            <feFlood flood-opacity="0" result="BackgroundImageFix"/>
            <feColorMatrix in="SourceAlpha" type="matrix" values="0 0 0 0 0 0 0 0 0 0 0 0 0 0 0 0 0 0 127 0"/>
            <feOffset dx="15" dy="14"/>
            <feGaussianBlur stdDeviation="9"/>
            <feColorMatrix type="matrix" values="0 0 0 0 0.219608 0 0 0 0 0.0627451 0 0 0 0 0.615686 0 0 0 0.21 0"/>
            <feBlend mode="normal" in2="BackgroundImageFix" result="effect1_dropShadow"/>
            <feBlend mode="normal" in="SourceGraphic" in2="effect1_dropShadow" result="shape"/>
        </filter>
        <filter id="filter1_d" x="583.754" y="15.103" width="286.415" height="200.452" filterUnits="userSpaceOnUse" color-interpolation-filters="sRGB">
            <feFlood flood-opacity="0" result="BackgroundImageFix"/>
            <feColorMatrix in="SourceAlpha" type="matrix" values="0 0 0 0 0 0 0 0 0 0 0 0 0 0 0 0 0 0 127 0"/>
            <feOffset dx="15" dy="14"/>
            <feGaussianBlur stdDeviation="9"/>
            <feColorMatrix type="matrix" values="0 0 0 0 0.219608 0 0 0 0 0.0627451 0 0 0 0 0.615686 0 0 0 0.21 0"/>
            <feBlend mode="normal" in2="BackgroundImageFix" result="effect1_dropShadow"/>
            <feBlend mode="normal" in="SourceGraphic" in2="effect1_dropShadow" result="shape"/>
        </filter>
        <filter id="filter2_d" x="221" y="377" width="126" height="130.874" filterUnits="userSpaceOnUse" color-interpolation-filters="sRGB">
            <feFlood flood-opacity="0" result="BackgroundImageFix"/>
            <feColorMatrix in="SourceAlpha" type="matrix" values="0 0 0 0 0 0 0 0 0 0 0 0 0 0 0 0 0 0 127 0"/>
            <feOffset dy="19"/>
            <feGaussianBlur stdDeviation="15.5"/>
            <feColorMatrix type="matrix" values="0 0 0 0 0.101961 0 0 0 0 0.0705882 0 0 0 0 0.294118 0 0 0 0.56 0"/>
            <feBlend mode="normal" in2="BackgroundImageFix" result="effect1_dropShadow"/>
            <feBlend mode="normal" in="SourceGraphic" in2="effect1_dropShadow" result="shape"/>
        </filter>
        <filter id="filter3_f" x="411" y="122" width="52" height="55.0463" filterUnits="userSpaceOnUse" color-interpolation-filters="sRGB">
            <feFlood flood-opacity="0" result="BackgroundImageFix"/>
            <feBlend mode="normal" in="SourceGraphic" in2="BackgroundImageFix" result="shape"/>
            <feGaussianBlur stdDeviation="3" result="effect1_foregroundBlur"/>
        </filter>
        <filter id="filter4_d" x="384" y="511" width="172" height="178.55" filterUnits="userSpaceOnUse" color-interpolation-filters="sRGB">
            <feFlood flood-opacity="0" result="BackgroundImageFix"/>
            <feColorMatrix in="SourceAlpha" type="matrix" values="0 0 0 0 0 0 0 0 0 0 0 0 0 0 0 0 0 0 127 0"/>
            <feOffset dy="29"/>
            <feGaussianBlur stdDeviation="21.5"/>
            <feColorMatrix type="matrix" values="0 0 0 0 0.101961 0 0 0 0 0.0705882 0 0 0 0 0.294118 0 0 0 0.4 0"/>
            <feBlend mode="normal" in2="BackgroundImageFix" result="effect1_dropShadow"/>
            <feBlend mode="normal" in="SourceGraphic" in2="effect1_dropShadow" result="shape"/>
        </filter>
        <linearGradient id="paint0_linear" x1="525.292" y1="332.226" x2="627.867" y2="309.385" gradientUnits="userSpaceOnUse">
            <stop stop-color="#97CBFB"/>
            <stop offset="1" stop-color="#A2D2FF"/>
        </linearGradient>
        <linearGradient id="paint1_linear" x1="718.399" y1="320.183" x2="543.565" y2="351.329" gradientUnits="userSpaceOnUse">
            <stop stop-color="#98CCFC"/>
            <stop offset="1" stop-color="#84C0F8"/>
        </linearGradient>
        <linearGradient id="paint2_linear" x1="649.046" y1="129.568" x2="751.621" y2="106.728" gradientUnits="userSpaceOnUse">
            <stop stop-color="#97CBFB"/>
            <stop offset="1" stop-color="#A2D2FF"/>
        </linearGradient>
        <linearGradient id="paint3_linear" x1="842.152" y1="117.525" x2="667.319" y2="148.671" gradientUnits="userSpaceOnUse">
            <stop stop-color="#98CCFC"/>
            <stop offset="1" stop-color="#84C0F8"/>
        </linearGradient>
        <linearGradient id="paint4_linear" x1="497" y1="411" x2="339.5" y2="736" gradientUnits="userSpaceOnUse">
            <stop stop-color="#290778"/>
            <stop offset="0.78549" stop-color="#2F058E" stop-opacity="0.3"/>
        </linearGradient>
    </defs>
</svg>
