<svg width="31" height="30" viewBox="0 0 31 30" fill="none" xmlns="http://www.w3.org/2000/svg">
<path d="M4.84082 20.7203L5.54793 20.0132L6.25503 20.7203L5.54793 21.4274L4.84082 20.7203Z" fill="#521FD1"/>
<path d="M11.5581 14.0059L12.9723 12.5916L13.6794 13.2987L12.2652 14.713L11.5581 14.0059Z" fill="#521FD1"/>
<path d="M9.31934 12.7775L10.0259 10.6555L10.9749 10.9715L10.2683 13.0935L9.31934 12.7775Z" fill="#521FD1"/>
<path d="M13.1699 16.0144L15.2919 15.3078L15.6079 16.2568L13.4859 16.9634L13.1699 16.0144Z" fill="#521FD1"/>
<path d="M28.5 0H5.50004C4.83724 0.000793929 4.20182 0.264441 3.73315 0.73311C3.26448 1.20178 3.00083 1.8372 3.00004 2.5V19.1895L1.85404 20.7935C1.7601 20.9252 1.69971 21.0778 1.6781 21.2381C1.6565 21.3985 1.67432 21.5616 1.73004 21.7135L1.30754 22.136C1.02679 22.4176 0.869141 22.7991 0.869141 23.1968C0.869141 23.5944 1.02679 23.9759 1.30754 24.2575L2.01454 24.9645C2.28749 25.2366 2.65518 25.3925 3.04054 25.3995C3.13519 25.9842 3.4344 26.5164 3.88484 26.9011C4.33528 27.2858 4.90769 27.498 5.50004 27.5H7.37954L8.72954 28.8535C8.95695 29.0818 9.25186 29.2309 9.57058 29.2785C9.88931 29.3261 10.2149 29.2699 10.4991 29.118C10.7834 28.9661 11.0112 28.7268 11.1488 28.4354C11.2863 28.144 11.3264 27.816 11.263 27.5H28.5C29.1628 27.4992 29.7983 27.2356 30.2669 26.7669C30.7356 26.2982 30.9992 25.6628 31 25V2.5C30.9992 1.8372 30.7356 1.20178 30.2669 0.73311C29.7983 0.264441 29.1628 0.000793929 28.5 0ZM5.50004 1H28.5C28.8979 1 29.2794 1.15804 29.5607 1.43934C29.842 1.72064 30 2.10218 30 2.5V4H4.00004V2.5C4.00004 2.10218 4.15807 1.72064 4.43938 1.43934C4.72068 1.15804 5.10221 1 5.50004 1ZM5.61404 17.25L9.02204 20.658L4.89704 23.604L4.13604 22.843L4.84304 22.136L4.13604 21.429L3.42904 22.136L2.66804 21.375L5.61404 17.25ZM10.4015 17.088L9.18454 15.8705C9.35309 15.8246 9.53078 15.8241 9.69958 15.869C9.86839 15.914 10.0223 16.0028 10.1457 16.1264C10.2691 16.25 10.3577 16.4041 10.4023 16.573C10.447 16.7418 10.4462 16.9195 10.4 17.088H10.4015ZM11.0305 19.131C11.1712 19.2717 11.2501 19.4625 11.2501 19.6614C11.2501 19.8604 11.171 20.0511 11.0303 20.1917C10.8896 20.3324 10.6988 20.4114 10.4999 20.4113C10.3009 20.4113 10.1102 20.3322 9.96954 20.1915L6.08054 16.3C5.93984 16.1593 5.8608 15.9685 5.8608 15.7695C5.8608 15.5705 5.93984 15.3797 6.08054 15.239C6.22123 15.0983 6.41206 15.0193 6.61104 15.0193C6.81001 15.0193 7.00084 15.0983 7.14154 15.239L11.0305 19.131ZM2.01504 23.55C1.96855 23.5036 1.93167 23.4484 1.90651 23.3877C1.88135 23.327 1.86839 23.262 1.86839 23.1963C1.86839 23.1305 1.88135 23.0655 1.90651 23.0048C1.93167 22.9441 1.96855 22.8889 2.01504 22.8425L2.36854 22.489L3.78304 23.903L3.42954 24.257C3.3831 24.3035 3.32796 24.3404 3.26726 24.3655C3.20656 24.3907 3.1415 24.4036 3.07579 24.4036C3.01008 24.4036 2.94502 24.3907 2.88432 24.3655C2.82362 24.3404 2.76847 24.3035 2.72204 24.257L2.01504 23.55ZM5.50004 26.5C5.11518 26.4986 4.74557 26.3494 4.46768 26.0831C4.18979 25.8168 4.02487 25.4539 4.00704 25.0695C4.05204 25.037 4.09512 25.002 4.13604 24.9645L4.48954 24.6105C4.49304 24.614 4.49804 24.615 4.50154 24.618L6.38054 26.5H5.50004ZM10.1465 28.1465C10.0517 28.2385 9.9247 28.29 9.79254 28.29C9.66038 28.29 9.53341 28.2385 9.43854 28.1465L5.61654 24.3195L6.43954 23.7315L10.146 27.4385C10.1926 27.4849 10.2296 27.5401 10.2549 27.6008C10.2801 27.6615 10.2931 27.7266 10.2932 27.7924C10.2932 27.8582 10.2803 27.9233 10.2551 27.9841C10.23 28.0448 10.1931 28.1 10.1465 28.1465ZM28.5 26.5H10.622L7.26454 23.1425L9.86054 21.288C10.2344 21.4338 10.647 21.4466 11.0291 21.3244C11.4113 21.2022 11.7399 20.9524 11.9599 20.6168C12.1798 20.2812 12.2778 19.8802 12.2373 19.481C12.1968 19.0818 12.0204 18.7086 11.7375 18.424L11.157 17.843C11.3831 17.4626 11.4759 17.0178 11.4209 16.5788C11.3659 16.1398 11.1662 15.7316 10.8533 15.4187C10.5405 15.1058 10.1323 14.9061 9.69326 14.8511C9.25424 14.7961 8.80941 14.889 8.42904 15.115L7.85004 14.5345C7.56548 14.2514 7.19223 14.0747 6.79287 14.034C6.39351 13.9934 5.99231 14.0913 5.65655 14.3113C5.32079 14.5313 5.07087 14.86 4.9487 15.2424C4.82653 15.6248 4.83954 16.0376 4.98554 16.4115L4.00004 17.7895V5H30V25C30 25.3978 29.842 25.7794 29.5607 26.0607C29.2794 26.342 28.8979 26.5 28.5 26.5Z" fill="#521FD1"/>
<path d="M6 2H7V3H6V2Z" fill="#521FD1"/>
<path d="M8 2H9V3H8V2Z" fill="#521FD1"/>
<path d="M10 2H11V3H10V2Z" fill="#521FD1"/>
<path d="M27.5 6.5H15.5C15.2348 6.5 14.9804 6.60536 14.7929 6.79289C14.6054 6.98043 14.5 7.23478 14.5 7.5V14.5H15.5V7.5H27.5V19.5H15.5V17.5H14.5V19.5C14.5 19.7652 14.6054 20.0196 14.7929 20.2071C14.9804 20.3946 15.2348 20.5 15.5 20.5H27.5C27.7652 20.5 28.0196 20.3946 28.2071 20.2071C28.3946 20.0196 28.5 19.7652 28.5 19.5V7.5C28.5 7.23478 28.3946 6.98043 28.2071 6.79289C28.0196 6.60536 27.7652 6.5 27.5 6.5Z" fill="#521FD1"/>
<path d="M20 15.5C20.0774 15.5009 20.1539 15.4838 20.2235 15.45L23.2235 13.95C23.3067 13.9086 23.3767 13.8447 23.4256 13.7657C23.4745 13.6866 23.5005 13.5955 23.5005 13.5025C23.5005 13.4096 23.4745 13.3185 23.4256 13.2394C23.3767 13.1604 23.3067 13.0965 23.2235 13.0551L20.2235 11.5551C20.1474 11.517 20.0629 11.4991 19.978 11.5028C19.8931 11.5065 19.8105 11.5319 19.738 11.5764C19.6656 11.621 19.6058 11.6833 19.5641 11.7574C19.5224 11.8315 19.5004 11.915 19.5 12.0001V15C19.5 15.1327 19.5527 15.2598 19.6464 15.3536C19.7402 15.4474 19.8674 15.5 20 15.5ZM20.5 12.8091L21.882 13.5L20.5 14.191V12.8091Z" fill="#521FD1"/>
<path d="M14.5 22H16.5V23H14.5V22Z" fill="#521FD1"/>
<path d="M17.5 22H21.5V23H17.5V22Z" fill="#521FD1"/>
<path d="M22.5 22H28.5V23H22.5V22Z" fill="#521FD1"/>
<path d="M14.5 24H20.5V25H14.5V24Z" fill="#521FD1"/>
<path d="M21.5 24H28.5V25H21.5V24Z" fill="#521FD1"/>
</svg>
